SplineFontDB: 3.0
FontName: Manjari-Regular
FullName: Manjari Regular
FamilyName: Manjari
Weight: Regular
Copyright: Digitized data copyright (c) 2016, Santhosh Thottingal, Kavya Manohar,\nSwathanthra Malayalam Computing(http://smc.org.in)
Version: 1.0.0-alpha.20160501
ItalicAngle: 0
UnderlinePosition: -600
UnderlineWidth: 100
Ascent: 1434
Descent: 614
InvalidEm: 0
sfntRevision: 0x00010000
LayerCount: 2
Layer: 0 0 "Back" 1
Layer: 1 0 "Fore" 0
XUID: [1021 348 -393509193 7773663]
FSType: 0
OS2Version: 1
OS2_WeightWidthSlopeOnly: 0
OS2_UseTypoMetrics: 1
CreationTime: 1201144287
ModificationTime: 1462717195
PfmFamily: 17
TTFWeight: 400
TTFWidth: 5
LineGap: 0
VLineGap: 0
Panose: 2 0 5 3 0 0 0 0 0 0
OS2TypoAscent: 1500
OS2TypoAOffset: 0
OS2TypoDescent: -750
OS2TypoDOffset: 0
OS2TypoLinegap: 0
OS2WinAscent: 1500
OS2WinAOffset: 0
OS2WinDescent: 750
OS2WinDOffset: 0
HheadAscent: 1500
HheadAOffset: 0
HheadDescent: -750
HheadDOffset: 0
OS2SubXSize: 1331
OS2SubYSize: 1433
OS2SubXOff: 274
OS2SubYOff: 286
OS2SupXSize: 1331
OS2SupYSize: 1433
OS2SupXOff: -944
OS2SupYOff: 983
OS2StrikeYSize: 102
OS2StrikeYPos: 530
OS2CapHeight: 1400
OS2XHeight: 1000
OS2Vendor: 'SMC '
OS2CodePages: 00000001.00000000
OS2UnicodeRanges: 80800003.00002000.00000000.00000000
MarkAttachClasses: 1
DEI: 91125
LangName: 1100 "" "" "" "" "" "" "" "" "" "" "" "" "" "" "" "" "" "" "+DS4NHg1NDRwNMA0/"

StartChar: .notdef
Encoding: 1114112 -1 0
Width: 692
GlyphClass: 2
Flags: MW
LayerCount: 2
Fore
SplineSet
102 55 m 1
 552 55 l 1
 552 1063 l 1
 102 1063 l 1
 102 55 l 1
45 1 m 1
 45 1119 l 1
 606 1119 l 1
 606 1 l 1
 45 1 l 1
EndSplineSet
EndChar

StartChar: exclam
Encoding: 33 33 4
Width: 352
GlyphClass: 2
Flags: MW
LayerCount: 2
Fore
SplineSet
176 171 m 0
 229 171 272 128 272 75 c 0
 272 22 229 -21 176 -21 c 0
 123 -21 80 22 80 75 c 0
 80 128 123 171 176 171 c 0
171 1383 m 4
 210 1383 251 1352 251 1313 c 5
 225 397 l 5
 225 358 210 327 171 327 c 4
 132 327 116 358 116 397 c 5
 90 1313 l 5
 90 1351 132 1383 171 1383 c 4
EndSplineSet
EndChar

StartChar: numbersign
Encoding: 35 35 6
Width: 942
GlyphClass: 2
Flags: MW
LayerCount: 2
Fore
SplineSet
446 781 m 1
 384 450 l 1
 633 450 l 1
 692 781 l 1
 446 781 l 1
807 781 m 1
 746 450 l 1
 938 450 l 1
 938 349 l 1
 728 349 l 1
 659 -28 l 1
 544 -28 l 1
 612 349 l 1
 366 349 l 1
 296 -28 l 1
 183 -28 l 1
 251 349 l 1
 68 349 l 1
 68 450 l 1
 272 450 l 1
 330 781 l 1
 134 781 l 1
 134 882 l 1
 350 882 l 1
 413 1231 l 1
 530 1231 l 1
 462 882 l 1
 711 882 l 1
 774 1231 l 1
 891 1231 l 1
 824 882 l 1
 996 882 l 1
 996 781 l 1
 807 781 l 1
EndSplineSet
EndChar

StartChar: dollar
Encoding: 36 36 7
Width: 1401
GlyphClass: 2
Flags: MW
LayerCount: 2
Fore
SplineSet
271 960 m 4
 271 883 334 837 393 813 c 4
 467 783 549 770 634 762 c 5
 634 1210 l 5
 466 1192 271 1117 271 960 c 4
784 -84 m 6
 784 -119 752 -159 720 -159 c 4
 663 -159 634 -134 634 -83 c 6
 634 -5 l 5
 400 15 202 120 109 300 c 4
 104 309 100 326 100 336 c 4
 100 377 134 411 175 411 c 4
 201 411 231 392 242 369 c 4
 312 235 453 162 634 145 c 5
 634 616 l 5
 531 624 428 636 336 674 c 4
 229 718 121 810 121 960 c 4
 121 1217 386 1340 634 1361 c 5
 634 1422 l 6
 634 1463 667 1497 708 1497 c 6
 709 1497 l 6
 751 1497 784 1463 784 1421 c 6
 784 1361 l 5
 986 1341 1159 1238 1242 1084 c 4
 1247 1075 1252 1059 1252 1048 c 4
 1252 1007 1218 973 1177 973 c 4
 1152 973 1122 991 1110 1013 c 4
 1051 1123 933 1193 784 1210 c 5
 784 751 l 5
 880 744 975 734 1062 703 c 4
 1182 661 1301 567 1301 404 c 4
 1301 137 1046 12 784 -6 c 5
 784 -84 l 6
784 144 m 5
 964 158 1151 233 1151 404 c 4
 1151 492 1081 537 1013 561 c 4
 941 586 863 598 784 605 c 5
 784 144 l 5
EndSplineSet
EndChar

StartChar: percent
Encoding: 37 37 8
Width: 1584
GlyphClass: 2
Flags: HMW
LayerCount: 2
Fore
SplineSet
1369 1432 m 0
 1411 1403 1412 1354 1392 1324 c 1
 437 15 l 1
 437 15 434 12 430 6 c 0
 410 -23 362 -25 338 -9 c 0
 299 17 288 63 313 99 c 1
 1268 1408 l 2
 1291 1440 1336 1455 1369 1432 c 0
1099 636 m 1
 1266 667 1404 554 1454 444 c 0
 1516 308 1477 167 1396 79 c 0
 1316 -8 1173 -63 1024 -2 c 0
 914 43 801 175 820 326 c 0
 841 496 934 599 1099 636 c 1
1342 275 m 0
 1357 369 1306 436 1245 474 c 0
 1164 524 1067 497 1012 442 c 0
 1009 435 1006 430 1001 424 c 0
 882 277 1027 76 1194 117 c 0
 1269 135 1330 196 1342 275 c 0
455 1345 m 1
 622 1376 760 1264 810 1154 c 0
 872 1018 833 876 752 788 c 0
 672 701 529 647 380 708 c 0
 270 753 157 884 176 1035 c 0
 197 1205 290 1308 455 1345 c 1
698 984 m 0
 713 1078 662 1146 601 1184 c 0
 520 1234 423 1207 368 1152 c 0
 365 1145 362 1139 357 1133 c 0
 238 986 383 785 550 826 c 0
 625 844 686 905 698 984 c 0
EndSplineSet
EndChar

StartChar: ampersand
Encoding: 38 38 9
Width: 1216
GlyphClass: 2
Flags: MW
LayerCount: 2
Fore
SplineSet
493 659 m 5
 373 595 239 507 239 378 c 4
 239 239 350 135 495 135 c 4
 617 135 722 218 776 293 c 5
 685 411 591 533 493 659 c 5
530 840 m 5
 653 913 718 992 718 1080 c 4
 718 1169 648 1239 560 1239 c 4
 471 1239 395 1175 395 1078 c 4
 395 1003 440 956 530 840 c 5
858 1075 m 4
 858 937 776 825 616 728 c 5
 707 611 784 512 846 431 c 5
 870 498 883 569 886 643 c 4
 887 680 918 712 956 712 c 4
 986 712 1026 682 1026 655 c 4
 1026 531 999 414 945 304 c 5
 1048 170 1103 99 1108 92 c 4
 1113 85 1116 73 1116 55 c 4
 1116 17 1083 -13 1043 -13 c 4
 1022 -13 1003 -3 988 17 c 4
 937 85 896 139 864 179 c 5
 780 78 656 -6 494 -6 c 4
 276 -6 101 154 101 369 c 4
 101 575 215 669 406 772 c 5
 347 854 256 959 256 1083 c 4
 256 1248 398 1381 551 1381 c 4
 725 1381 858 1249 858 1075 c 4
EndSplineSet
EndChar

StartChar: quotesingle
Encoding: 39 39 10
Width: 382
GlyphClass: 2
Flags: MW
LayerCount: 2
Fore
SplineSet
100 1346 m 5
 100 1387 147 1426 189 1426 c 0
 230 1426 285 1388 282 1345 c 5
 242 1033 l 1
 239 992 226 957 185 957 c 0
 144 957 130 992 130 1033 c 1
 100 1346 l 5
EndSplineSet
EndChar

StartChar: parenleft
Encoding: 40 40 11
Width: 705
GlyphClass: 2
Flags: MW
LayerCount: 2
Fore
SplineSet
606 -276 m 0
 606 -319 574 -355 533 -355 c 0
 514 -355 497 -349 484 -338 c 0
 278 -179 100 99 100 440 c 0
 100 780 273 1059 478 1218 c 0
 491 1229 508 1235 527 1235 c 0
 568 1235 600 1199 600 1157 c 0
 600 1134 590 1115 570 1100 c 0
 399 966 250 726 250 441 c 0
 250 155 403 -87 575 -220 c 0
 596 -235 606 -253 606 -276 c 0
EndSplineSet
EndChar

StartChar: asterisk
Encoding: 42 42 13
Width: 955
GlyphClass: 2
Flags: MW
LayerCount: 2
Fore
SplineSet
1 1236 m 0
 1 1276 30 1312 67 1312 c 0
 84 1312 98 1308 109 1301 c 2
 415 1114 l 1
 411 1362 l 2
 411 1363 411 1368 411 1378 c 0
 411 1404 451 1434 481 1434 c 0
 519 1434 551 1402 551 1364 c 2
 555 1115 l 1
 847 1302 l 2
 859 1310 873 1314 890 1314 c 0
 920 1314 956 1282 956 1253 c 0
 956 1221 945 1198 923 1184 c 2
 619 990 l 1
 922 805 l 2
 945 791 956 773 956 750 c 0
 956 710 928 675 890 675 c 0
 874 675 860 679 849 686 c 2
 558 863 l 1
 563 549 l 2
 563 548 563 543 563 533 c 0
 563 506 523 477 493 477 c 0
 455 477 423 509 423 547 c 2
 418 862 l 1
 109 664 l 2
 97 656 83 653 66 653 c 0
 28 653 0 688 0 728 c 0
 0 751 11 768 33 782 c 2
 354 987 l 1
 36 1182 l 2
 13 1196 1 1213 1 1236 c 0
EndSplineSet
EndChar

StartChar: plus
Encoding: 43 43 14
Width: 1050
GlyphClass: 2
Flags: MW
LayerCount: 2
Fore
SplineSet
577 373 m 1
 577 0 l 1
 473 0 l 1
 473 373 l 1
 100 373 l 1
 100 477 l 1
 473 477 l 1
 473 850 l 1
 577 850 l 1
 577 477 l 1
 950 477 l 1
 950 373 l 1
 577 373 l 1
EndSplineSet
EndChar

StartChar: comma
Encoding: 44 44 15
Width: 506
GlyphClass: 2
Flags: MW
LayerCount: 2
Fore
SplineSet
100 139 m 0
 100 211 162 283 231 283 c 0
 262 283 288 278 309 267 c 0
 404 216 430 118 385 -28 c 0
 352 -137 294 -219 211 -274 c 0
 159 -309 102 -267 102 -212 c 0
 102 -190 114 -171 137 -155 c 0
 190 -120 227 -70 246 -5 c 1
 245 -5 245 -5 244 -5 c 0
 165 -5 100 60 100 139 c 0
EndSplineSet
EndChar

StartChar: hyphen
Encoding: 45 45 16
Width: 618
GlyphClass: 2
Flags: MW
LayerCount: 2
Fore
SplineSet
100 368 m 1
 100 494 l 1
 518 494 l 1
 518 368 l 1
 100 368 l 1
EndSplineSet
EndChar

StartChar: period
Encoding: 46 46 17
Width: 489
GlyphClass: 2
Flags: MW
LayerCount: 2
Fore
SplineSet
244 -4 m 0
 166 -4 100 59 100 136 c 0
 100 213 166 275 244 275 c 0
 322 275 389 213 389 136 c 0
 389 59 322 -4 244 -4 c 0
EndSplineSet
EndChar

StartChar: slash
Encoding: 47 47 18
Width: 912
GlyphClass: 2
Flags: HMW
LayerCount: 2
Fore
SplineSet
814 1424 m 4
 861 1403 870 1355 855 1322 c 5
 633 875 412 428 189 -18 c 0
 174 -50 126 -60 100 -48 c 0
 57 -29 38 14 57 54 c 2
 719 1384 l 6
 737 1419 777 1441 814 1424 c 4
EndSplineSet
EndChar

StartChar: zero
Encoding: 48 48 19
Width: 1219
GlyphClass: 2
Flags: MW
LayerCount: 2
Fore
SplineSet
610 125 m 0
 872 125 969 404 969 696 c 0
 969 971 868 1235 613 1235 c 0
 353 1235 250 968 250 682 c 0
 250 394 350 125 610 125 c 0
100 680 m 0
 100 1054 281 1385 628 1385 c 0
 958 1385 1119 1042 1119 688 c 0
 1119 312 963 -25 606 -25 c 0
 254 -25 100 319 100 680 c 0
EndSplineSet
EndChar

StartChar: one
Encoding: 49 49 20
Width: 772
GlyphClass: 2
Flags: MW
LayerCount: 2
Fore
SplineSet
166 1033 m 0
 138 1033 103 1072 103 1101 c 0
 103 1136 124 1174 155 1180 c 0
 218 1192 276 1247 329 1344 c 0
 344 1373 364 1387 390 1387 c 0
 437 1387 473 1357 473 1312 c 2
 472 136 l 1
 544 136 544 136 616 136 c 0
 643 136 672 96 672 66 c 0
 672 28 640 0 602 0 c 0
 386 0 386 0 170 0 c 0
 132 0 100 28 100 66 c 0
 100 96 129 136 156 136 c 0
 239 136 239 136 322 136 c 1
 322 1098 l 1
 284 1067 231 1033 166 1033 c 0
EndSplineSet
EndChar

StartChar: two
Encoding: 50 50 21
Width: 1122
GlyphClass: 2
Flags: MW
LayerCount: 2
Fore
SplineSet
175 -3 m 2
 134 -3 100 31 100 72 c 0
 100 83 104 99 109 108 c 0
 177 232 266 343 372 437 c 0
 530 578 803 678 803 951 c 0
 803 1111 685 1237 530 1237 c 0
 401 1237 300 1141 278 1035 c 0
 271 1002 238 974 204 974 c 0
 163 974 129 1008 129 1049 c 0
 129 1054 130 1061 131 1066 c 0
 167 1238 320 1387 532 1387 c 0
 776 1387 953 1198 953 951 c 0
 953 610 652 484 472 325 c 0
 412 272 358 212 311 147 c 1
 947 147 l 2
 988 147 1022 113 1022 72 c 0
 1022 31 988 -3 947 -3 c 2
 175 -3 l 2
EndSplineSet
EndChar

StartChar: three
Encoding: 51 51 22
Width: 1039
GlyphClass: 2
Flags: MW
LayerCount: 2
Fore
SplineSet
758 1003 m 0
 758 1125 648 1227 523 1227 c 0
 424 1227 331 1159 305 1088 c 0
 288 1040 268 1019 218 1019 c 0
 189 1019 152 1057 152 1086 c 0
 152 1101 154 1112 157 1121 c 0
 208 1260 341 1376 523 1376 c 0
 732 1376 909 1213 909 992 c 0
 909 866 843 769 772 709 c 1
 872 650 940 547 940 409 c 0
 940 160 734 -17 499 -17 c 0
 330 -17 190 79 114 186 c 0
 105 199 100 216 100 234 c 0
 100 274 137 305 180 305 c 0
 204 305 222 294 237 273 c 0
 286 204 383 134 493 134 c 0
 652 134 790 251 790 405 c 0
 790 568 674 618 504 619 c 0
 465 619 433 649 433 693 c 0
 433 748 477 772 521 772 c 0
 653 772 758 846 758 1003 c 0
EndSplineSet
EndChar

StartChar: four
Encoding: 52 52 23
Width: 1278
GlyphClass: 2
Flags: MW
LayerCount: 2
Fore
SplineSet
753 555 m 1
 751 1096 l 1
 330 557 l 1
 753 555 l 1
829 -23 m 0
 787 -23 754 11 754 53 c 2
 753 405 l 1
 175 407 l 2
 135 407 100 441 100 480 c 0
 100 499 105 515 116 529 c 2
 767 1357 l 2
 782 1376 801 1385 823 1385 c 0
 866 1385 900 1352 900 1310 c 2
 903 555 l 1
 1128 554 l 2
 1169 554 1203 520 1203 479 c 0
 1203 437 1168 404 1126 404 c 2
 903 405 l 1
 904 53 l 2
 904 11 871 -23 829 -23 c 0
EndSplineSet
EndChar

StartChar: five
Encoding: 53 53 24
Width: 1135
GlyphClass: 2
Flags: MW
LayerCount: 2
Fore
SplineSet
230 615 m 0
 193 615 151 645 151 678 c 0
 151 690 152 698 153 702 c 2
 255 1320 l 2
 261 1357 292 1383 328 1383 c 2
 942 1383 l 2
 979 1383 1017 1350 1017 1316 c 0
 1017 1268 987 1233 942 1233 c 2
 392 1233 l 1
 335 884 l 1
 406 921 480 940 558 940 c 0
 826 940 1035 734 1035 461 c 0
 1035 185 821 -22 549 -22 c 0
 341 -22 180 101 108 249 c 0
 103 260 100 274 100 290 c 0
 100 322 136 358 169 358 c 0
 204 358 229 344 243 315 c 0
 294 211 402 128 550 128 c 0
 738 128 885 271 885 460 c 0
 885 650 743 790 545 790 c 0
 440 790 335 716 288 648 c 0
 273 626 254 615 230 615 c 0
EndSplineSet
EndChar

StartChar: six
Encoding: 54 54 25
Width: 1197
GlyphClass: 2
Flags: MW
LayerCount: 2
Fore
SplineSet
644 131 m 0
 822 131 947 265 947 442 c 0
 947 609 805 754 634 754 c 0
 460 754 322 608 322 439 c 0
 322 267 481 131 644 131 c 0
640 -18 m 0
 278 -18 100 339 100 701 c 0
 100 1055 289 1386 644 1386 c 0
 825 1386 962 1284 1033 1163 c 0
 1040 1151 1044 1137 1044 1120 c 0
 1044 1088 1009 1050 978 1050 c 0
 943 1050 918 1063 903 1088 c 0
 856 1168 763 1237 644 1237 c 0
 371 1237 250 969 250 696 c 1
 251 697 251 698 252 699 c 0
 316 801 467 902 622 902 c 0
 893 902 1097 700 1097 432 c 0
 1097 193 909 -18 640 -18 c 0
EndSplineSet
EndChar

StartChar: seven
Encoding: 55 55 26
Width: 1175
GlyphClass: 2
Flags: MW
LayerCount: 2
Fore
SplineSet
1000 1380 m 2
 1039 1380 1075 1350 1075 1306 c 0
 1075 1293 1072 1282 1067 1271 c 0
 866 870 696 455 559 28 c 0
 549 -7 523 -25 480 -25 c 0
 451 -25 413 11 413 40 c 0
 413 54 414 66 417 73 c 0
 544 469 698 855 880 1230 c 1
 175 1230 l 2
 134 1230 100 1264 100 1305 c 0
 100 1346 134 1380 175 1380 c 2
 1000 1380 l 2
EndSplineSet
EndChar

StartChar: eight
Encoding: 56 56 27
Width: 1071
GlyphClass: 2
Flags: MW
LayerCount: 2
Fore
SplineSet
819 375 m 0
 819 517 679 618 533 618 c 0
 390 618 250 526 250 376 c 0
 250 231 387 131 535 131 c 0
 683 131 819 230 819 375 c 0
294 1009 m 0
 294 881 407 783 536 783 c 0
 661 783 776 871 776 1008 c 0
 776 1133 657 1231 539 1231 c 0
 410 1231 294 1137 294 1009 c 0
926 995 m 0
 926 875 874 781 769 707 c 1
 876 646 971 528 971 372 c 0
 971 138 761 -19 535 -19 c 0
 307 -19 100 136 100 374 c 0
 100 533 194 647 300 708 c 1
 210 772 145 874 145 1011 c 0
 145 1218 329 1380 533 1380 c 0
 745 1380 926 1216 926 995 c 0
EndSplineSet
EndChar

StartChar: semicolon
Encoding: 59 59 30
Width: 425
GlyphClass: 2
Flags: MW
LayerCount: 2
Fore
SplineSet
221 283 m 0
 336 283 396 197 396 97 c 0
 396 60 389 18 375 -28 c 0
 342 -137 284 -219 201 -274 c 0
 188 -283 174 -287 161 -287 c 0
 123 -287 92 -253 92 -212 c 0
 92 -190 104 -171 127 -155 c 0
 180 -120 217 -70 236 -5 c 1
 235 -5 235 -5 234 -5 c 0
 155 -5 90 60 90 139 c 0
 90 211 152 283 221 283 c 0
244 601 m 0
 166 601 100 663 100 740 c 0
 100 817 166 880 244 880 c 0
 322 880 389 817 389 740 c 0
 389 663 322 601 244 601 c 0
EndSplineSet
EndChar

StartChar: less
Encoding: 60 60 31
Width: 1003
GlyphClass: 2
Flags: HMW
LayerCount: 2
Fore
SplineSet
800 1018 m 2
 809 1023 823 1026 834 1026 c 0
 873 1026 904 995 904 956 c 0
 904 932 887 905 866 894 c 2
 317 603 l 1
 866 299 l 2
 886 288 903 260 903 237 c 0
 903 198 872 167 833 167 c 0
 823 167 808 171 799 176 c 2
 136 543 l 2
 116 554 100 581 100 604 c 0
 100 627 116 655 137 666 c 2
 800 1018 l 2
EndSplineSet
EndChar

StartChar: equal
Encoding: 61 61 32
Width: 1109
GlyphClass: 2
Flags: MW
LayerCount: 2
Fore
SplineSet
100 702 m 0
 100 732 130 772 156 772 c 0
 166 772 171 772 171 771 c 1
 939 771 l 1
 939 769 947 771 956 771 c 0
 982 771 1010 730 1010 702 c 0
 1010 672 980 631 954 631 c 0
 555 631 555 631 156 631 c 0
 130 631 100 672 100 702 c 0
100 380 m 0
 100 405 127 451 148 451 c 2
 171 450 l 1
 939 450 l 1
 954 451 l 1
 980 451 1010 410 1010 380 c 0
 1010 350 980 310 954 310 c 0
 555 310 555 310 156 310 c 0
 130 310 100 350 100 380 c 0
EndSplineSet
EndChar

StartChar: question
Encoding: 63 63 34
Width: 949
GlyphClass: 2
Flags: MW
LayerCount: 2
Fore
SplineSet
100 952 m 0
 100 1154 264 1287 458 1287 c 0
 641 1287 783 1190 832 1048 c 0
 844 1014 849 979 849 944 c 0
 849 759 715 654 621 571 c 0
 566 522 515 481 515 393 c 0
 515 374 521 356 521 338 c 0
 521 302 492 273 456 273 c 0
 398 273 385 335 385 394 c 0
 385 618 602 688 683 823 c 0
 705 859 719 895 719 944 c 0
 719 1080 596 1157 460 1157 c 0
 334 1157 230 1081 230 952 c 0
 230 944 231 936 231 928 c 0
 231 892 202 863 166 863 c 0
 118 863 100 902 100 952 c 0
474 171 m 0
 527 171 570 128 570 75 c 0
 570 22 527 -21 474 -21 c 0
 421 -21 378 22 378 75 c 0
 378 128 421 171 474 171 c 0
EndSplineSet
EndChar

StartChar: at
Encoding: 64 64 35
Width: 1784
GlyphClass: 2
Flags: MW
LayerCount: 2
Fore
SplineSet
859 734 m 0
 725 734 616 618 616 484 c 0
 616 352 714 232 859 232 c 0
 999 232 1103 341 1105 480 c 0
 1104 619 997 734 859 734 c 0
867 83 m 0
 638 83 466 263 466 492 c 0
 466 695 646 884 846 884 c 0
 945 884 1030 856 1102 800 c 1
 1102 811 l 2
 1102 852 1136 886 1177 886 c 0
 1218 886 1252 852 1252 811 c 2
 1252 321 l 2
 1252 266 1313 227 1370 227 c 0
 1486 227 1532 355 1532 462 c 0
 1532 819 1225 1111 900 1111 c 0
 524 1111 249 809 249 481 c 0
 249 136 505 -162 870 -162 c 0
 944 -162 1019 -148 1097 -120 c 0
 1119 -112 1137 -108 1153 -108 c 0
 1190 -108 1209 -131 1209 -176 c 0
 1209 -218 1189 -246 1149 -261 c 0
 1054 -297 960 -314 869 -314 c 0
 422 -314 99 57 99 477 c 0
 99 871 430 1267 900 1267 c 0
 1298 1267 1684 903 1684 464 c 4
 1684 263 1570 76 1369 76 c 0
 1269 76 1193 118 1140 201 c 1
 1077 137 981 83 867 83 c 0
EndSplineSet
EndChar

StartChar: braceleft
Encoding: 123 123 36
Width: 617
GlyphClass: 2
Flags: MW
LayerCount: 2
Fore
SplineSet
493 1231 m 0
 480 1231 466 1236 454 1236 c 0
 392 1236 380 1172 379 1105 c 2
 373 642 l 2
 372 557 348 487 303 439 c 1
 358 384 380 308 379 209 c 2
 377 -207 l 2
 377 -285 390 -357 463 -357 c 0
 472 -357 481 -357 492 -357 c 0
 533 -357 567 -391 567 -432 c 0
 567 -489 521 -509 468 -509 c 0
 302 -509 227 -374 227 -215 c 2
 229 213 l 2
 229 301 208 356 125 356 c 0
 84 356 50 390 50 431 c 0
 50 471 81 501 120 506 c 1
 190 510 222 565 223 644 c 2
 229 1107 l 2
 231 1257 305 1386 453 1386 c 0
 512 1386 568 1362 568 1306 c 0
 568 1265 534 1231 493 1231 c 0
EndSplineSet
EndChar

StartChar: bar
Encoding: 124 124 37
Width: 350
GlyphClass: 2
Flags: MW
LayerCount: 2
Fore
SplineSet
250 -295 m 2
 250 -330 218 -370 186 -370 c 0
 129 -370 100 -345 100 -294 c 2
 100 1211 l 2
 100 1253 133 1286 175 1286 c 4
 217 1286 250 1252 250 1210 c 2
 250 -295 l 2
EndSplineSet
EndChar

StartChar: asciitilde
Encoding: 126 126 39
Width: 762
GlyphClass: 2
Flags: MW
LayerCount: 2
Fore
SplineSet
623 1339 m 4
 623 1348 620 1355 620 1364 c 4
 620 1403 651 1434 690 1434 c 6
 690 1434 l 6
 740 1434 763 1390 763 1336 c 4
 763 1218 663 1120 546 1120 c 4
 416 1120 357 1216 280 1266 c 4
 259 1280 242 1288 220 1288 c 4
 175 1288 140 1252 140 1208 c 4
 140 1203 141 1198 141 1193 c 4
 141 1154 110 1123 71 1123 c 4
 25 1123 0 1161 -0 1210 c 4
 0 1328 99 1428 218 1428 c 4
 349 1428 409 1331 487 1281 c 4
 507 1268 523 1260 544 1260 c 4
 588 1260 623 1295 623 1339 c 4
EndSplineSet
EndChar

StartChar: anuswara
Encoding: 3330 3330 41
Width: 824
GlyphClass: 2
Flags: HMW
LayerCount: 2
Fore
SplineSet
623 306 m 0
 638 400 587 467 526 505 c 0
 445 555 348 528 293 473 c 0
 290 466 287 460 282 454 c 0
 163 307 308 107 475 148 c 0
 550 166 611 227 623 306 c 0
380 666 m 1
 547 697 685 585 735 475 c 0
 797 339 757 198 676 110 c 0
 596 23 453 -33 304 28 c 0
 194 73 82 205 101 356 c 0
 122 526 215 629 380 666 c 1
EndSplineSet
EndChar

StartChar: ml_a
Encoding: 3333 3333 43
Width: 2693
GlyphClass: 2
Flags: MW
LayerCount: 2
Fore
SplineSet
2439 361 m 0
 2439 509 2341 610 2194 610 c 0
 2059 610 1954 487 1954 354 c 0
 1954 232 2080 110 2204 110 c 0
 2343 110 2439 215 2439 361 c 0
901 842 m 1
 780 781 651 627 651 444 c 0
 651 263 752 117 927 117 c 0
 1024 117 1098 199 1098 272 c 0
 1098 340 1059 386 1008 404 c 0
 959 421 925 399 889 434 c 0
 875 447 869 462 869 477 c 0
 869 523 897 552 936 554 c 0
 992 558 1034 599 1034 660 c 0
 1034 737 957 808 901 842 c 1
929 -24 m 0
 690 -24 514 180 514 435 c 0
 514 634 612 798 728 896 c 1
 716 897 704 897 692 897 c 0
 446 897 239 714 239 466 c 0
 239 298 350 164 475 110 c 0
 498 101 517 72 517 40 c 0
 517 10 484 -26 454 -26 c 0
 439 -26 427 -24 418 -20 c 0
 251 53 100 232 100 457 c 0
 100 781 353 1038 694 1038 c 0
 766 1038 837 1024 906 996 c 1
 971 1020 1037 1032 1104 1032 c 0
 1316 1032 1459 938 1543 794 c 1
 1620 933 1763 1032 1969 1032 c 0
 2305 1032 2594 789 2594 438 c 0
 2594 193 2436 -24 2181 -24 c 0
 1971 -24 1815 147 1815 354 c 0
 1815 567 1977 751 2188 751 c 0
 2248 751 2301 742 2347 722 c 1
 2268 816 2125 892 1974 892 c 0
 1706 892 1616 713 1616 433 c 2
 1616 44 l 2
 1616 6 1584 -26 1546 -26 c 0
 1508 -26 1477 7 1476 44 c 2
 1475 433 l 2
 1475 711 1369 891 1109 891 c 0
 1095 891 1081 891 1067 890 c 1
 1134 822 1176 738 1176 656 c 0
 1176 603 1159 551 1120 504 c 1
 1189 456 1239 378 1239 279 c 0
 1239 107 1095 -24 929 -24 c 0
EndSplineSet
EndChar

StartChar: ml_aa
Encoding: 3334 3334 44
Width: 2919
GlyphClass: 2
Flags: MW
LayerCount: 2
Fore
SplineSet
2178 107 m 4
 2341 107 2453 264 2453 432 c 4
 2453 473 2447 514 2434 555 c 5
 2379 579 2334 591 2299 591 c 4
 2114 591 1953 507 1953 348 c 4
 1953 213 2042 107 2178 107 c 4
1099 267 m 4
 1099 347 1042 405 962 405 c 4
 952 405 940 404 926 404 c 4
 899 404 868 442 868 472 c 4
 868 503 894 539 920 542 c 4
 979 549 1034 577 1034 647 c 4
 1034 728 956 801 895 836 c 5
 779 777 650 625 650 447 c 4
 650 267 753 115 924 115 c 4
 1025 115 1099 192 1099 267 c 4
1542 785 m 5
 1618 921 1765 1026 1973 1026 c 4
 2249 1026 2462 853 2547 654 c 5
 2699 566 2819 385 2819 175 c 4
 2819 -142 2562 -378 2264 -378 c 4
 2096 -378 1972 -312 1878 -223 c 4
 1863 -209 1856 -192 1856 -172 c 4
 1856 -133 1887 -102 1926 -102 c 4
 1945 -102 1962 -109 1975 -122 c 4
 2055 -198 2149 -237 2257 -237 c 4
 2477 -237 2679 -63 2679 157 c 4
 2679 263 2650 354 2593 429 c 5
 2593 415 l 6
 2593 187 2425 -33 2181 -33 c 4
 1990 -33 1813 117 1813 308 c 4
 1813 567 2012 730 2263 730 c 4
 2287 730 2313 728 2338 725 c 5
 2267 804 2127 886 1990 886 c 4
 1748 886 1615 747 1615 505 c 6
 1615 42 l 6
 1615 4 1584 -27 1546 -27 c 4
 1508 -27 1476 5 1475 42 c 6
 1474 432 l 6
 1474 705 1374 886 1113 886 c 4
 1093 886 1076 885 1061 884 c 5
 1136 810 1173 731 1173 647 c 4
 1173 590 1156 540 1121 496 c 5
 1199 441 1238 365 1238 269 c 4
 1238 96 1093 -25 933 -25 c 4
 699 -25 512 175 512 427 c 4
 512 633 608 790 720 886 c 5
 709 887 699 887 688 887 c 4
 425 887 239 696 239 436 c 4
 239 287 348 156 455 102 c 4
 481 89 494 66 494 33 c 4
 494 3 460 -31 430 -31 c 4
 415 -31 402 -28 391 -23 c 4
 239 55 100 229 100 446 c 4
 100 775 356 1028 702 1028 c 4
 767 1028 833 1016 898 990 c 5
 964 1014 1023 1026 1075 1026 c 4
 1294 1026 1450 946 1542 785 c 5
EndSplineSet
EndChar

StartChar: ml_i
Encoding: 3335 3335 45
Width: 1974
GlyphClass: 2
Flags: MW
LayerCount: 2
Fore
SplineSet
441 289 m 0
 537 289 616 367 616 463 c 0
 616 559 537 638 441 638 c 0
 345 638 267 559 267 463 c 0
 267 367 345 289 441 289 c 0
643 1028 m 0
 818 1028 955 937 1023 832 c 1
 1093 949 1214 1030 1376 1030 c 0
 1655 1030 1870 787 1870 509 c 0
 1870 148 1600 -3 1234 -5 c 2
 570 -8 l 2
 553 -8 527 -8 503 -8 c 0
 385 -8 239 -24 239 -110 c 0
 239 -202 345 -212 464 -212 c 2
 1802 -213 l 1
 1803 -213 l 2
 1848 -213 1871 -248 1871 -283 c 0
 1871 -318 1848 -353 1803 -353 c 2
 1802 -353 l 1
 464 -352 l 2
 255 -352 100 -296 100 -102 c 0
 100 100 349 131 570 132 c 2
 1233 135 l 2
 1514 137 1730 237 1730 494 c 0
 1730 705 1585 890 1382 890 c 0
 1169 890 1097 739 1097 507 c 6
 1097 230 l 1
 1096 185 1062 162 1027 162 c 0
 993 162 958 184 957 229 c 2
 956 503 l 2
 954 750 871 889 629 889 c 0
 515 889 401 824 339 748 c 1
 373 759 412 765 454 765 c 0
 622 765 752 613 752 454 c 0
 752 293 622 146 457 146 c 0
 240 146 114 326 114 525 c 0
 114 812 350 1028 643 1028 c 0
EndSplineSet
EndChar

StartChar: ml_u
Encoding: 3337 3337 47
Width: 1329
GlyphClass: 2
Flags: MW
LayerCount: 2
Fore
SplineSet
416 230 m 0
 227 230 106 395 106 571 c 0
 106 839 350 1027 603 1027 c 0
 932 1027 1202 785 1202 462 c 0
 1202 152 980 -2 670 -2 c 0
 665 -2 659 -2 654 -2 c 2
 517 0 l 2
 509 0 502 0 494 0 c 0
 368 0 240 -19 240 -96 c 0
 240 -196 357 -203 498 -203 c 2
 1158 -204 l 2
 1197 -204 1229 -235 1229 -274 c 0
 1229 -313 1197 -344 1158 -344 c 2
 498 -343 l 2
 254 -342 100 -270 100 -100 c 4
 100 61 277 141 427 141 c 0
 457 141 487 140 520 140 c 2
 657 138 l 2
 661 138 664 138 668 138 c 0
 899 138 1064 235 1064 466 c 0
 1064 707 846 884 609 884 c 0
 528 884 448 862 378 812 c 1
 384 812 390 813 396 813 c 0
 561 813 685 675 685 517 c 0
 685 371 561 230 416 230 c 0
394 368 m 0
 485 368 560 443 560 534 c 0
 560 619 487 700 406 700 c 0
 297 700 228 628 228 534 c 0
 228 443 303 368 394 368 c 0
EndSplineSet
EndChar

StartChar: ml_r
Encoding: 3339 3339 49
Width: 1680
GlyphClass: 2
Flags: MW
LayerCount: 2
Fore
SplineSet
790 128 m 2
 517 128 281 92 281 -112 c 0
 281 -304 502 -368 730 -368 c 2
 1019 -368 l 2
 1216 -368 1405 -292 1405 -114 c 0
 1405 80 1181 128 928 128 c 2
 790 128 l 2
1146 742 m 0
 1146 663 1209 598 1290 598 c 0
 1370 598 1427 659 1434 732 c 1
 1419 813 1360 882 1283 882 c 0
 1202 882 1146 816 1146 742 c 0
405 610 m 0
 484 610 546 673 546 752 c 0
 546 826 481 883 409 883 c 0
 334 883 260 826 260 747 c 0
 260 669 331 610 405 610 c 0
1275 225 m 1
 1417 174 1546 51 1546 -121 c 0
 1546 -371 1293 -502 1052 -505 c 2
 708 -508 l 1
 697 -508 l 2
 405 -508 141 -384 141 -112 c 0
 141 47 263 171 394 223 c 1
 243 305 100 459 100 678 c 0
 100 851 227 1024 405 1024 c 0
 563 1024 687 901 687 750 c 0
 687 591 561 468 404 468 c 0
 369 468 333 475 298 489 c 1
 301 486 l 1
 393 342 584 270 820 270 c 0
 1071 270 1255 339 1360 469 c 1
 1359 469 1358 468 1356 467 c 0
 1332 460 1308 457 1285 457 c 0
 1131 457 1004 596 1004 747 c 0
 1004 891 1124 1023 1279 1023 c 0
 1469 1023 1580 853 1580 675 c 0
 1580 454 1432 307 1275 225 c 1
EndSplineSet
EndChar

StartChar: ml_l
Encoding: 3340 3340 50
Width: 2087
GlyphClass: 2
Flags: MW
LayerCount: 2
Fore
SplineSet
1808 314 m 4
 1808 429 1719 519 1604 519 c 4
 1490 519 1397 429 1397 320 c 4
 1397 204 1484 121 1591 121 c 4
 1700 121 1808 194 1808 314 c 4
498 123 m 4
 603 123 690 203 690 317 c 4
 690 428 593 521 484 521 c 4
 373 521 280 431 280 318 c 4
 280 196 388 123 498 123 c 4
1036 789 m 5
 1111 921 1251 1015 1437 1015 c 4
 1762 1015 1987 746 1987 440 c 4
 1987 203 1839 -21 1597 -21 c 4
 1403 -21 1257 124 1257 316 c 4
 1257 506 1396 629 1561 657 c 4
 1579 660 1596 662 1614 662 c 4
 1689 662 1759 634 1825 578 c 5
 1772 743 1619 874 1440 874 c 4
 1276 874 1150 772 1120 622 c 4
 1111 577 1106 518 1105 445 c 6
 1102 53 l 6
 1101 13 1074 -15 1025 -15 c 4
 993 -15 963 21 962 54 c 5
 964 445 l 6
 964 589 955 664 897 748 c 4
 840 828 746 873 643 873 c 4
 441 873 311 737 262 579 c 5
 328 635 399 663 474 663 c 4
 675 663 830 518 830 316 c 4
 830 128 683 -18 499 -18 c 4
 255 -18 100 197 100 440 c 4
 100 746 322 1014 642 1014 c 4
 825 1014 962 919 1036 789 c 5
EndSplineSet
EndChar

StartChar: ml_e
Encoding: 3342 3342 51
Width: 2253
GlyphClass: 2
Flags: MW
LayerCount: 2
Fore
SplineSet
1145 -2 m 1
 1152 -155 1201 -292 1343 -292 c 0
 1487 -292 1521 -160 1523 -6 c 1
 1145 -2 l 1
460 563 m 0
 335 563 235 458 235 341 c 0
 235 240 306 161 384 133 c 0
 409 124 431 96 431 62 c 0
 431 32 398 -3 369 -3 c 0
 355 -3 344 -2 337 1 c 0
 209 46 96 175 96 340 c 0
 96 544 256 704 460 704 c 0
 662 704 821 533 821 341 c 0
 821 275 802 207 760 142 c 1
 1004 140 l 1
 1005 285 l 1
 1005 688 1149 1032 1542 1032 c 0
 1910 1032 2153 697 2153 306 c 0
 2153 4 2020 -246 1857 -408 c 0
 1843 -422 1826 -429 1807 -429 c 0
 1769 -429 1737 -397 1737 -359 c 0
 1737 -340 1744 -323 1758 -309 c 0
 1895 -172 2015 51 2015 304 c 0
 2015 610 1849 892 1551 892 c 0
 1237 892 1145 615 1145 284 c 1
 1144 138 l 1
 1524 134 l 1
 1528 636 l 2
 1528 674 1560 706 1598 706 c 0
 1638 706 1668 680 1668 635 c 2
 1663 1 l 2
 1661 -247 1571 -432 1349 -432 c 0
 1114 -432 1011 -232 1005 -0 c 5
 574 4 l 2
 539 4 504 36 504 69 c 0
 504 103 517 126 543 137 c 0
 614 168 681 243 681 340 c 0
 681 465 583 563 460 563 c 0
EndSplineSet
EndChar

StartChar: ml_ee
Encoding: 3343 3343 52
Width: 2257
GlyphClass: 2
Flags: MW
LayerCount: 2
Fore
SplineSet
1181 -5 m 5
 1187 -131 1252 -232 1376 -232 c 4
 1482 -232 1531 -151 1531 -37 c 6
 1531 -6 l 5
 1181 -5 l 5
427 67 m 4
 427 29 396 -4 357 -4 c 4
 348 -4 339 -2 330 2 c 4
 208 50 100 178 100 340 c 4
 100 547 260 706 468 706 c 4
 669 706 830 542 830 334 c 4
 830 266 809 200 765 136 c 5
 1040 135 l 5
 1040 337 l 6
 1040 732 1206 1011 1595 1011 c 4
 1875 1011 2105 828 2105 561 c 4
 2105 467 2051 364 1988 304 c 5
 2087 241 2158 125 2158 -16 c 4
 2158 -208 1988 -376 1791 -376 c 4
 1783 -376 1775 -375 1767 -375 c 4
 1724 -374 1703 -339 1703 -305 c 4
 1703 -270 1725 -235 1770 -235 c 4
 1910 -235 2018 -152 2018 -6 c 4
 2018 112 1927 205 1821 220 c 4
 1783 225 1762 257 1762 290 c 4
 1762 318 1777 345 1808 356 c 4
 1893 385 1964 471 1964 575 c 4
 1964 764 1784 870 1601 870 c 4
 1295 870 1180 660 1180 337 c 6
 1180 135 l 5
 1528 134 l 5
 1532 636 l 6
 1532 678 1568 706 1604 706 c 4
 1645 706 1673 672 1673 628 c 4
 1672 546 1670 359 1670 213 c 4
 1670 129 1672 77 1672 5 c 4
 1672 -228 1582 -370 1374 -370 c 4
 1163 -370 1050 -205 1041 -5 c 5
 570 -3 l 6
 526 -3 502 32 502 68 c 4
 502 94 515 121 545 132 c 4
 615 159 688 233 688 337 c 4
 688 464 591 565 466 565 c 4
 338 565 239 458 239 340 c 4
 239 240 306 161 382 132 c 4
 405 123 427 98 427 67 c 4
EndSplineSet
EndChar

StartChar: ml_n
Encoding: 3346 3346 54
Width: 1365
GlyphClass: 2
Flags: MW
LayerCount: 2
Fore
SplineSet
640 298 m 0
 640 398 554 473 459 473 c 0
 352 473 278 379 278 285 c 0
 278 184 389 115 471 115 c 0
 579 115 640 207 640 298 c 0
783 290 m 0
 783 129 657 -27 466 -27 c 0
 238 -27 100 210 100 443 c 0
 100 839 409 1040 742 1040 c 0
 978 1040 1180 921 1180 700 c 0
 1180 624 1132 524 1083 511 c 1
 1172 486 1266 375 1266 255 c 0
 1266 101 1141 -29 976 -29 c 0
 909 -29 817 -9 817 59 c 0
 817 98 848 129 887 129 c 0
 917 129 947 110 975 110 c 0
 1056 110 1126 182 1126 257 c 0
 1126 353 1049 406 970 406 c 0
 915 406 872 412 872 474 c 0
 872 503 896 527 925 532 c 0
 1004 546 1040 626 1040 698 c 0
 1040 831 898 900 746 900 c 0
 519 900 252 760 242 475 c 0
 242 471 242 468 242 464 c 1
 292 568 374 613 462 613 c 0
 625 613 783 484 783 290 c 0
EndSplineSet
EndChar

StartChar: k1
Encoding: 3349 3349 57
Width: 1896
GlyphClass: 2
Flags: MW
LayerCount: 2
Fore
SplineSet
240 288 m 0
 240 197 316 122 405 122 c 0
 504 122 586 190 586 298 c 0
 586 302 586 305 586 309 c 0
 569 371 562 434 562 506 c 1
 386 499 240 432 240 288 c 0
1277 510 m 1
 702 508 l 1
 702 311 792 114 988 114 c 0
 1185 114 1277 308 1277 510 c 1
723 648 m 1
 1255 650 l 1
 1218 770 1132 884 989 884 c 0
 846 884 759 767 723 648 c 1
1467 -23 m 0
 1414 -23 1373 -3 1373 49 c 0
 1373 104 1416 117 1469 117 c 0
 1568 117 1657 201 1657 304 c 0
 1657 436 1553 501 1417 509 c 1
 1417 224 1270 -24 986 -24 c 0
 851 -24 740 53 679 130 c 1
 628 48 536 -19 411 -19 c 0
 247 -19 100 115 100 275 c 0
 100 534 312 641 578 647 c 1
 621 841 757 1023 989 1023 c 0
 1220 1023 1355 843 1400 650 c 1
 1614 646 1796 525 1796 305 c 0
 1796 129 1648 -23 1467 -23 c 0
EndSplineSet
EndChar

StartChar: k2
Encoding: 3350 3350 58
Width: 1727
GlyphClass: 2
Flags: MW
LayerCount: 2
Fore
SplineSet
488 120 m 0
 573 120 652 198 652 288 c 0
 652 385 574 462 479 462 c 0
 383 462 300 388 300 289 c 0
 300 182 411 120 488 120 c 0
1207 476 m 0
 1207 344 1153 221 1087 139 c 1
 1483 139 l 1
 1486 955 l 1
 1486 970 l 2
 1486 997 1526 1026 1556 1026 c 0
 1586 1026 1627 997 1627 970 c 0
 1627 960 1627 955 1626 955 c 2
 1623 69 l 2
 1623 31 1591 -1 1553 -1 c 2
 904 -1 l 2
 872 -1 831 26 831 70 c 0
 831 95 850 119 889 142 c 0
 982 198 1066 335 1066 479 c 0
 1066 701 885 884 668 884 c 0
 446 884 264 728 244 499 c 1
 293 554 373 602 475 602 c 0
 651 602 792 464 792 290 c 0
 792 121 654 -18 484 -18 c 0
 247 -18 100 213 100 452 c 0
 100 773 337 1025 658 1025 c 0
 964 1025 1207 787 1207 476 c 0
EndSplineSet
EndChar

StartChar: k3
Encoding: 3351 3351 59
Width: 1819
GlyphClass: 2
Flags: MW
LayerCount: 2
Fore
SplineSet
1266 -22 m 0
 1240 -22 1206 14 1206 41 c 0
 1206 84 1230 110 1279 121 c 0
 1442 155 1580 324 1580 510 c 0
 1580 723 1435 883 1226 883 c 0
 1037 883 966 745 966 547 c 2
 966 455 l 2
 966 180 848 -18 577 -18 c 0
 301 -18 100 220 100 477 c 0
 100 747 258 939 455 1019 c 0
 464 1023 476 1025 490 1025 c 0
 520 1025 552 991 552 960 c 0
 552 927 531 899 508 890 c 0
 360 830 239 685 239 483 c 0
 239 300 384 120 577 120 c 0
 766 120 826 258 826 455 c 2
 826 547 l 2
 826 831 963 1024 1230 1024 c 0
 1516 1024 1720 797 1720 513 c 0
 1720 240 1522 31 1293 -20 c 0
 1288 -21 1279 -22 1266 -22 c 0
EndSplineSet
EndChar

StartChar: k4
Encoding: 3352 3352 60
Width: 2345
GlyphClass: 2
Flags: MW
LayerCount: 2
Fore
SplineSet
1757 541 m 2
 1757 767 1665 883 1442 883 c 0
 1233 883 1146 745 1146 517 c 1
 1145 438 l 1
 1755 442 l 1
 1757 522 l 1
 1757 541 l 2
1439 1024 m 0
 1742 1024 1896 854 1896 539 c 0
 1896 532 1896 525 1896 518 c 2
 1893 371 l 2
 1892 334 1862 303 1824 303 c 2
 1145 298 l 1
 1145 140 l 1
 2102 140 l 1
 2103 947 l 1
 2103 948 l 2
 2103 986 2135 1018 2173 1018 c 0
 2203 1018 2243 989 2243 962 c 2
 2243 947 l 1
 2242 70 l 2
 2242 32 2210 0 2172 0 c 2
 1075 0 l 2
 1037 0 1005 32 1005 70 c 2
 1005 297 l 1
 560 294 l 2
 524 294 490 325 490 360 c 0
 490 400 514 422 547 434 c 0
 635 465 678 555 678 645 c 0
 678 756 610 881 478 881 c 0
 342 881 240 774 240 640 c 0
 240 543 302 468 374 437 c 0
 400 426 416 399 416 372 c 0
 416 339 386 302 353 302 c 0
 338 302 326 304 317 309 c 0
 200 360 100 483 100 641 c 0
 100 849 257 1020 469 1020 c 0
 664 1020 830 839 830 636 c 0
 830 567 808 500 763 435 c 1
 1005 437 l 1
 1006 517 l 1
 1006 824 1155 1024 1439 1024 c 0
EndSplineSet
EndChar

StartChar: ng
Encoding: 3353 3353 61
Width: 2048
GlyphClass: 2
Flags: MW
LayerCount: 2
Fore
SplineSet
377 498 m 0
 319 465 282 406 282 320 c 0
 282 217 384 121 512 121 c 0
 616 121 700 245 700 329 c 0
 700 431 592 534 499 534 c 0
 461 534 421 522 377 498 c 0
1807 258 m 0
 1807 349 1704 378 1596 379 c 1
 1536 379 l 2
 1501 379 1466 410 1466 444 c 0
 1466 490 1496 519 1534 521 c 2
 1603 524 l 2
 1724 530 1797 566 1797 662 c 0
 1797 798 1657 875 1510 875 c 0
 1253 875 1145 710 1145 437 c 0
 1145 432 1145 428 1145 423 c 2
 1147 46 l 2
 1147 8 1114 -25 1076 -25 c 0
 1037 -25 1006 7 1005 45 c 2
 1002 424 l 2
 1000 684 916 874 663 874 c 0
 476 874 327 752 271 596 c 1
 336 648 406 674 480 674 c 0
 682 674 838 528 838 323 c 0
 838 129 688 -16 497 -16 c 0
 248 -16 100 210 100 445 c 0
 100 749 346 1016 650 1016 c 0
 849 1016 992 923 1073 779 c 1
 1155 924 1297 1017 1511 1017 c 0
 1737 1017 1938 879 1938 662 c 0
 1938 583 1871 473 1791 449 c 1
 1893 435 1948 342 1948 253 c 0
 1948 91 1816 -23 1655 -23 c 0
 1587 -23 1521 -2 1467 36 c 0
 1446 50 1436 68 1436 91 c 0
 1436 132 1464 166 1503 166 c 0
 1520 166 1538 160 1556 147 c 0
 1579 131 1622 118 1663 118 c 0
 1746 118 1807 193 1807 258 c 0
EndSplineSet
EndChar

StartChar: ch1
Encoding: 3354 3354 62
Width: 1523
GlyphClass: 2
Flags: MW
LayerCount: 2
Fore
SplineSet
523 301 m 0
 523 271 488 238 458 238 c 0
 378 238 360 345 360 415 c 0
 360 589 497 744 673 744 c 0
 875 744 1037 587 1037 385 c 0
 1037 297 1007 208 951 139 c 1
 1283 140 l 1
 1283 954 l 1
 1285 994 1314 1025 1348 1025 c 0
 1391 1025 1423 996 1423 955 c 2
 1423 70 l 2
 1423 32 1391 0 1353 0 c 2
 121 -4 l 1
 106 -4 l 2
 80 -4 50 36 50 66 c 0
 50 104 82 136 120 136 c 2
 121 136 l 1
 682 138 l 1
 797 153 899 257 899 375 c 0
 899 504 807 606 686 606 c 0
 577 606 501 505 501 411 c 0
 501 365 523 337 523 301 c 0
EndSplineSet
EndChar

StartChar: ch2
Encoding: 3355 3355 63
Width: 2478
GlyphClass: 2
Flags: MW
LayerCount: 2
Fore
SplineSet
1737 415 m 0
 1737 270 1842 138 1981 138 c 0
 2139 138 2239 290 2239 445 c 0
 2239 585 2176 690 2096 767 c 1
 2091 767 2086 767 2081 767 c 0
 1879 767 1737 615 1737 415 c 0
500 416 m 0
 500 377 523 342 523 309 c 0
 523 279 488 246 458 246 c 0
 378 246 360 353 360 423 c 0
 360 607 507 753 686 753 c 0
 896 753 1038 578 1038 389 c 0
 1038 290 1006 211 946 141 c 1
 1305 139 l 1
 1242 238 1213 346 1213 452 c 0
 1213 765 1468 1030 1784 1030 c 0
 2108 1030 2379 778 2379 450 c 0
 2379 216 2224 -3 1991 -3 c 0
 1980 -3 1969 -2 1958 -1 c 0
 1746 25 1596 194 1596 420 c 0
 1596 648 1737 809 1906 874 c 1
 1864 886 1824 891 1784 891 c 0
 1548 891 1352 695 1352 453 c 0
 1352 313 1422 191 1502 121 c 0
 1518 107 1526 90 1526 70 c 0
 1526 30 1495 -2 1456 -2 c 2
 121 4 l 1
 120 4 l 2
 82 4 50 36 50 74 c 0
 50 104 79 144 106 144 c 2
 121 144 l 1
 661 142 l 2
 794 142 897 226 897 395 c 0
 897 506 812 612 690 612 c 0
 581 612 500 530 500 416 c 0
EndSplineSet
EndChar

StartChar: ch3
Encoding: 3356 3356 64
Width: 1529
GlyphClass: 2
Flags: MW
LayerCount: 2
Fore
SplineSet
254 186 m 0
 254 133 324 105 391 105 c 0
 523 105 593 146 759 248 c 1
 653 258 536 274 426 274 c 0
 336 274 254 253 254 186 c 0
1283 670 m 0
 1283 795 1178 890 1053 890 c 0
 936 890 859 795 858 666 c 0
 858 640 858 620 857 608 c 2
 855 491 l 2
 854 454 822 423 784 423 c 0
 747 423 715 455 715 492 c 2
 715 493 l 1
 716 609 l 2
 716 635 716 648 716 648 c 1
 707 769 606 883 465 883 c 0
 457 883 451 883 443 882 c 1
 511 851 583 771 583 672 c 0
 583 530 475 450 346 450 c 0
 191 450 103 556 103 697 c 0
 103 888 270 1024 462 1024 c 0
 588 1024 704 960 773 872 c 1
 829 966 924 1030 1048 1030 c 0
 1244 1030 1424 879 1424 685 c 0
 1424 566 1377 467 1296 391 c 1
 1365 357 1429 286 1429 188 c 0
 1429 61 1330 -37 1205 -37 c 0
 1073 -37 982 74 982 185 c 0
 982 196 982 207 984 218 c 1
 823 131 580 -38 389 -38 c 0
 249 -38 114 44 114 185 c 0
 114 339 246 407 400 407 c 0
 569 407 725 389 884 389 c 0
 1092 389 1283 474 1283 670 c 0
338 565 m 0
 397 565 446 614 446 673 c 0
 446 732 397 781 338 781 c 0
 279 781 230 732 230 673 c 0
 230 614 279 565 338 565 c 0
1200 94 m 0
 1256 94 1305 133 1305 185 c 0
 1305 245 1265 289 1216 289 c 0
 1160 289 1111 251 1111 199 c 0
 1111 139 1151 94 1200 94 c 0
EndSplineSet
EndChar

StartChar: ch4
Encoding: 3357 3357 65
Width: 3094
GlyphClass: 2
Flags: MW
LayerCount: 2
Fore
SplineSet
891 821 m 1
 761 748 650 597 650 394 c 0
 650 250 743 111 881 111 c 0
 1025 111 1112 264 1112 412 c 0
 1112 594 1009 748 891 821 c 1
511 402 m 0
 511 615 612 779 734 882 c 1
 706 887 680 889 654 889 c 0
 417 889 240 708 240 477 c 0
 240 305 342 173 462 111 c 0
 481 102 500 75 500 48 c 0
 500 17 476 -22 442 -22 c 0
 423 -22 407 -19 397 -13 c 0
 237 70 100 246 100 476 c 0
 100 789 342 1029 655 1029 c 0
 737 1029 819 1011 895 977 c 1
 970 1007 1045 1021 1116 1021 c 0
 1431 1021 1559 807 1577 491 c 1
 1582 413 l 2
 1591 259 1607 113 1761 113 c 0
 1910 113 1949 292 1949 472 c 0
 1949 488 1949 505 1948 521 c 2
 1940 950 l 2
 1940 988 1972 1020 2010 1020 c 0
 2048 1020 2079 990 2080 953 c 2
 2088 526 l 1
 2095 282 2220 116 2467 116 c 0
 2687 116 2855 267 2855 490 c 0
 2855 710 2684 877 2467 877 c 0
 2438 877 2418 872 2386 872 c 0
 2358 872 2328 910 2328 940 c 0
 2328 1011 2401 1018 2470 1018 c 0
 2771 1018 2994 777 2994 485 c 0
 2994 187 2763 -25 2467 -25 c 0
 2282 -25 2129 64 2046 180 c 1
 1991 48 1902 -25 1756 -25 c 0
 1520 -25 1456 170 1442 404 c 2
 1437 482 l 1
 1423 721 1365 879 1118 879 c 0
 1096 879 1074 877 1051 874 c 1
 1181 755 1253 606 1253 414 c 0
 1253 185 1117 -29 881 -29 c 0
 650 -29 511 176 511 402 c 0
EndSplineSet
EndChar

StartChar: nj
Encoding: 3358 3358 66
Width: 2517
GlyphClass: 2
Flags: MW
LayerCount: 2
Fore
SplineSet
487 498 m 4
 376 498 293 408 293 299 c 4
 293 193 378 119 479 119 c 4
 588 119 673 198 673 303 c 4
 673 405 586 498 487 498 c 4
1658 814 m 5
 1530 728 1448 583 1448 386 c 4
 1448 250 1532 105 1664 105 c 4
 1808 105 1882 251 1882 391 c 4
 1882 588 1780 735 1658 814 c 5
482 -21 m 4
 244 -21 99 210 99 445 c 4
 99 764 319 1022 637 1022 c 4
 819 1022 966 919 1039 802 c 5
 1115 933 1235 1025 1420 1025 c 4
 1497 1025 1576 1006 1658 967 c 5
 1744 1007 1819 1027 1884 1027 c 4
 2183 1027 2417 770 2417 481 c 4
 2417 274 2336 109 2176 -16 c 4
 2163 -27 2149 -31 2135 -31 c 4
 2097 -31 2063 3 2063 42 c 4
 2063 63 2073 81 2092 96 c 4
 2185 167 2276 304 2276 454 c 4
 2276 677 2126 886 1891 886 c 4
 1863 886 1835 882 1806 876 c 5
 1936 758 2021 603 2021 390 c 4
 2021 170 1890 -33 1666 -33 c 4
 1438 -33 1309 176 1309 401 c 4
 1309 605 1383 758 1511 876 c 5
 1479 884 1449 887 1420 887 c 4
 1256 887 1137 765 1127 656 c 4
 1118 562 1114 503 1114 480 c 6
 1115 38 l 6
 1115 5 1084 -34 1043 -34 c 4
 1005 -34 976 6 975 36 c 5
 975 38 l 5
 973 476 l 6
 972 578 962 649 943 690 c 4
 891 798 787 883 644 883 c 4
 394 883 266 695 230 466 c 5
 280 560 375 621 513 621 c 4
 689 621 813 465 813 304 c 4
 813 124 664 -21 482 -21 c 4
EndSplineSet
EndChar

StartChar: t1
Encoding: 3359 3359 67
Width: 1134
GlyphClass: 2
Flags: MW
LayerCount: 2
Fore
SplineSet
1035 284 m 0
 1035 64 812 -29 589 -29 c 0
 393 -29 237 33 120 157 c 0
 107 170 100 187 100 206 c 0
 100 245 132 276 171 276 c 0
 191 276 208 268 222 253 c 0
 312 158 434 111 590 111 c 0
 742 111 896 158 896 288 c 0
 896 421 747 446 574 446 c 0
 298 447 113 527 113 740 c 0
 113 920 314 1037 549 1037 c 0
 735 1037 877 973 976 844 c 0
 986 831 991 816 991 798 c 0
 991 760 957 731 918 731 c 0
 897 731 879 740 865 759 c 0
 794 851 687 897 543 897 c 0
 402 897 253 841 253 736 c 0
 253 607 412 589 561 587 c 0
 838 583 1035 509 1035 284 c 0
EndSplineSet
EndChar

StartChar: t2
Encoding: 3360 3360 68
Width: 1238
GlyphClass: 2
Flags: MW
LayerCount: 2
Fore
SplineSet
618 124 m 0
 838 124 998 298 998 502 c 0
 998 704 838 881 621 881 c 0
 400 881 240 711 240 504 c 0
 240 289 405 124 618 124 c 0
100 499 m 0
 100 799 320 1021 622 1021 c 0
 915 1021 1138 796 1138 503 c 0
 1138 219 904 -16 620 -16 c 0
 326 -16 100 206 100 499 c 0
EndSplineSet
EndChar

StartChar: t4
Encoding: 3362 3362 70
Width: 2554
GlyphClass: 2
Flags: MW
LayerCount: 2
Fore
SplineSet
1871 684 m 0
 1871 571 1963 483 2072 483 c 0
 2190 483 2281 578 2281 691 c 0
 2281 813 2166 885 2078 885 c 0
 1959 885 1871 808 1871 684 c 0
911 375 m 0
 911 431 916 492 916 543 c 0
 916 735 804 882 612 882 c 0
 399 882 240 695 240 485 c 0
 240 259 407 115 634 115 c 0
 661 115 691 75 691 45 c 0
 691 0 654 -25 608 -25 c 0
 319 -25 100 194 100 483 c 0
 100 776 335 1022 607 1022 c 0
 885 1022 1056 817 1056 537 c 0
 1056 491 1052 434 1052 394 c 0
 1052 242 1072 115 1202 115 c 0
 1387 115 1416 350 1417 558 c 2
 1419 963 l 2
 1420 1003 1449 1032 1495 1032 c 0
 1529 1032 1559 997 1559 962 c 2
 1557 555 l 1
 1557 555 1556 513 1556 481 c 0
 1556 257 1690 109 1902 109 c 0
 2098 109 2236 287 2295 433 c 1
 2238 367 2138 342 2076 342 c 0
 1874 343 1732 505 1732 688 c 0
 1732 868 1886 1027 2075 1027 c 0
 2302 1027 2454 833 2454 603 c 0
 2454 267 2234 -31 1901 -31 c 0
 1712 -31 1574 58 1495 183 c 1
 1444 77 1346 -24 1187 -24 c 0
 990 -24 911 181 911 375 c 0
EndSplineSet
EndChar

StartChar: nh
Encoding: 3363 3363 71
Width: 2764
GlyphClass: 2
Flags: MW
LayerCount: 2
Fore
SplineSet
487 118 m 0
 586 118 665 192 665 290 c 0
 665 384 583 464 490 464 c 0
 397 464 317 383 317 287 c 0
 317 192 397 118 487 118 c 0
2146 -24 m 0
 2079 -24 2013 -16 2013 52 c 0
 2013 82 2043 121 2071 121 c 0
 2098 121 2113 117 2138 117 c 0
 2342 117 2525 284 2525 496 c 0
 2525 730 2344 886 2137 886 c 0
 1879 886 1802 688 1802 419 c 1
 1804 44 l 2
 1804 3 1776 -24 1727 -24 c 0
 1695 -24 1665 10 1664 43 c 2
 1661 419 l 2
 1659 683 1598 888 1395 888 c 0
 1175 888 1130 655 1130 419 c 1
 1130 415 1130 423 1130 419 c 1
 1132 44 l 2
 1132 9 1101 -24 1067 -24 c 0
 1022 -24 993 4 992 43 c 2
 989 419 l 2
 987 690 905 894 643 894 c 0
 412 894 257 699 241 479 c 1
 293 548 387 603 490 603 c 0
 665 603 806 456 806 291 c 0
 806 117 667 -24 489 -24 c 0
 249 -24 100 193 100 446 c 0
 100 756 318 1030 641 1030 c 0
 833 1030 975 930 1051 796 c 1
 1108 911 1231 1030 1393 1030 c 0
 1564 1030 1678 916 1737 797 c 1
 1809 922 1948 1030 2132 1030 c 0
 2439 1030 2664 804 2664 500 c 0
 2664 208 2427 -24 2146 -24 c 0
EndSplineSet
EndChar

StartChar: th1
Encoding: 3364 3364 72
Width: 1790
GlyphClass: 2
Flags: MW
LayerCount: 2
Fore
SplineSet
893 814 m 1
 778 740 673 601 673 406 c 0
 673 265 751 119 894 119 c 0
 1046 120 1115 232 1115 404 c 0
 1115 600 1009 740 893 814 c 1
542 40 m 0
 542 10 509 -26 480 -26 c 0
 466 -26 455 -24 446 -21 c 0
 257 53 100 234 100 489 c 0
 100 798 347 1026 657 1026 c 0
 736 1026 816 1010 891 974 c 1
 892 974 l 1
 971 1010 1055 1026 1136 1026 c 0
 1444 1026 1691 796 1691 488 c 0
 1691 235 1540 58 1356 -19 c 0
 1347 -23 1336 -25 1322 -25 c 0
 1292 -25 1259 10 1259 40 c 0
 1259 72 1279 101 1302 110 c 0
 1433 164 1552 304 1552 478 c 0
 1552 708 1376 888 1141 888 c 0
 1109 888 1076 884 1041 877 c 1
 1171 762 1254 611 1254 404 c 0
 1254 185 1119 -18 895 -18 c 0
 671 -18 533 187 533 405 c 0
 533 609 618 764 744 876 c 1
 710 883 677 887 645 887 c 0
 417 887 239 711 239 481 c 0
 239 306 361 162 497 110 c 0
 521 101 542 73 542 40 c 0
EndSplineSet
EndChar

StartChar: th2
Encoding: 3365 3365 73
Width: 1549
GlyphClass: 2
Flags: MW
LayerCount: 2
Fore
SplineSet
1309 495 m 2
 1311 721 1205 883 981 883 c 0
 719 883 656 667 658 396 c 2
 660 141 l 1
 1306 141 l 1
 1309 495 l 2
100 949 m 2
 100 988 127 1026 172 1026 c 0
 205 1026 240 995 240 962 c 2
 245 142 l 1
 520 141 l 1
 516 475 l 2
 512 786 682 1024 974 1024 c 0
 1251 1024 1443 828 1445 575 c 2
 1449 86 l 2
 1449 39 1421 1 1383 1 c 6
 186 1 l 6
 146 1 107 27 106 64 c 2
 100 949 l 2
EndSplineSet
EndChar

StartChar: th3
Encoding: 3366 3366 74
Width: 1206
GlyphClass: 2
Flags: MW
LayerCount: 2
Fore
SplineSet
981 472 m 1
 1061 422 1106 348 1106 237 c 0
 1106 82 966 -37 811 -37 c 0
 755 -37 700 -20 646 14 c 0
 624 28 614 46 614 68 c 0
 614 108 642 142 680 142 c 0
 697 142 714 137 731 126 c 0
 751 113 782 104 817 104 c 0
 889 104 965 162 965 243 c 0
 965 346 888 379 769 381 c 1
 736 382 l 2
 699 383 668 413 668 450 c 0
 668 484 696 518 726 521 c 2
 754 524 l 1
 855 533 931 585 931 685 c 0
 931 817 809 883 670 883 c 0
 420 883 241 657 241 402 c 0
 241 277 284 161 347 81 c 0
 357 68 362 54 362 36 c 0
 362 -2 329 -32 289 -32 c 0
 268 -32 250 -23 236 -4 c 0
 155 102 100 242 100 398 c 0
 100 739 340 1024 679 1024 c 0
 878 1024 1071 901 1071 687 c 0
 1071 608 1040 530 981 472 c 1
EndSplineSet
EndChar

StartChar: th4
Encoding: 3367 3367 75
Width: 1910
GlyphClass: 2
Flags: MW
LayerCount: 2
Fore
SplineSet
1275 882 m 2
 1256 882 l 2
 1229 882 1200 922 1200 952 c 0
 1200 990 1232 1022 1270 1022 c 0
 1272 1022 1274 1022 1276 1022 c 0
 1569 1022 1810 780 1810 489 c 0
 1810 202 1600 -19 1317 -19 c 0
 1150 -19 1015 73 946 187 c 1
 875 68 749 -22 572 -22 c 0
 299 -22 100 204 100 478 c 0
 100 774 325 994 593 1021 c 0
 596 1021 598 1021 600 1021 c 0
 622 1021 632 1020 651 1001 c 0
 665 987 671 970 671 952 c 0
 671 915 642 885 608 882 c 0
 410 861 241 699 241 480 c 0
 241 279 376 118 578 118 c 0
 750 118 863 253 876 432 c 0
 875 458 874 493 874 538 c 2
 879 953 l 2
 880 987 909 1022 943 1022 c 0
 988 1022 1018 991 1019 952 c 1
 1019 539 l 2
 1019 493 1018 457 1016 431 c 0
 1027 259 1135 117 1319 117 c 0
 1530 117 1667 296 1667 493 c 0
 1667 707 1496 882 1275 882 c 2
EndSplineSet
EndChar

StartChar: n1
Encoding: 3368 3368 76
Width: 1910
GlyphClass: 2
Flags: MW
LayerCount: 2
Fore
SplineSet
1298 -21 m 0
 1273 -21 1240 17 1240 43 c 0
 1240 87 1268 115 1304 118 c 0
 1507 139 1670 314 1670 520 c 0
 1670 719 1539 882 1338 882 c 0
 1114 882 1040 727 1037 463 c 2
 1033 47 l 2
 1032 10 1000 -22 962 -22 c 0
 924 -22 893 11 893 48 c 2
 892 461 l 2
 892 717 833 881 591 881 c 0
 381 881 242 709 242 497 c 0
 242 275 442 108 654 108 c 0
 704 108 711 85 711 54 c 0
 711 7 680 -21 636 -21 c 0
 336 -21 100 216 100 525 c 0
 100 783 316 1021 589 1021 c 0
 761 1021 893 933 965 813 c 1
 1034 928 1166 1022 1333 1022 c 0
 1613 1022 1810 794 1810 522 c 0
 1810 255 1583 -21 1298 -21 c 0
EndSplineSet
EndChar

StartChar: p1
Encoding: 3370 3370 77
Width: 1671
GlyphClass: 2
Flags: MW
LayerCount: 2
Fore
SplineSet
455 549 m 0
 334 549 239 446 239 331 c 0
 239 240 303 157 368 133 c 0
 408 118 429 98 429 72 c 0
 429 30 403 -8 367 -8 c 0
 353 -8 342 -7 334 -4 c 0
 209 41 100 167 100 329 c 0
 100 530 257 689 455 689 c 0
 657 689 815 520 815 331 c 0
 815 267 797 201 756 138 c 1
 1430 140 l 1
 1429 970 l 6
 1429 996 1469 1025 1499 1025 c 4
 1529 1025 1569 996 1569 970 c 6
 1571 70 l 2
 1571 32 1539 0 1501 0 c 2
 572 -1 l 2
 538 -1 503 31 503 62 c 0
 503 110 521 123 568 144 c 0
 622 168 673 250 673 335 c 0
 673 456 574 549 455 549 c 0
EndSplineSet
EndChar

StartChar: p2
Encoding: 3371 3371 78
Width: 2111
GlyphClass: 2
Flags: MW
LayerCount: 2
Fore
SplineSet
1539 888 m 4
 1249 888 1204 740 1202 441 c 5
 1202 140 l 5
 1869 140 l 5
 1871 474 l 5
 1871 748 1778 888 1539 888 c 4
1519 1025 m 4
 1870 1025 2011 843 2011 473 c 5
 2008 71 l 6
 2008 36 1980 -1 1941 -1 c 6
 580 3 l 6
 546 3 510 32 510 70 c 4
 510 103 529 127 551 137 c 4
 618 168 679 241 679 334 c 4
 679 459 582 555 459 555 c 4
 337 555 239 450 239 334 c 4
 239 233 310 155 389 128 c 4
 414 120 438 95 438 63 c 4
 438 24 407 -9 368 -9 c 4
 360 -9 352 -7 344 -4 c 4
 215 40 100 168 100 333 c 4
 100 535 259 695 458 695 c 4
 661 695 821 525 821 335 c 4
 821 271 803 205 762 142 c 5
 1062 141 l 5
 1062 441 l 6
 1062 798 1168 1025 1519 1025 c 4
EndSplineSet
EndChar

StartChar: p3
Encoding: 3372 3372 79
Width: 2487
GlyphClass: 2
Flags: MW
LayerCount: 2
Fore
SplineSet
473 496 m 0
 374 496 283 412 283 303 c 0
 283 190 384 121 485 121 c 0
 584 121 669 204 669 299 c 0
 669 415 576 496 473 496 c 0
1472 0 m 2
 1435 0 1403 31 1403 67 c 0
 1403 110 1429 135 1483 142 c 0
 1657 164 1802 337 1802 522 c 0
 1802 732 1654 889 1443 889 c 0
 1208 889 1141 672 1141 411 c 2
 1141 47 l 2
 1141 9 1109 -22 1071 -22 c 0
 1034 -22 1001 10 1001 47 c 2
 1000 412 l 2
 1000 685 903 888 647 888 c 0
 429 888 257 680 249 466 c 1
 283 570 382 635 489 635 c 0
 655 635 811 492 811 312 c 0
 811 130 673 -22 489 -22 c 0
 254 -22 100 187 100 409 c 0
 100 737 313 1028 637 1028 c 0
 837 1028 990 939 1070 795 c 1
 1143 928 1255 1027 1442 1027 c 0
 1715 1027 1942 820 1942 531 c 0
 1942 367 1881 239 1774 139 c 1
 2246 138 l 1
 2247 952 l 2
 2247 991 2281 1025 2317 1025 c 0
 2359 1025 2387 983 2387 952 c 2
 2386 67 l 2
 2386 29 2354 -3 2316 -3 c 2
 1472 0 l 2
EndSplineSet
EndChar

StartChar: p4
Encoding: 3373 3373 80
Width: 1335
GlyphClass: 2
Flags: MW
LayerCount: 2
Fore
SplineSet
1095 725 m 0
 1095 837 916 890 761 890 c 0
 478 890 240 709 240 431 c 0
 240 301 299 178 393 99 c 0
 410 85 419 68 419 47 c 0
 419 8 388 -25 350 -25 c 0
 332 -25 316 -19 303 -8 c 0
 176 99 100 236 100 434 c 0
 100 799 398 1028 767 1028 c 0
 994 1028 1235 945 1235 722 c 0
 1235 593 1124 512 1000 512 c 0
 910 512 821 556 728 556 c 0
 674 556 619 529 619 483 c 0
 619 416 701 398 772 398 c 0
 822 398 884 406 934 406 c 0
 1088 406 1230 344 1230 190 c 0
 1230 23 1069 -29 892 -29 c 0
 812 -29 706 -29 573 -15 c 0
 535 -11 509 16 509 63 c 0
 509 88 542 126 566 126 c 0
 626 123 759 112 877 112 c 0
 992 112 1091 128 1091 187 c 0
 1091 248 1021 267 942 267 c 0
 885 267 799 257 766 257 c 0
 611 257 478 335 478 480 c 0
 478 618 602 698 734 698 c 0
 824 698 921 654 1001 654 c 0
 1055 654 1095 675 1095 725 c 0
EndSplineSet
EndChar

StartChar: m1
Encoding: 3374 3374 81
Width: 1398
GlyphClass: 2
Flags: MW
LayerCount: 2
Fore
SplineSet
931 823 m 5
 951 774 961 724 961 672 c 4
 961 434 782 235 635 133 c 5
 1156 133 l 5
 1157 447 l 6
 1158 612 1055 750 931 823 c 5
638 882 m 4
 420 882 240 684 240 446 c 6
 240 133 l 5
 509 133 818 406 818 675 c 4
 818 800 747 882 638 882 c 4
170 -7 m 6
 132 -7 100 25 100 63 c 6
 100 449 l 6
 100 765 369 1023 677 1023 c 4
 1042 1023 1300 767 1298 411 c 6
 1296 63 l 6
 1296 25 1264 -7 1226 -7 c 6
 170 -7 l 6
EndSplineSet
EndChar

StartChar: y1
Encoding: 3375 3375 82
Width: 1915
GlyphClass: 2
Flags: MW
LayerCount: 2
Fore
SplineSet
786 680 m 0
 775 645 770 608 770 571 c 0
 770 401 880 248 994 179 c 1
 1126 253 1242 404 1242 606 c 0
 1242 748 1160 888 1026 888 c 0
 895 888 823 800 786 680 c 0
447 890 m 0
 310 890 241 775 241 633 c 0
 241 349 464 114 749 114 c 0
 778 114 807 117 836 122 c 1
 709 235 632 371 632 613 c 0
 632 729 566 890 447 890 c 0
440 1025 m 4
 557 1025 658 950 712 853 c 1
 779 955 879 1028 1025 1028 c 0
 1238 1028 1383 834 1383 615 c 0
 1383 400 1289 234 1153 120 c 1
 1181 115 1208 113 1234 113 c 0
 1483 113 1673 323 1673 563 c 0
 1673 705 1602 830 1521 901 c 0
 1505 915 1497 932 1497 952 c 0
 1497 991 1528 1024 1566 1024 c 0
 1585 1024 1601 1018 1614 1006 c 0
 1718 914 1815 753 1815 575 c 0
 1815 235 1569 -28 1227 -28 c 0
 1148 -28 1070 -11 992 23 c 1
 908 -12 824 -28 745 -28 c 0
 395 -28 100 274 100 636 c 0
 100 847 221 1025 440 1025 c 4
EndSplineSet
EndChar

StartChar: r3
Encoding: 3376 3376 83
Width: 1453
GlyphClass: 2
Flags: MW
LayerCount: 2
Fore
SplineSet
926 111 m 0
 1072 111 1194 232 1194 378 c 0
 1194 524 1072 645 926 645 c 0
 780 645 660 524 660 378 c 0
 660 232 780 111 926 111 c 0
459 50 m 0
 459 15 435 -20 390 -20 c 0
 377 -20 364 -17 353 -9 c 0
 218 76 100 239 100 444 c 0
 100 796 381 1026 725 1026 c 0
 1090 1026 1353 765 1353 437 c 0
 1353 193 1172 -26 916 -26 c 0
 683 -26 520 164 520 376 c 0
 520 576 690 785 918 785 c 0
 966 785 1016 775 1067 756 c 1
 973 841 863 884 732 884 c 0
 465 884 239 710 239 445 c 0
 239 293 327 172 427 109 c 0
 449 96 459 73 459 50 c 0
EndSplineSet
EndChar

StartChar: rh
Encoding: 3377 3377 84
Width: 1328
GlyphClass: 2
Flags: MW
LayerCount: 2
Fore
SplineSet
668 883 m 4
 436 883 240 709 240 479 c 0
 240 296 364 158 512 116 c 0
 539 108 563 80 563 46 c 0
 563 16 531 -22 503 -22 c 0
 468 -22 418 -3 352 34 c 0
 212 114 100 288 100 480 c 0
 100 783 348 1024 669 1024 c 4
 992 1024 1228 768 1228 485 c 0
 1228 228 1056 37 847 -19 c 0
 841 -21 831 -22 818 -22 c 0
 791 -22 758 14 758 41 c 0
 758 82 781 108 828 121 c 0
 971 158 1088 309 1088 481 c 0
 1088 704 893 883 668 883 c 4
EndSplineSet
EndChar

StartChar: l3
Encoding: 3378 3378 85
Width: 1647
GlyphClass: 2
Flags: MW
LayerCount: 2
Fore
SplineSet
590 883 m 4
 371 883 258 716 243 504 c 5
 941 505 l 5
 941 716 801 883 590 883 c 4
170 -1 m 6
 132 -1 100 31 100 69 c 6
 100 387 l 6
 100 742 238 1022 585 1022 c 4
 868 1022 1083 813 1083 530 c 4
 1083 462 1076 365 1002 365 c 6
 240 364 l 5
 240 139 l 5
 1407 140 l 5
 1405 954 l 5
 1405 969 l 6
 1405 995 1445 1025 1475 1025 c 4
 1513 1025 1545 993 1545 955 c 6
 1545 954 l 5
 1547 71 l 6
 1547 33 1519 2 1477 0 c 5
 170 -1 l 6
EndSplineSet
EndChar

StartChar: lh
Encoding: 3379 3379 86
Width: 1273
GlyphClass: 2
Flags: MW
LayerCount: 2
Fore
SplineSet
386 617 m 0
 318 617 254 572 254 492 c 0
 254 406 337 360 402 360 c 0
 464 360 523 420 523 484 c 0
 523 555 458 617 386 617 c 0
241 -85 m 0
 241 -147 291 -170 383 -170 c 2
 1092 -170 l 2
 1131 -170 1163 -201 1163 -240 c 0
 1163 -279 1131 -310 1092 -310 c 2
 384 -310 l 2
 214 -310 100 -235 100 -85 c 0
 100 78 230 144 398 144 c 2
 780 144 l 2
 928 144 1037 180 1037 289 c 0
 1037 399 948 414 824 421 c 0
 782 423 749 449 749 490 c 0
 749 529 781 561 820 561 c 0
 936 561 1006 580 1006 674 c 0
 1006 818 845 885 694 885 c 0
 530 885 371 866 293 712 c 1
 334 751 369 757 390 757 c 0
 542 757 661 634 661 484 c 0
 661 333 545 220 393 220 c 0
 218 220 102 382 102 546 c 0
 102 857 381 1025 687 1025 c 0
 916 1025 1144 909 1144 681 c 0
 1144 616 1097 526 1038 496 c 1
 1108 457 1173 379 1173 278 c 0
 1173 72 989 4 780 4 c 2
 397 4 l 2
 301 4 241 -15 241 -85 c 0
EndSplineSet
EndChar

StartChar: zh
Encoding: 3380 3380 87
Width: 1269
GlyphClass: 2
Flags: MW
LayerCount: 2
Fore
SplineSet
663 420 m 5
 596 484 500 581 500 714 c 4
 500 879 647 1026 825 1026 c 4
 1007 1026 1169 875 1169 684 c 4
 1169 508 1037 381 911 327 c 5
 923 298 934 257 934 220 c 4
 934 58 784 -52 605 -52 c 4
 485 -52 368 -3 283 80 c 4
 271 91 261 114 261 131 c 4
 261 170 292 201 331 201 c 4
 347 201 370 191 381 180 c 4
 441 121 526 90 608 90 c 4
 706 90 792 138 792 226 c 4
 792 251 784 271 775 289 c 5
 738 283 700 280 663 280 c 4
 411 280 100 414 100 722 c 4
 100 827 144 932 227 1004 c 4
 238 1014 258 1022 273 1022 c 4
 312 1022 343 991 343 952 c 4
 343 934 332 910 318 898 c 4
 268 854 243 789 243 723 c 4
 243 506 468 420 663 420 c 5
1028 684 m 4
 1028 801 934 883 825 883 c 4
 723 883 644 810 644 713 c 4
 644 591 763 527 833 448 c 5
 928 482 1028 558 1028 684 c 4
EndSplineSet
EndChar

StartChar: v1
Encoding: 3381 3381 88
Width: 1719
GlyphClass: 2
Flags: MW
LayerCount: 2
Fore
SplineSet
1479 962 m 2
 1479 996 1516 1024 1544 1024 c 0
 1579 1024 1619 997 1619 968 c 2
 1619 953 l 1
 1618 63 l 2
 1618 25 1586 -7 1548 -7 c 2
 826 -4 l 2
 788 -4 756 24 756 69 c 0
 756 96 781 123 802 131 c 0
 941 182 1050 314 1050 498 c 0
 1050 749 852 876 652 876 c 0
 448 876 241 745 241 499 c 0
 241 304 389 150 567 130 c 0
 601 126 630 95 630 58 c 0
 630 28 600 -10 573 -10 c 0
 304 -10 100 243 100 496 c 0
 100 799 352 1024 637 1024 c 0
 944 1024 1191 789 1191 483 c 0
 1191 351 1145 235 1053 135 c 1
 1478 134 l 1
 1479 953 l 1
 1479 962 l 2
EndSplineSet
EndChar

StartChar: z1
Encoding: 3382 3382 89
Width: 1909
GlyphClass: 2
Flags: MW
LayerCount: 2
Fore
SplineSet
1553 745 m 1
 1384 711 1235 566 1235 364 c 0
 1235 233 1309 118 1438 118 c 0
 1589 118 1671 275 1671 418 c 0
 1671 542 1618 667 1553 745 c 1
1810 406 m 0
 1810 182 1659 -24 1441 -24 c 0
 1237 -24 1093 151 1093 362 c 0
 1093 595 1248 775 1422 850 c 1
 1369 876 1313 890 1258 890 c 0
 1059 890 946 747 946 547 c 0
 946 490 948 427 948 404 c 0
 948 176 797 -23 558 -23 c 0
 282 -23 100 236 100 515 c 0
 100 770 250 944 416 1030 c 0
 426 1035 439 1038 455 1038 c 0
 487 1038 520 1005 520 973 c 0
 520 940 507 918 481 905 c 0
 348 837 241 706 241 513 c 0
 241 317 363 116 555 116 c 0
 750 116 808 263 808 473 c 0
 808 801 936 1029 1245 1029 c 0
 1584 1029 1810 737 1810 406 c 0
EndSplineSet
EndChar

StartChar: sh
Encoding: 3383 3383 90
Width: 1928
GlyphClass: 2
Flags: MW
LayerCount: 2
Fore
SplineSet
1688 635 m 1
 1605 529 1500 454 1373 409 c 1
 1371 138 l 1
 1688 138 l 1
 1688 635 l 1
1084 886 m 4
 986 886 901 815 901 721 c 0
 901 590 1027 512 1166 512 c 0
 1188 512 1210 513 1234 517 c 1
 1235 703 l 2
 1235 829 1194 886 1084 886 c 4
432 498 m 0
 326 498 240 410 240 308 c 0
 240 230 292 159 346 136 c 0
 381 121 398 101 398 76 c 0
 398 35 372 -2 335 -2 c 0
 320 -2 309 0 300 4 c 0
 194 49 100 161 100 304 c 0
 100 493 246 638 433 638 c 0
 616 638 763 483 763 307 c 0
 763 251 748 194 715 138 c 1
 1231 138 l 1
 1233 376 l 1
 1209 373 1187 372 1165 372 c 0
 949 372 760 510 760 718 c 0
 760 898 908 1027 1082 1027 c 4
 1278 1027 1375 892 1375 702 c 1
 1374 561 l 1
 1514 626 1653 766 1683 934 c 0
 1692 983 1705 1027 1751 1027 c 0
 1799 1027 1828 999 1828 957 c 2
 1828 68 l 2
 1828 30 1796 -2 1758 -2 c 2
 534 -2 l 2
 497 -2 465 27 465 68 c 0
 465 99 486 124 506 132 c 0
 567 158 622 223 622 306 c 0
 622 414 538 498 432 498 c 0
EndSplineSet
EndChar

StartChar: s1
Encoding: 3384 3384 91
Width: 2478
GlyphClass: 2
Flags: MW
LayerCount: 2
Fore
SplineSet
987 823 m 1
 1039 927 1138 1025 1280 1025 c 0
 1516 1025 1604 808 1604 571 c 0
 1604 540 1604 509 1604 480 c 0
 1604 269 1690 119 1890 119 c 0
 2104 119 2236 314 2236 498 c 0
 2236 724 2048 876 1856 885 c 0
 1819 886 1788 918 1788 955 c 0
 1788 994 1819 1025 1858 1025 c 0
 2126 1025 2378 797 2378 492 c 0
 2378 240 2185 -23 1886 -23 c 0
 1628 -23 1459 196 1459 468 c 0
 1459 522 1463 574 1463 622 c 0
 1463 751 1407 885 1280 885 c 0
 1097 885 1072 686 1072 500 c 1
 1069 42 l 1
 1068 41 l 1
 1067 3 1036 -28 998 -28 c 0
 960 -28 928 4 928 42 c 2
 928 512 l 2
 928 733 811 884 603 884 c 0
 382 884 241 695 241 506 c 0
 241 274 441 113 641 113 c 0
 663 113 685 119 707 119 c 0
 746 119 777 88 777 49 c 0
 777 -18 706 -27 638 -27 c 0
 364 -27 100 192 100 512 c 0
 100 772 302 1026 610 1026 c 0
 764 1026 909 952 987 823 c 1
EndSplineSet
EndChar

StartChar: h1
Encoding: 3385 3385 92
Width: 2151
GlyphClass: 2
Flags: MW
LayerCount: 2
Fore
SplineSet
1911 467 m 4
 1911 700 1761 880 1540 880 c 4
 1328 880 1166 716 1166 501 c 4
 1166 313 1299 169 1458 135 c 4
 1487 129 1513 99 1513 64 c 4
 1513 28 1480 -3 1443 -3 c 6
 574 0 l 6
 538 0 505 31 505 65 c 4
 505 99 519 122 546 134 c 4
 616 165 677 237 677 332 c 4
 677 458 583 550 459 550 c 4
 336 550 240 457 240 332 c 4
 240 233 310 154 384 128 c 4
 407 120 431 93 431 63 c 4
 431 20 399 -8 361 -8 c 4
 352 -8 344 -7 336 -4 c 4
 211 42 98 163 98 331 c 4
 98 530 255 695 455 695 c 4
 662 695 817 533 817 330 c 4
 817 262 798 199 759 139 c 5
 1174 138 l 5
 1077 237 1027 344 1027 510 c 4
 1027 799 1253 1020 1541 1020 c 4
 1827 1020 2051 781 2051 490 c 4
 2051 242 1906 81 1724 -2 c 4
 1715 -6 1704 -8 1689 -8 c 4
 1659 -8 1626 27 1626 58 c 4
 1626 91 1647 118 1671 127 c 4
 1792 177 1911 309 1911 467 c 4
EndSplineSet
EndChar

StartChar: avagraha
Encoding: 3389 3389 93
Width: 1438
GlyphClass: 2
Flags: MW
LayerCount: 2
Fore
SplineSet
198 -80 m 0
 198 -110 190 -130 190 -157 c 0
 190 -254 270 -325 363 -325 c 0
 533 -325 566 -163 591 1 c 2
 669 513 l 1
 444 513 l 2
 418 513 388 553 388 583 c 0
 388 613 417 653 444 653 c 2
 690 653 l 1
 736 960 l 1
 773 1200 863 1435 1115 1435 c 0
 1299 1435 1438 1300 1438 1117 c 0
 1438 1052 1425 1010 1360 1010 c 0
 1333 1010 1296 1043 1296 1068 c 0
 1296 1082 1300 1106 1300 1125 c 0
 1300 1217 1211 1296 1125 1296 c 0
 946 1296 901 1122 874 939 c 2
 831 653 l 1
 1050 653 l 2
 1076 653 1106 613 1106 583 c 0
 1106 553 1077 513 1050 513 c 2
 810 513 l 1
 730 -20 l 2
 693 -263 610 -467 360 -467 c 0
 189 -467 50 -324 50 -154 c 0
 50 -90 64 -20 132 -20 c 0
 162 -20 198 -51 198 -80 c 0
EndSplineSet
EndChar

StartChar: a2
Encoding: 3390 3390 94
Width: 1000
GlyphClass: 2
Flags: MW
LayerCount: 2
Fore
SplineSet
460 125 m 0
 646 125 761 311 761 502 c 0
 761 697 651 884 461 884 c 0
 350 884 259 775 249 670 c 0
 246 635 216 606 178 606 c 0
 148 606 109 636 109 663 c 0
 109 866 284 1024 474 1024 c 0
 742 1024 901 766 901 503 c 0
 901 229 722 -15 461 -15 c 0
 265 -15 100 140 100 340 c 0
 100 365 137 397 164 397 c 0
 209 397 238 368 240 331 c 0
 248 217 340 125 460 125 c 0
EndSplineSet
EndChar

StartChar: i1
Encoding: 3391 3391 95
Width: 342
GlyphClass: 2
Flags: HMWO
LayerCount: 2
Fore
SplineSet
-155 1412 m 4
 130 1412 240 1174 240 896 c 6
 242 46 l 6
 242 8 210 -24 172 -24 c 4
 134 -24 102 8 102 46 c 6
 100 895 l 6
 100 1104 43 1271 -159 1271 c 4
 -273 1271 -360 1196 -392 1109 c 4
 -401 1078 -430 1062 -466 1062 c 4
 -493 1062 -525 1097 -525 1124 c 4
 -525 1289 -323 1412 -155 1412 c 4
EndSplineSet
EndChar

StartChar: i2
Encoding: 3392 3392 96
Width: 398
GlyphClass: 2
Flags: MW
LayerCount: 2
Fore
SplineSet
-172 1292 m 0
 -223 1292 -277 1262 -277 1201 c 0
 -277 1156 -225 1119 -180 1119 c 0
 -132 1119 -88 1152 -88 1202 c 0
 -88 1255 -120 1292 -172 1292 c 0
7 1207 m 0
 7 1098 -96 1015 -193 1015 c 0
 -292 1015 -379 1103 -379 1200 c 0
 -379 1346 -247 1421 -101 1421 c 0
 164 1421 298 1273 298 1003 c 2
 295 49 l 2
 295 4 260 -19 225 -19 c 0
 190 -19 155 4 155 50 c 2
 158 1003 l 2
 158 1158 124 1239 -2 1273 c 1
 4 1251 7 1227 7 1207 c 0
EndSplineSet
EndChar

StartChar: u1
Encoding: 3393 3393 97
Width: 794
GlyphClass: 2
Flags: MW
LayerCount: 2
Fore
SplineSet
241 -253 m 4
 241 -339 309 -412 396 -412 c 4
 486 -412 554 -348 554 -255 c 4
 554 -166 473 -91 392 -91 c 4
 302 -91 241 -169 241 -253 c 4
399 -552 m 4
 227 -552 101 -413 101 -256 c 4
 101 -137 175 -38 262 8 c 5
 334 141 464 389 464 577 c 4
 464 742 379 863 251 888 c 4
 220 894 194 923 194 959 c 4
 194 989 225 1026 253 1026 c 4
 462 1026 603 798 603 587 c 4
 603 441 547 260 436 38 c 5
 577 19 694 -97 694 -257 c 4
 694 -425 564 -552 399 -552 c 4
EndSplineSet
EndChar

StartChar: u2
Encoding: 3394 3394 98
Width: 974
GlyphClass: 2
Flags: MW
LayerCount: 2
Fore
SplineSet
597 -294 m 4
 597 -192 514 -114 419 -114 c 4
 325 -114 239 -206 239 -299 c 4
 239 -395 330 -467 419 -467 c 4
 513 -467 597 -392 597 -294 c 4
415 -606 m 4
 235 -606 102 -460 102 -288 c 4
 102 -171 167 -67 259 -13 c 5
 325 136 464 395 464 552 c 4
 464 715 399 858 267 883 c 4
 218 893 193 917 193 955 c 4
 193 988 223 1025 253 1025 c 4
 477 1025 604 787 604 552 c 4
 604 417 517 215 447 62 c 5
 469 65 491 67 513 67 c 4
 770 67 974 -155 974 -416 c 4
 974 -694 757 -922 464 -922 c 4
 357 -922 261 -891 174 -829 c 4
 154 -815 145 -793 145 -772 c 4
 145 -736 170 -701 210 -701 c 4
 227 -701 249 -710 275 -729 c 4
 314 -757 396 -781 474 -781 c 4
 679 -781 834 -624 834 -414 c 4
 834 -289 766 -191 697 -138 c 5
 724 -188 737 -238 737 -289 c 4
 737 -470 592 -606 415 -606 c 4
EndSplineSet
EndChar

StartChar: r1
Encoding: 3395 3395 99
Width: 392
GlyphClass: 2
Flags: MW
LayerCount: 2
Fore
SplineSet
-550 -308 m 4
 -550 -397 -450 -433 -367 -433 c 4
 -254 -433 -135 -374 -64 -313 c 5
 -173 -246 -281 -212 -396 -212 c 4
 -468 -212 -550 -237 -550 -308 c 4
25 -216 m 5
 121 -85 163 76 163 288 c 4
 163 497 113 702 12 904 c 4
 6 916 3 927 3 937 c 4
 3 975 41 999 76 999 c 4
 99 999 116 987 128 962 c 4
 238 743 293 519 293 290 c 4
 293 -155 76 -562 -366 -562 c 4
 -530 -562 -682 -473 -682 -312 c 4
 -682 -161 -543 -82 -395 -82 c 4
 -227 -82 -88 -141 25 -216 c 5
EndSplineSet
EndChar

StartChar: e1
Encoding: 3398 3398 100
Width: 1395
GlyphClass: 2
Flags: MW
LayerCount: 2
Fore
SplineSet
100 432 m 0
 100 782 388 1023 697 1023 c 0
 1007 1023 1295 779 1295 425 c 0
 1295 268 1235 112 1120 0 c 0
 1109 -11 1086 -21 1070 -21 c 0
 1031 -21 1000 10 1000 49 c 0
 1000 66 1010 89 1022 100 c 0
 1109 185 1154 305 1154 425 c 0
 1154 702 928 883 691 883 c 0
 522 883 367 781 291 637 c 1
 345 671 417 695 485 695 c 0
 668 695 847 546 847 336 c 0
 847 151 695 -17 496 -17 c 0
 249 -17 100 217 100 432 c 0
706 339 m 0
 706 466 598 552 485 552 c 0
 354 552 263 443 263 327 c 0
 263 216 384 124 492 124 c 0
 617 124 706 219 706 339 c 0
EndSplineSet
EndChar

StartChar: e2
Encoding: 3399 3399 101
Width: 1022
GlyphClass: 2
Flags: MW
LayerCount: 2
Fore
SplineSet
578 1026 m 0
 751 1026 908 925 908 751 c 0
 908 631 810 535 686 535 c 0
 560 535 465 635 465 759 c 0
 465 815 481 860 513 895 c 1
 366 852 242 671 242 513 c 0
 242 322 376 170 523 108 c 1
 486 162 470 213 470 259 c 0
 470 356 566 469 691 469 c 0
 825 469 922 362 922 236 c 0
 922 79 783 -22 624 -22 c 0
 331 -22 100 230 100 526 c 0
 100 793 310 1026 578 1026 c 0
696 127 m 0
 755 127 803 176 803 234 c 0
 803 292 755 341 696 341 c 0
 637 341 589 292 589 234 c 0
 589 176 637 127 696 127 c 0
687 654 m 0
 748 654 797 704 797 764 c 0
 797 824 748 875 687 875 c 0
 626 875 576 824 576 764 c 0
 576 704 626 654 687 654 c 0
EndSplineSet
EndChar

StartChar: xx
Encoding: 3405 3405 106
Width: 142
GlyphClass: 4
Flags: MW
LayerCount: 2
Fore
SplineSet
191 1295 m 0
 191 1320 184 1336 184 1365 c 0
 184 1394 221 1425 252 1425 c 0
 313 1425 332 1367 332 1304 c 0
 332 1115 193 974 7 974 c 0
 -180 974 -311 1129 -311 1295 c 0
 -311 1360 -298 1429 -230 1429 c 0
 -200 1429 -163 1396 -163 1368 c 0
 -163 1341 -170 1321 -170 1294 c 0
 -170 1191 -86 1115 7 1115 c 0
 111 1115 191 1200 191 1295 c 0
EndSplineSet
EndChar

StartChar: dotreph
Encoding: 3406 3406 107
Width: 0
GlyphClass: 4
Flags: MW
LayerCount: 2
Fore
SplineSet
147 1121 m 0
 66 1121 0 1185 0 1262 c 0
 0 1339 66 1402 147 1402 c 0
 228 1402 298 1339 298 1262 c 0
 298 1185 228 1121 147 1121 c 0
EndSplineSet
EndChar

StartChar: au2
Encoding: 3415 3415 108
Width: 1556
GlyphClass: 2
Flags: MW
LayerCount: 2
Fore
SplineSet
675 645 m 0
 673 772 589 883 456 883 c 0
 332 883 240 774 240 651 c 0
 240 616 249 583 267 549 c 0
 273 538 276 526 276 515 c 0
 276 478 247 444 208 444 c 0
 177 444 155 461 144 483 c 0
 114 538 100 594 100 651 c 0
 100 852 251 1024 456 1024 c 0
 593 1024 711 947 750 847 c 1
 797 945 918 1022 1060 1022 c 0
 1285 1022 1456 801 1456 572 c 0
 1456 204 1113 -26 744 -26 c 0
 631 -26 517 -3 415 43 c 0
 393 52 372 77 372 107 c 0
 372 146 403 178 442 178 c 0
 452 178 462 176 472 171 c 0
 555 134 651 115 746 115 c 0
 1036 115 1316 288 1316 574 c 0
 1316 732 1209 879 1054 879 c 0
 893 879 817 753 814 581 c 1
 808 548 776 526 744 526 c 0
 704 526 675 561 675 599 c 0
 675 611 675 625 675 645 c 0
EndSplineSet
EndChar

StartChar: datemark
Encoding: 3449 3449 109
Width: 2321
GlyphClass: 2
Flags: MW
LayerCount: 2
Fore
SplineSet
1815 514 m 1
 1712 516 1639 514 1598 508 c 0
 1468 489 1396 435 1382 346 c 0
 1372 281 1394 226 1448 182 c 0
 1502 138 1567 128 1640 154 c 0
 1759 195 1844 341 1815 514 c 1
984 -6 m 0
 952 -6 922 29 922 63 c 2
 924 433 l 2
 925 573 917 647 861 729 c 0
 783 843 626 895 468 832 c 0
 369 792 295 716 260 613 c 0
 200 435 288 274 396 199 c 0
 469 149 581 118 695 148 c 0
 739 163 784 123 784 87 c 0
 784 46 766 21 731 12 c 0
 475 -56 265 81 170 241 c 0
 101 357 75 506 126 658 c 0
 174 800 277 902 410 960 c 0
 478 989 548 1002 623 998 c 0
 795 989 920 914 999 772 c 1
 999 773 999 773 1000 774 c 0
 1061 883 1166 953 1313 986 c 0
 1497 1027 1665 954 1769 867 c 0
 1836 811 1887 740 1922 653 c 1
 2152 649 l 2
 2188 649 2222 618 2222 584 c 0
 2222 538 2192 509 2152 509 c 0
 2151 509 2151 509 2150 509 c 2
 1957 512 l 1
 1986 261 1849 79 1685 22 c 0
 1487 -47 1317 65 1262 207 c 0
 1218 320 1247 440 1308 513 c 0
 1404 625 1549 659 1765 655 c 1
 1708 754 1624 817 1511 844 c 0
 1449 859 1392 861 1340 849 c 0
 1189 815 1101 725 1075 579 c 0
 1069 546 1066 498 1065 433 c 2
 1062 63 l 1
 1062 62 l 1
 1061 21 1033 -6 984 -6 c 0
EndSplineSet
EndChar

StartChar: ZWNJ
Encoding: 8204 8204 110
Width: 321
GlyphClass: 2
Flags: MW
LayerCount: 2
Fore
SplineSet
66 992 m 1
 225 992 l 1
 225 3 l 1
 66 3 l 1
 66 992 l 1
EndSplineSet
EndChar

StartChar: ZWJ
Encoding: 8205 8205 111
Width: 321
GlyphClass: 2
Flags: MW
LayerCount: 2
Fore
SplineSet
70 879 m 1
 224 879 l 1
 224 4 l 1
 70 4 l 1
 70 879 l 1
148 1003 m 1
 14 795 l 1
 -90 795 l 1
 96 1067 l 1
 -76 1315 l 1
 33 1315 l 1
 111 1194 l 2
 117 1185 128 1165 145 1135 c 1
 270 1315 l 1
 377 1315 l 1
 199 1071 l 1
 387 795 l 1
 283 795 l 1
 148 1003 l 1
EndSplineSet
EndChar

StartChar: rupee
Encoding: 8377 8377 112
Width: 1165
GlyphClass: 2
Flags: MW
LayerCount: 2
Fore
SplineSet
784 817 m 5
 735 638 597 502 440 433 c 5
 979 110 l 6
 998 99 1014 71 1014 49 c 4
 1014 10 983 -21 944 -21 c 4
 933 -21 917 -17 908 -11 c 6
 232 394 l 6
 213 405 198 432 198 454 c 4
 198 487 224 519 257 524 c 4
 422 549 576 664 636 817 c 5
 178 819 l 6
 178 819 l 4
 139 819 108 850 108 889 c 4
 108 928 139 959 178 959 c 4
 179 959 l 6
 660 957 l 5
 652 1078 569 1175 455 1189 c 4
 453 1189 449 1189 447 1190 c 6
 171 1191 l 6
 170 1191 l 4
 131 1191 100 1222 100 1261 c 4
 100 1300 131 1331 170 1331 c 4
 171 1331 l 6
 987 1328 l 6
 988 1328 l 4
 1027 1328 1058 1297 1058 1258 c 4
 1058 1219 1027 1188 988 1188 c 4
 987 1188 l 6
 718 1189 l 5
 771 1122 797 1040 800 957 c 5
 995 956 l 6
 996 956 l 4
 1035 956 1066 925 1066 886 c 4
 1066 847 1035 816 996 816 c 4
 994 816 l 6
 784 817 l 5
EndSplineSet
EndChar

StartChar: uni25CC
Encoding: 9676 9676 113
Width: 1131
GlyphClass: 2
Flags: MW
LayerCount: 2
Fore
SplineSet
212 325 m 5
 278 224 259 248 348 192 c 5
 270 91 l 5
 162 160 161 168 104 250 c 5
 212 325 l 5
686 18 m 5
 655 9 617 4 571 4 c 4
 525 4 485 9 450 18 c 5
 470 138 l 5
 513 131 546 128 568 128 c 4
 590 128 623 131 666 138 c 5
 686 18 l 5
170 426 m 5
 42 405 l 5
 34 442 30 480 30 517 c 4
 30 554 34 592 42 630 c 5
 170 609 l 5
 162 587 158 557 158 518 c 4
 158 479 162 448 170 426 c 5
348 843 m 5
 252 790 256 777 212 710 c 5
 104 784 l 5
 177 890 163 875 270 944 c 5
 348 843 l 5
1038 250 m 5
 955 137 987 162 868 91 c 5
 794 192 l 5
 867 236 907 272 930 325 c 5
 1038 250 l 5
1098 630 m 5
 1107 592 1112 555 1112 518 c 4
 1112 481 1107 443 1098 405 c 5
 972 426 l 5
 978 466 981 495 981 514 c 4
 981 533 978 565 972 609 c 5
 1098 630 l 5
686 1017 m 5
 666 897 l 5
 623 904 591 907 568 907 c 4
 545 907 513 904 470 897 c 5
 450 1017 l 5
 497 1028 537 1033 570 1033 c 4
 603 1033 641 1028 686 1017 c 5
930 710 m 5
 887 781 842 826 794 843 c 5
 868 944 l 5
 955 887 995 854 1038 784 c 5
 930 710 l 5
EndSplineSet
EndChar

StartChar: r4
Encoding: 1114115 -1 114
Width: 615
GlyphClass: 2
LigCaretCntFixed: 1
Flags: MW
LayerCount: 2
Fore
SplineSet
453 -166 m 0
 504 -168 540 -236 495 -278 c 0
 482 -290 466 -297 448 -296 c 0
 290 -290 186 -228 135 -110 c 0
 94 -15 89 135 118 342 c 0
 129 424 221 895 234 966 c 0
 241 1002 270 1033 312 1025 c 0
 346 1019 370 985 362 942 c 0
 301 635 262 429 247 324 c 0
 222 141 224 14 254 -56 c 0
 284 -126 350 -163 453 -166 c 0
EndSplineSet
LCarets2: 1 0
EndChar

StartChar: y2
Encoding: 1114116 -1 115
Width: 598
GlyphClass: 2
LigCaretCntFixed: 1
Flags: MW
LayerCount: 2
Fore
SplineSet
232 -446 m 0
 361 -446 458 -342 458 -215 c 0
 458 120 89 362 89 731 c 0
 89 812 101 894 125 975 c 0
 133 1005 163 1025 194 1025 c 0
 226 1025 262 996 262 965 c 0
 262 952 261 942 259 935 c 0
 240 862 230 791 230 722 c 0
 230 330 600 134 600 -213 c 0
 600 -414 443 -588 235 -588 c 0
 46 -588 -110 -444 -110 -253 c 0
 -110 -117 -43 -24 50 33 c 0
 62 41 76 44 88 44 c 0
 126 44 158 12 158 -31 c 0
 158 -54 147 -72 125 -85 c 0
 72 -117 30 -181 30 -252 c 0
 30 -361 120 -446 232 -446 c 0
EndSplineSet
LCarets2: 1 3
EndChar

StartChar: v2
Encoding: 1114119 -1 118
Width: 437
GlyphClass: 3
LigCaretCntFixed: 1
Flags: MW
LayerCount: 2
Fore
SplineSet
-303 -246 m 0
 -303 -211 -277 -170 -247 -170 c 0
 -25 -170 -24 -170 198 -170 c 1
 194 954 l 1
 194 969 l 2
 194 995 234 1025 264 1025 c 0
 302 1025 334 993 334 955 c 2
 334 954 l 1
 338 -240 l 2
 338 -277 311 -310 268 -310 c 0
 13 -310 13 -310 -242 -310 c 0
 -275 -310 -303 -273 -303 -246 c 0
EndSplineSet
LCarets2: 1 0
EndChar

StartChar: k1cil
Encoding: 3455 3455 119
Width: 1964
GlyphClass: 3
Flags: MW
LayerCount: 2
Fore
SplineSet
240 291 m 0
 240 202 315 125 401 125 c 0
 507 125 586 198 586 299 c 0
 586 303 586 308 586 312 c 0
 570 370 562 431 562 495 c 0
 562 500 562 505 562 510 c 1
 387 503 240 435 240 291 c 0
1570 116 m 0
 1645 116 1726 186 1726 282 c 0
 1726 425 1596 501 1443 512 c 1
 1443 511 1443 510 1442 508 c 0
 1418 442 1407 384 1407 332 c 0
 1407 227 1471 116 1570 116 c 0
1277 514 m 1
 702 512 l 1
 702 506 702 500 702 494 c 0
 702 303 799 117 989 117 c 0
 1177 117 1277 307 1277 495 c 0
 1277 501 1277 508 1277 514 c 1
1255 654 m 1
 1217 776 1119 887 990 887 c 0
 859 887 760 775 723 652 c 1
 1255 654 l 1
1334 1352 m 0
 1334 1393 1365 1425 1395 1425 c 0
 1420 1425 1439 1419 1453 1406 c 0
 1555 1312 1605 1196 1605 1057 c 0
 1605 926 1538 759 1498 647 c 5
 1685 626 1864 495 1864 284 c 0
 1864 129 1743 -24 1580 -24 c 0
 1447 -24 1362 49 1310 147 c 1
 1245 61 1134 -21 989 -21 c 0
 849 -21 742 56 679 133 c 1
 629 52 538 -15 415 -15 c 0
 249 -15 100 116 100 279 c 0
 100 538 312 645 578 651 c 1
 624 855 784 1027 989 1027 c 0
 1192 1027 1320 883 1378 728 c 1
 1421 830 1465 940 1465 1052 c 0
 1465 1154 1429 1237 1358 1303 c 0
 1342 1317 1334 1334 1334 1352 c 0
EndSplineSet
LCarets2: 2 0 0
EndChar

StartChar: nhcil
Encoding: 3450 3450 120
Width: 2759
GlyphClass: 2
Flags: MW
LayerCount: 2
Fore
SplineSet
488 119 m 0
 587 119 665 191 665 289 c 0
 665 383 583 465 490 465 c 0
 397 465 316 384 316 288 c 0
 316 192 398 119 488 119 c 0
2308 825 m 5
 2253 665 2112 537 2112 338 c 4
 2112 220 2197 109 2303 109 c 4
 2448 109 2519 259 2519 404 c 4
 2519 597 2435 746 2308 825 c 5
1412 1024 m 0
 1582 1024 1678 917 1735 800 c 1
 1810 933 1942 1023 2127 1023 c 4
 2150 1023 2173 1021 2196 1017 c 5
 2196 1017 2197 1017 2197 1016 c 5
 2189 1105 2153 1177 2089 1233 c 4
 2072 1247 2064 1265 2064 1285 c 4
 2064 1316 2093 1357 2120 1357 c 6
 2121 1357 l 6
 2152 1357 2159 1357 2180 1339 c 4
 2265 1266 2338 1144 2338 997 c 4
 2338 988 2338 980 2337 971 c 5
 2522 879 2659 670 2659 406 c 4
 2659 186 2533 -30 2310 -30 c 4
 2118 -30 1972 134 1972 340 c 4
 1972 526 2113 690 2166 846 c 4
 2171 861 2174 871 2174 875 c 4
 2174 881 2131 880 2125 880 c 4
 1871 880 1802 691 1802 422 c 1
 1804 44 l 2
 1804 6 1772 -26 1734 -26 c 0
 1695 -26 1665 6 1664 44 c 2
 1661 418 l 2
 1659 681 1618 882 1415 882 c 0
 1197 882 1130 667 1130 434 c 2
 1130 414 l 1
 1132 44 l 2
 1132 6 1100 -26 1062 -26 c 0
 1023 -26 993 6 992 44 c 2
 989 412 l 2
 987 684 902 885 640 885 c 0
 396 885 257 681 241 478 c 1
 294 547 386 603 489 603 c 0
 665 603 806 457 806 292 c 0
 806 119 668 -22 490 -22 c 0
 251 -22 100 191 100 443 c 0
 100 755 314 1024 639 1024 c 0
 832 1024 974 931 1052 796 c 1
 1053 800 l 1
 1107 914 1253 1024 1412 1024 c 0
EndSplineSet
LCarets2: 2 0 0
EndChar

StartChar: n1cil
Encoding: 3451 3451 121
Width: 2051
GlyphClass: 2
Flags: MW
LayerCount: 2
Fore
SplineSet
1367 354 m 0
 1367 224 1461 118 1579 118 c 0
 1726 118 1812 277 1812 433 c 0
 1812 613 1723 757 1594 830 c 1
 1532 690 1367 523 1367 354 c 0
916 508 m 1
 916 526 l 2
 916 720 786 881 588 881 c 0
 381 881 241 709 241 510 c 0
 241 290 418 122 635 122 c 0
 661 122 678 126 706 126 c 0
 733 126 765 88 765 58 c 0
 765 -11 695 -19 627 -19 c 0
 334 -19 100 223 100 515 c 0
 100 796 309 1018 590 1018 c 0
 780 1018 918 914 992 788 c 1
 1069 912 1219 1021 1407 1021 c 0
 1437 1021 1467 1018 1499 1012 c 1
 1499 1018 1499 1023 1499 1028 c 0
 1499 1139 1438 1226 1362 1271 c 0
 1339 1284 1327 1303 1327 1326 c 0
 1327 1366 1355 1402 1392 1402 c 0
 1408 1402 1423 1398 1434 1391 c 0
 1540 1327 1640 1195 1640 1034 c 0
 1640 1013 1639 992 1635 970 c 1
 1635 967 l 1
 1816 878 1952 694 1952 431 c 0
 1952 197 1815 -21 1576 -21 c 0
 1371 -21 1228 153 1228 354 c 0
 1228 586 1384 716 1460 877 c 1
 1442 880 1424 881 1406 881 c 0
 1182 881 1057 698 1057 507 c 2
 1058 47 l 2
 1058 9 1026 -22 988 -22 c 0
 950 -22 918 8 918 46 c 2
 916 508 l 1
EndSplineSet
LCarets2: 2 0 0
EndChar

StartChar: l3cil
Encoding: 3453 3453 122
Width: 2092
GlyphClass: 3
Flags: MW
LayerCount: 2
Fore
SplineSet
1469 352 m 4
 1469 234 1542 116 1660 116 c 4
 1785 116 1852 243 1852 367 c 4
 1852 551 1760 681 1631 777 c 5
 1590 685 1469 492 1469 352 c 4
915 797 m 5
 776 706 679 566 679 380 c 4
 679 252 760 113 894 113 c 4
 1031 113 1114 252 1114 389 c 4
 1114 572 1038 709 915 797 c 5
541 388 m 4
 541 601 650 762 772 865 c 5
 729 877 688 882 649 882 c 4
 417 882 240 698 240 465 c 4
 240 301 338 170 449 107 c 4
 473 94 485 75 485 52 c 4
 485 12 457 -24 420 -24 c 4
 404 -24 390 -21 379 -15 c 4
 230 71 100 243 100 463 c 4
 100 783 358 1023 656 1023 c 4
 740 1023 829 1003 917 959 c 5
 1021 1009 1139 1036 1259 1036 c 4
 1358 1036 1458 1018 1551 980 c 5
 1554 1000 1556 1019 1556 1037 c 4
 1556 1145 1482 1248 1383 1266 c 4
 1337 1275 1314 1301 1314 1345 c 4
 1314 1346 1314 1346 1314 1347 c 4
 1314 1372 1348 1408 1373 1408 c 4
 1385 1408 1393 1408 1398 1407 c 4
 1563 1376 1696 1236 1696 1038 c 4
 1696 999 1691 958 1680 914 c 5
 1845 806 1992 621 1992 367 c 4
 1992 164 1867 -24 1660 -24 c 4
 1460 -24 1329 152 1329 351 c 4
 1329 534 1448 707 1509 846 c 5
 1426 881 1343 898 1259 898 c 4
 1191 898 1123 887 1054 864 c 5
 1180 747 1254 597 1254 400 c 4
 1254 178 1121 -26 895 -26 c 4
 674 -26 541 173 541 388 c 4
EndSplineSet
LCarets2: 2 0 0
EndChar

StartChar: lhcil
Encoding: 3454 3454 123
Width: 1931
GlyphClass: 3
Flags: MW
LayerCount: 2
Fore
SplineSet
1447 114 m 0
 1589 114 1690 258 1690 418 c 0
 1690 599 1576 773 1412 847 c 1
 1337 669 1216 533 1216 383 c 0
 1216 246 1308 114 1447 114 c 0
550 -25 m 0
 297 -25 100 194 100 475 c 0
 100 701 234 920 443 1018 c 0
 451 1022 464 1025 473 1025 c 0
 512 1025 543 994 543 955 c 0
 543 930 525 901 502 891 c 0
 345 818 241 643 241 470 c 0
 241 273 380 115 553 115 c 0
 709 115 790 235 790 388 c 0
 790 428 788 471 788 516 c 0
 788 810 964 1026 1242 1026 c 0
 1265 1026 1288 1025 1310 1022 c 1
 1310 1038 l 2
 1310 1127 1278 1225 1219 1290 c 0
 1209 1301 1200 1323 1200 1338 c 0
 1200 1377 1231 1408 1270 1408 c 0
 1289 1408 1311 1397 1323 1384 c 0
 1407 1292 1451 1162 1451 1040 c 0
 1451 1021 1450 1003 1448 984 c 1
 1678 893 1831 667 1831 423 c 0
 1831 384 1827 346 1819 307 c 0
 1788 131 1640 -26 1449 -26 c 0
 1216 -26 1076 173 1076 387 c 0
 1076 596 1214 741 1276 884 c 1
 1266 885 1256 885 1246 885 c 0
 1012 885 931 720 931 473 c 2
 931 450 l 2
 931 182 831 -25 550 -25 c 0
EndSplineSet
LCarets2: 2 0 0
EndChar

StartChar: r3cil
Encoding: 3452 3452 124
Width: 1405
GlyphClass: 3
Flags: MW
LayerCount: 2
Fore
SplineSet
909 121 m 0
 1069 121 1165 285 1165 433 c 0
 1165 621 1030 770 901 831 c 1
 834 704 661 553 661 378 c 0
 661 230 761 121 909 121 c 0
951 963 m 1
 1128 884 1306 688 1306 434 c 0
 1306 193 1154 -18 901 -18 c 0
 681 -18 521 166 521 372 c 0
 521 573 679 730 763 873 c 1
 735 877 707 879 681 879 c 0
 428 879 239 681 239 459 c 0
 239 300 341 171 455 114 c 0
 482 101 495 79 495 46 c 0
 495 15 462 -19 431 -19 c 0
 416 -19 403 -16 393 -11 c 0
 236 66 100 237 100 457 c 0
 100 788 375 1020 705 1020 c 0
 749 1020 787 1009 815 1009 c 4
 816 1009 817 1009 817 1009 c 1
 820 1025 822 1041 822 1056 c 0
 822 1156 760 1238 695 1278 c 0
 672 1291 661 1309 661 1332 c 0
 661 1372 689 1408 726 1408 c 0
 742 1408 757 1404 769 1397 c 0
 870 1334 961 1210 961 1053 c 0
 961 1024 958 994 951 963 c 1
EndSplineSet
LCarets2: 2 0 0
EndChar

StartChar: k1u1
Encoding: 1114120 -1 125
Width: 1925
GlyphClass: 3
LigCaretCntFixed: 1
Flags: MW
LayerCount: 2
Fore
SplineSet
584 300 m 6
 584 315 l 5
 567 372 557 432 557 495 c 4
 557 497 558 500 558 502 c 5
 399 490 241 432 241 283 c 4
 241 195 317 128 403 128 c 4
 505 128 584 201 584 300 c 6
697 497 m 4
 697 303 811 129 989 129 c 4
 1178 129 1287 308 1287 495 c 4
 1287 500 1287 505 1287 510 c 5
 900 508 704 507 698 507 c 5
 698 504 697 500 697 497 c 4
720 647 m 5
 1242 650 l 5
 1264 650 l 5
 1225 768 1135 878 991 878 c 4
 847 878 758 766 720 647 c 5
1590 97 m 4
 1638 97 1685 118 1685 162 c 4
 1685 200 1649 218 1579 218 c 4
 1508 218 1473 241 1473 286 c 4
 1473 328 1495 350 1537 351 c 6
 1591 352 l 6
 1652 353 1683 375 1683 416 c 4
 1683 485 1604 515 1450 515 c 6
 1427 515 l 5
 1427 509 1427 503 1427 497 c 4
 1427 233 1260 -13 991 -13 c 4
 870 -13 758 46 679 139 c 5
 626 50 535 -15 404 -15 c 4
 243 -15 100 119 100 278 c 4
 100 528 331 631 574 644 c 5
 622 849 785 1017 993 1017 c 4
 1194 1017 1359 852 1408 655 c 5
 1423 655 1438 656 1453 656 c 4
 1647 656 1823 590 1823 415 c 4
 1823 368 1804 322 1757 288 c 5
 1800 260 1821 220 1821 168 c 4
 1821 31 1713 -32 1573 -32 c 4
 1503 -32 1418 -14 1418 46 c 4
 1418 89 1448 116 1487 116 c 4
 1518 116 1555 97 1590 97 c 4
EndSplineSet
LCarets2: 1 0
EndChar

StartChar: k1u2
Encoding: 1114121 -1 126
Width: 1933
GlyphClass: 3
LigCaretCntFixed: 1
Flags: MW
LayerCount: 2
Fore
SplineSet
381 147 m 4
 388 147 398 144 406 144 c 4
 495 144 576 225 576 313 c 4
 576 317 575 323 575 327 c 5
 557 383 547 442 547 503 c 4
 547 506 547 509 547 512 c 5
 544 512 l 5
 407 508 241 439 241 302 c 4
 241 222 310 152 381 147 c 4
980 149 m 4
 1166 149 1265 330 1265 516 c 5
 689 516 l 5
 689 329 786 149 980 149 c 4
977 880 m 6
 973 880 l 5
 834 876 751 773 713 656 c 5
 1242 659 l 5
 1208 764 1107 880 977 880 c 6
1820 100 m 4
 1820 -65 1681 -167 1523 -169 c 6
 430 -180 l 6
 349 -181 248 -223 248 -298 c 4
 248 -362 327 -406 393 -405 c 4
 854 -400 1315 -394 1777 -389 c 4
 1804 -389 1833 -429 1833 -459 c 4
 1833 -497 1802 -528 1764 -529 c 6
 384 -544 l 6
 247 -545 105 -446 105 -297 c 4
 105 -133 273 -42 450 -40 c 6
 1453 -30 l 6
 1612 -29 1692 19 1692 119 c 4
 1692 187 1649 223 1564 229 c 4
 1496 230 1463 254 1463 304 c 4
 1463 347 1497 369 1562 371 c 4
 1628 373 1662 400 1662 453 c 4
 1662 501 1625 525 1552 525 c 6
 1405 524 l 5
 1405 255 1250 6 981 6 c 4
 863 6 756 67 671 152 c 4
 670 153 670 153 670 154 c 5
 619 69 528 6 401 6 c 4
 236 6 99 137 99 293 c 4
 99 520 327 652 550 652 c 4
 560 652 565 652 565 653 c 4
 616 849 747 1019 976 1019 c 4
 1191 1019 1345 844 1385 666 c 5
 1399 667 1413 667 1426 667 c 4
 1620 667 1792 605 1792 441 c 4
 1792 381 1764 322 1734 294 c 5
 1778 252 1820 181 1820 100 c 4
EndSplineSet
LCarets2: 1 0
EndChar

StartChar: k1r1
Encoding: 1114122 -1 127
Width: 1920
GlyphClass: 3
LigCaretCntFixed: 1
Flags: MW
LayerCount: 2
Fore
SplineSet
976 -230 m 0
 974 -230 971 -230 969 -230 c 0
 868 -230 777 -254 777 -330 c 0
 777 -408 866 -424 977 -424 c 0
 1089 -424 1175 -409 1175 -333 c 0
 1175 -255 1080 -231 976 -230 c 0
586 297 m 2
 586 312 l 1
 568 369 559 429 559 492 c 0
 559 495 559 499 559 502 c 1
 399 490 241 431 241 280 c 0
 241 191 317 124 404 124 c 0
 507 124 586 197 586 297 c 2
1293 506 m 1
 699 506 l 1
 699 503 699 499 699 496 c 0
 699 307 806 123 995 123 c 0
 1186 123 1293 308 1293 496 c 0
 1293 499 1293 503 1293 506 c 1
1271 646 m 1
 1232 768 1130 878 998 878 c 0
 997 878 995 878 994 878 c 0
 862 876 762 769 722 646 c 1
 1271 646 l 1
681 136 m 1
 627 46 537 -19 404 -19 c 0
 244 -19 99 114 99 274 c 0
 99 525 332 631 576 643 c 1
 623 840 769 1020 997 1020 c 0
 1224 1020 1372 840 1417 642 c 1
 1636 619 1820 428 1820 187 c 0
 1820 -230 1433 -564 1004 -564 c 0
 999 -564 995 -564 990 -564 c 0
 785 -560 636 -500 636 -328 c 0
 636 -160 797 -89 972 -89 c 0
 974 -89 975 -89 977 -89 c 0
 1163 -90 1316 -164 1316 -338 c 0
 1316 -340 1316 -342 1316 -344 c 1
 1488 -257 1679 -71 1679 176 c 0
 1679 337 1578 473 1433 499 c 1
 1433 498 1433 497 1433 496 c 0
 1433 229 1266 -17 995 -17 c 0
 873 -17 759 43 681 136 c 1
EndSplineSet
LCarets2: 1 0
EndChar

StartChar: k1k1
Encoding: 1114124 -1 129
Width: 2528
GlyphClass: 3
LigCaretCntFixed: 1
Flags: MW
LayerCount: 2
Fore
SplineSet
1890 1023 m 0
 2165 1023 2429 806 2429 486 c 0
 2429 259 2283 50 2066 -25 c 0
 2060 -27 2049 -29 2042 -29 c 0
 2003 -29 1972 2 1972 41 c 0
 1972 102 2044 114 2086 137 c 0
 2211 204 2287 349 2287 491 c 0
 2287 726 2086 882 1885 882 c 0
 1690 882 1558 754 1489 608 c 1
 1697 590 1929 493 1929 258 c 0
 1929 110 1813 -26 1641 -26 c 0
 1504 -26 1398 70 1346 169 c 1
 1280 74 1159 -20 1003 -20 c 0
 881 -20 762 38 684 133 c 1
 627 40 524 -22 411 -22 c 0
 233 -22 100 111 100 270 c 0
 100 514 350 604 572 611 c 1
 611 814 766 1019 1003 1019 c 0
 1191 1019 1334 881 1396 736 c 1
 1492 893 1655 1023 1890 1023 c 0
1289 613 m 1
 1260 742 1152 879 1003 879 c 0
 849 879 750 743 718 612 c 1
 1289 613 l 1
705 472 m 1
 713 289 825 121 1007 121 c 0
 1196 121 1293 313 1301 472 c 1
 705 472 l 1
1639 114 m 0
 1726 114 1787 185 1787 264 c 0
 1787 416 1590 463 1445 471 c 1
 1440 444 1438 415 1438 388 c 0
 1438 255 1506 114 1639 114 c 0
242 275 m 0
 242 191 316 118 408 118 c 0
 500 118 591 205 591 297 c 0
 591 301 590 307 590 311 c 0
 573 363 564 416 562 470 c 1
 423 463 242 417 242 275 c 0
EndSplineSet
LCarets2: 2 0 0
EndChar

StartChar: k1k1u1
Encoding: 1114125 -1 130
Width: 2551
GlyphClass: 3
LigCaretCntFixed: 1
Flags: MW
LayerCount: 2
Fore
SplineSet
1616 117 m 0
 1709 117 1783 180 1783 267 c 0
 1783 426 1617 488 1455 503 c 1
 1439 455 1431 409 1431 366 c 0
 1431 250 1501 117 1616 117 c 0
589 298 m 2
 589 313 l 1
 571 371 562 432 562 497 c 0
 562 499 562 502 562 504 c 1
 401 492 241 433 241 282 c 0
 241 192 317 124 405 124 c 0
 509 124 589 198 589 298 c 2
1299 508 m 1
 1001 508 1001 508 702 508 c 1
 702 504 702 501 702 497 c 0
 702 308 810 123 998 123 c 0
 1190 123 1299 310 1299 501 c 0
 1299 503 1299 506 1299 508 c 1
725 648 m 1
 1001 648 1001 648 1276 648 c 1
 1237 771 1147 882 1000 882 c 0
 854 882 763 769 725 648 c 1
2159 99 m 0
 2241 99 2313 155 2313 239 c 0
 2313 339 2228 373 2125 373 c 2
 2083 373 l 2
 2046 373 2013 404 2013 441 c 0
 2013 477 2040 508 2073 512 c 1
 2099 516 l 2
 2102 517 2106 517 2109 517 c 0
 2118 517 2125 517 2132 517 c 0
 2215 517 2279 588 2279 663 c 0
 2279 811 2110 885 1958 885 c 0
 1754 885 1611 775 1520 636 c 1
 1729 605 1924 478 1924 276 c 0
 1924 106 1802 -22 1628 -22 c 0
 1487 -22 1385 72 1337 165 c 1
 1269 70 1151 -16 1000 -16 c 0
 856 -16 750 58 684 136 c 1
 630 45 538 -19 405 -19 c 0
 244 -19 100 115 100 275 c 0
 100 527 333 633 579 645 c 1
 628 851 790 1021 999 1021 c 0
 1211 1021 1344 876 1402 712 c 1
 1511 880 1705 1024 1954 1024 c 0
 2194 1024 2420 899 2420 654 c 0
 2420 582 2391 518 2334 461 c 1
 2408 411 2451 345 2451 241 c 0
 2451 75 2320 -43 2161 -43 c 0
 2111 -43 2063 -29 2015 -1 c 0
 1992 12 1980 31 1980 54 c 0
 1980 94 2008 130 2045 130 c 0
 2061 130 2078 125 2095 115 c 0
 2114 104 2136 99 2159 99 c 0
EndSplineSet
LCarets2: 1 0
EndChar

StartChar: k1k1u2
Encoding: 1114126 -1 131
Width: 2523
GlyphClass: 3
LigCaretCntFixed: 1
Flags: MW
LayerCount: 2
Fore
SplineSet
1425 510 m 1
 1378 363 1410 238 1493 174 c 0
 1554 127 1615 125 1676 166 c 0
 1711 189 1732 225 1739 274 c 0
 1746 323 1724 372 1673 421 c 0
 1622 470 1539 499 1425 510 c 1
553 511 m 1
 438 502 353 471 300 418 c 0
 245 363 223 280 277 208 c 0
 302 174 332 154 366 148 c 0
 453 133 516 159 555 227 c 0
 574 259 582 292 579 326 c 1
 579 327 l 1
 561 385 552 446 553 511 c 1
1269 515 m 1
 981 515 981 515 693 515 c 1
 689 323 802 152 971 146 c 0
 1072 143 1150 202 1197 265 c 0
 1246 333 1270 416 1269 515 c 1
1090 851 m 0
 1016 889 943 889 870 850 c 0
 797 811 745 746 716 655 c 1
 1226 656 l 2
 1236 656 1236 656 1246 656 c 1
 1216 748 1164 813 1090 851 c 0
2415 -481 m 0
 2415 -511 2386 -551 2359 -551 c 2
 2344 -551 l 1
 450 -547 l 2
 286 -547 205 -521 140 -436 c 0
 63 -335 106 -213 196 -146 c 0
 257 -101 349 -80 474 -82 c 1
 604 -83 l 1
 1855 -74 l 2
 1974 -73 2058 -62 2106 -40 c 0
 2197 1 2253 59 2274 133 c 0
 2306 244 2253 332 2166 362 c 0
 2138 372 2091 379 2027 385 c 0
 1996 387 1964 417 1964 449 c 0
 1964 492 1984 517 2023 523 c 2
 2049 527 l 2
 2052 528 2056 528 2058 528 c 0
 2154 528 2230 594 2222 686 c 0
 2213 788 2125 848 2032 876 c 0
 1976 893 1918 897 1855 889 c 0
 1700 869 1578 787 1487 644 c 1
 1609 625 1702 586 1767 525 c 0
 1868 429 1902 323 1868 206 c 0
 1836 98 1744 7 1608 0 c 0
 1462 -7 1358 87 1309 181 c 1
 1240 87 1121 1 968 6 c 0
 852 10 754 59 674 153 c 1
 632 84 572 38 494 16 c 0
 349 -26 231 36 164 124 c 0
 116 188 97 257 108 330 c 0
 119 403 148 464 195 511 c 0
 282 597 407 644 570 653 c 1
 589 732 619 799 662 852 c 0
 749 961 854 1017 976 1018 c 0
 1037 1019 1095 1005 1150 977 c 0
 1253 924 1327 840 1371 723 c 1
 1434 822 1512 897 1605 950 c 0
 1760 1038 1922 1056 2090 1005 c 0
 2156 985 2216 948 2270 894 c 0
 2324 840 2354 772 2361 688 c 0
 2368 604 2337 529 2270 466 c 1
 2383 400 2458 269 2408 97 c 0
 2363 -58 2229 -163 2067 -196 c 0
 2011 -207 1941 -213 1856 -214 c 2
 605 -223 l 1
 476 -223 l 1
 351 -224 276 -246 249 -290 c 0
 217 -343 273 -377 306 -391 c 0
 330 -402 379 -407 451 -407 c 2
 2344 -411 l 2
 2383 -411 2415 -442 2415 -481 c 0
EndSplineSet
LCarets2: 1 3
EndChar

StartChar: k1k1r1
Encoding: 1114127 -1 132
Width: 2445
GlyphClass: 3
LigCaretCntFixed: 1
Flags: MW
LayerCount: 2
Fore
SplineSet
1643 -321 m 0
 1616 -276 1553 -253 1454 -252 c 0
 1355 -251 1291 -273 1264 -318 c 0
 1247 -347 1249 -373 1272 -398 c 0
 1306 -436 1385 -452 1508 -446 c 0
 1567 -443 1609 -428 1633 -403 c 0
 1657 -378 1660 -350 1643 -321 c 0
1415 497 m 1
 1376 346 1409 224 1490 162 c 0
 1558 110 1649 117 1701 179 c 0
 1761 251 1734 345 1675 401 c 0
 1618 454 1531 486 1415 497 c 1
549 498 m 1
 433 489 348 459 295 406 c 0
 240 351 218 266 272 195 c 0
 370 65 583 145 574 313 c 1
 576 313 l 1
 558 371 549 433 549 498 c 1
695 502 m 2
 692 502 692 502 689 502 c 0
 688 309 798 139 966 131 c 0
 1067 128 1145 187 1191 251 c 0
 1240 319 1264 403 1264 503 c 1
 1221 503 l 1
 695 502 l 2
1245 643 m 1
 1210 770 1107 884 974 882 c 0
 843 880 742 768 708 642 c 1
 1221 643 l 1
 1245 643 l 1
1475 879 m 0
 1646 1041 1889 1074 2089 934 c 0
 2171 877 2234 802 2279 707 c 0
 2354 547 2366 361 2315 150 c 0
 2241 -160 2043 -422 1767 -532 c 0
 1669 -571 1571 -590 1473 -588 c 0
 1375 -586 1307 -576 1266 -558 c 0
 1177 -520 1127 -461 1115 -382 c 0
 1099 -269 1173 -194 1249 -151 c 0
 1341 -99 1572 -103 1660 -155 c 0
 1751 -208 1796 -278 1793 -364 c 1
 1981 -258 2119 -66 2179 183 c 0
 2200 259 2208 339 2205 423 c 0
 2198 602 2132 735 2009 820 c 0
 1906 892 1797 903 1683 852 c 0
 1592 811 1520 738 1467 633 c 1
 1596 616 1694 576 1759 514 c 0
 1862 417 1896 310 1863 193 c 0
 1832 85 1739 -8 1602 -13 c 0
 1467 -19 1357 72 1305 171 c 1
 1305 170 l 1
 1238 75 1115 -14 963 -9 c 0
 847 -5 749 45 669 140 c 1
 627 71 567 25 489 3 c 0
 344 -39 226 23 159 112 c 0
 64 237 95 403 190 498 c 0
 276 584 400 631 563 640 c 1
 580 722 610 791 651 846 c 0
 738 961 844 1020 971 1021 c 0
 1034 1022 1094 1007 1150 978 c 0
 1248 926 1319 845 1362 734 c 1
 1394 789 1432 838 1475 879 c 0
EndSplineSet
LCarets2: 1 0
EndChar

StartChar: k1k1r3
Encoding: 1114128 -1 133
Width: 2826
GlyphClass: 3
LigCaretCntFixed: 1
Flags: MW
LayerCount: 2
Fore
SplineSet
1782 512 m 1
 1774 475 1771 439 1771 405 c 0
 1771 278 1831 122 1960 122 c 0
 2037 122 2119 207 2119 287 c 0
 2119 441 1940 498 1782 512 c 1
610 299 m 0
 610 213 688 125 768 125 c 0
 864 125 944 211 944 311 c 0
 944 316 943 322 943 329 c 0
 926 385 917 444 917 506 c 0
 917 508 917 510 917 512 c 1
 763 500 610 444 610 299 c 0
1057 507 m 0
 1057 318 1170 128 1344 128 c 0
 1529 128 1634 325 1634 508 c 0
 1634 511 1634 514 1634 517 c 1
 1065 517 l 2
 1064 517 1058 516 1057 516 c 1
 1057 513 1057 510 1057 507 c 0
1345 881 m 0
 1205 881 1117 772 1080 657 c 1
 1257 657 1434 657 1611 657 c 1
 1573 773 1486 881 1345 881 c 0
1725 751 m 1
 1812 896 1959 1018 2180 1018 c 0
 2519 1018 2726 703 2726 383 c 0
 2726 -162 2304 -375 1751 -387 c 2
 1308 -397 l 2
 1264 -398 1223 -398 1185 -398 c 0
 599 -398 100 -162 100 406 c 0
 100 685 265 903 457 1009 c 0
 468 1015 481 1019 497 1019 c 0
 534 1019 562 983 562 942 c 0
 562 918 550 900 525 887 c 0
 371 802 240 628 240 404 c 0
 240 -80 683 -278 1184 -278 c 0
 1221 -278 1262 -278 1305 -277 c 2
 1748 -267 l 2
 2214 -257 2589 -80 2589 381 c 0
 2589 644 2429 879 2174 879 c 0
 2007 879 1889 767 1829 648 c 1
 2048 620 2260 498 2260 292 c 0
 2260 122 2126 -19 1949 -19 c 0
 1826 -19 1724 78 1678 170 c 1
 1613 78 1493 -12 1345 -12 c 0
 1220 -12 1120 38 1038 134 c 1
 985 47 897 -16 768 -16 c 0
 610 -16 469 136 469 293 c 0
 469 539 695 642 934 654 c 1
 979 846 1123 1022 1345 1022 c 0
 1533 1022 1663 893 1725 751 c 1
EndSplineSet
LCarets2: 1 0
EndChar

StartChar: k1nh
Encoding: 1114131 -1 136
Width: 1805
GlyphClass: 3
LigCaretCntFixed: 1
Flags: MW
LayerCount: 2
Fore
SplineSet
282 -628 m 4
 347 -628 395 -577 395 -514 c 4
 395 -450 337 -400 275 -400 c 4
 202 -400 155 -456 155 -520 c 4
 155 -585 215 -628 282 -628 c 4
1684 -373 m 4
 1684 -250 1580 -123 1444 -123 c 4
 1283 -123 1230 -236 1230 -408 c 4
 1230 -412 1230 -416 1230 -420 c 6
 1231 -688 l 6
 1231 -721 1205 -748 1172 -748 c 4
 1139 -748 1112 -721 1111 -689 c 6
 1109 -423 l 6
 1107 -251 1061 -124 930 -124 c 4
 801 -124 752 -268 753 -427 c 6
 754 -688 l 6
 754 -727 725 -748 690 -748 c 4
 661 -748 635 -718 634 -689 c 6
 632 -427 l 5
 630 -245 577 -121 399 -121 c 4
 272 -121 170 -228 137 -324 c 5
 182 -292 229 -279 274 -279 c 4
 402 -279 514 -389 514 -517 c 4
 514 -646 413 -747 282 -747 c 4
 108 -747 0 -607 0 -420 c 4
 0 -208 177 1 395 1 c 4
 522 1 631 -66 687 -150 c 5
 731 -75 815 -4 930 -4 c 4
 1044 -4 1126 -73 1171 -147 c 5
 1230 -56 1314 -4 1444 -4 c 4
 1647 -4 1804 -174 1804 -372 c 4
 1804 -570 1643 -745 1438 -745 c 4
 1387 -745 1359 -725 1359 -679 c 4
 1359 -656 1387 -624 1408 -624 c 4
 1570 -624 1684 -531 1684 -373 c 4
EndSplineSet
Refer: 57 3349 N 0.949951 0 0 0.974956 -14 23 2
LCarets2: 2 0 0
EndChar

StartChar: k1nhu1
Encoding: 1114132 -1 137
Width: 1973
GlyphClass: 3
LigCaretCntFixed: 1
Flags: MW
LayerCount: 2
Fore
SplineSet
1827 -479 m 0
 1817 -393 1748 -325 1649 -349 c 0
 1567 -369 1508 -478 1568 -563 c 0
 1620 -636 1727 -638 1795 -567 c 0
 1820 -541 1831 -512 1827 -479 c 0
406 -553 m 0
 466 -467 406 -362 325 -341 c 0
 265 -327 217 -342 180 -387 c 0
 143 -432 136 -482 159 -535 c 1
 194 -587 255 -630 337 -605 c 0
 365 -596 388 -578 406 -553 c 0
720 -739 m 0
 691 -739 665 -712 665 -681 c 2
 664 -413 l 1
 664 -411 l 1
 673 -238 524 -109 363 -128 c 0
 280 -138 216 -176 169 -245 c 1
 351 -150 541 -289 550 -464 c 0
 556 -588 472 -690 375 -719 c 0
 322 -735 267 -734 208 -717 c 0
 84 -681 -10 -543 1 -374 c 0
 16 -145 258 75 538 -35 c 0
 611 -64 669 -110 713 -173 c 1
 744 -117 784 -76 835 -49 c 0
 939 6 1040 5 1139 -51 c 0
 1192 -81 1233 -123 1262 -179 c 1
 1311 -110 1376 -62 1457 -35 c 0
 1586 8 1702 -8 1806 -86 c 0
 1910 -164 1965 -260 1972 -375 c 0
 1979 -490 1945 -586 1869 -665 c 0
 1818 -718 1708 -761 1599 -727 c 0
 1502 -697 1418 -596 1424 -472 c 0
 1432 -297 1622 -159 1805 -253 c 1
 1743 -161 1629 -105 1495 -149 c 0
 1430 -171 1381 -208 1351 -261 c 0
 1321 -314 1307 -367 1310 -419 c 1
 1310 -421 l 1
 1309 -683 l 2
 1309 -715 1281 -743 1249 -743 c 0
 1216 -743 1190 -714 1189 -683 c 1
 1189 -429 l 2
 1189 -286 1169 -206 1076 -153 c 0
 1018 -120 959 -119 900 -150 c 0
 809 -198 785 -279 785 -421 c 2
 785 -681 l 1
 784 -720 755 -739 720 -739 c 0
EndSplineSet
Refer: 57 3349 S 0.949951 0 0 0.971135 45 23 2
LCarets2: 1 0
EndChar

StartChar: k1nhu2
Encoding: 1114133 -1 138
Width: 1963
GlyphClass: 3
LigCaretCntFixed: 1
Flags: MW
LayerCount: 2
Fore
SplineSet
407 -571 m 0
 466 -486 410 -377 325 -358 c 0
 265 -345 217 -361 181 -406 c 0
 145 -451 138 -499 160 -551 c 1
 192 -601 260 -647 339 -622 c 0
 367 -613 389 -596 407 -571 c 0
1833 -332 m 1
 1816 -332 l 1
 1705 -337 1615 -417 1604 -500 c 0
 1594 -577 1650 -648 1734 -629 c 0
 1850 -603 1879 -450 1833 -332 c 1
722 -756 m 0
 693 -756 666 -727 666 -697 c 2
 665 -431 l 1
 665 -427 l 1
 673 -280 548 -124 366 -146 c 0
 282 -155 217 -194 171 -263 c 1
 354 -171 544 -304 552 -481 c 0
 558 -605 473 -706 376 -736 c 0
 226 -782 108 -699 55 -610 c 0
 15 -547 -3 -472 3 -384 c 0
 9 -296 47 -214 119 -138 c 0
 191 -62 283 -24 395 -24 c 0
 528 -24 635 -79 715 -190 c 1
 766 -101 858 -25 992 -28 c 0
 1118 -31 1211 -102 1261 -194 c 1
 1333 -93 1456 -13 1624 -35 c 0
 1748 -51 1844 -113 1911 -222 c 1
 2073 -261 2189 -387 2212 -571 c 0
 2234 -750 2119 -905 1997 -970 c 0
 1837 -1055 1653 -1018 1536 -916 c 0
 1522 -905 1515 -891 1515 -873 c 0
 1515 -839 1541 -810 1574 -810 c 0
 1590 -810 1604 -815 1615 -826 c 0
 1698 -898 1827 -925 1940 -864 c 0
 2026 -818 2109 -710 2092 -583 c 0
 2080 -491 2039 -422 1969 -375 c 1
 1976 -431 1981 -478 1961 -547 c 0
 1934 -643 1859 -724 1756 -747 c 0
 1638 -773 1543 -702 1507 -625 c 0
 1486 -581 1478 -535 1484 -489 c 0
 1500 -354 1612 -248 1754 -220 c 1
 1677 -153 1591 -135 1495 -165 c 0
 1377 -202 1310 -292 1310 -439 c 2
 1310 -700 l 2
 1310 -735 1286 -759 1244 -759 c 0
 1217 -759 1190 -728 1190 -700 c 2
 1189 -446 l 2
 1189 -304 1168 -224 1076 -171 c 0
 1019 -138 961 -137 902 -168 c 0
 811 -216 786 -296 786 -438 c 2
 786 -697 l 2
 786 -731 761 -756 722 -756 c 0
EndSplineSet
Refer: 57 3349 N 1 0 0 1 6 4 2
LCarets2: 1 0
EndChar

StartChar: k1th1
Encoding: 1114134 -1 139
Width: 3311
GlyphClass: 3
LigCaretCntFixed: 1
Flags: MW
LayerCount: 2
Fore
SplineSet
562 500 m 5
 401 488 242 429 242 278 c 0
 242 189 318 121 405 121 c 0
 508 121 588 196 588 296 c 0
 588 300 588 305 588 309 c 0
 588 310 588 310 588 311 c 0
 571 367 562 427 562 490 c 0
 562 493 562 497 562 500 c 5
702 505 m 1
 698 310 806 121 997 121 c 0
 1192 121 1303 312 1298 508 c 1
 702 505 l 1
2397 813 m 1
 2272 737 2166 594 2166 408 c 0
 2166 263 2250 115 2397 115 c 0
 2542 115 2626 260 2626 404 c 0
 2626 590 2529 735 2397 813 c 1
1275 648 m 1
 1236 770 1133 878 1002 878 c 0
 866 878 763 769 724 645 c 1
 1275 648 l 1
3073 480 m 0
 3073 708 2876 882 2644 882 c 0
 2614 882 2583 879 2552 873 c 1
 2688 754 2765 617 2765 409 c 0
 2765 183 2628 -22 2397 -22 c 0
 2169 -22 2026 183 2026 405 c 0
 2026 609 2110 757 2240 871 c 1
 2214 875 2189 878 2164 878 c 0
 1930 878 1750 698 1750 466 c 0
 1750 462 1750 457 1750 453 c 0
 1750 287 1868 160 1974 110 c 0
 2001 97 2015 79 2015 54 c 0
 2015 13 1988 -24 1951 -24 c 0
 1936 -24 1923 -22 1914 -17 c 0
 1762 55 1629 217 1610 418 c 1
 1559 457 1502 482 1438 495 c 1
 1438 225 1272 -17 995 -17 c 0
 859 -17 748 58 684 134 c 1
 630 43 539 -21 405 -21 c 0
 240 -21 103 113 103 278 c 0
 103 522 335 630 579 642 c 1
 627 849 792 1018 1003 1018 c 0
 1207 1018 1376 846 1422 640 c 1
 1494 630 1560 609 1620 578 c 1
 1671 820 1888 1018 2164 1018 c 0
 2239 1018 2317 1002 2396 968 c 1
 2479 1004 2563 1021 2644 1021 c 0
 2947 1021 3212 790 3212 479 c 0
 3212 236 3053 46 2868 -15 c 0
 2860 -18 2849 -19 2835 -19 c 0
 2806 -19 2773 16 2773 46 c 0
 2773 81 2792 106 2830 120 c 0
 2960 168 3073 306 3073 480 c 0
EndSplineSet
LCarets2: 1 3
EndChar

StartChar: k1th1u1
Encoding: 1114135 -1 140
Width: 3268
GlyphClass: 3
LigCaretCntFixed: 1
Flags: MW
LayerCount: 2
Fore
SplineSet
2334 795 m 1
 2216 725 2113 593 2113 409 c 0
 2113 271 2192 132 2333 132 c 0
 2471 132 2557 265 2557 405 c 0
 2557 590 2468 718 2334 795 c 1
1708 463 m 1
 1708 451 l 1
 1711 294 1809 178 1924 124 c 0
 1952 112 1966 89 1966 55 c 0
 1966 24 1932 -10 1902 -10 c 0
 1887 -10 1875 -8 1866 -3 c 0
 1711 67 1585 220 1570 420 c 1
 1522 456 1467 482 1405 495 c 1
 1404 235 1238 -5 974 -5 c 0
 856 -5 746 52 669 143 c 1
 616 55 527 -7 398 -7 c 0
 240 -7 100 125 100 281 c 0
 100 528 327 629 565 642 c 1
 610 835 755 1010 977 1010 c 0
 1201 1010 1345 834 1389 639 c 1
 1459 629 1523 609 1580 579 c 1
 1628 796 1842 997 2111 997 c 0
 2182 997 2257 983 2333 952 c 1
 2407 984 2485 1000 2566 1000 c 0
 2908 1000 3167 730 3167 391 c 0
 3167 -32 2953 -205 2528 -210 c 2
 2025 -217 l 1
 1904 -217 1703 -212 1703 -315 c 0
 1703 -396 1848 -404 1944 -404 c 0
 1967 -404 1992 -404 2019 -403 c 2
 3097 -400 l 1
 3112 -400 l 2
 3138 -400 3168 -440 3168 -470 c 0
 3168 -508 3136 -540 3098 -540 c 2
 2020 -543 l 1
 1926 -543 l 2
 1734 -543 1564 -486 1564 -313 c 0
 1564 -127 1753 -77 1968 -77 c 0
 2155 -76 2339 -73 2525 -71 c 4
 2862 -67 3027 47 3027 376 c 0
 3027 646 2838 860 2568 860 c 0
 2543 860 2518 858 2492 854 c 1
 2621 741 2697 605 2697 404 c 0
 2697 176 2551 -7 2338 -7 c 0
 2116 -7 1974 183 1974 407 c 0
 1974 605 2046 736 2175 851 c 1
 2154 854 2134 855 2114 855 c 0
 1880 855 1710 691 1708 463 c 1
574 303 m 2
 574 317 l 1
 557 372 549 431 549 493 c 2
 549 500 l 1
 395 488 241 431 241 286 c 0
 241 200 314 135 399 135 c 0
 498 135 574 207 574 303 c 2
689 495 m 2
 689 307 801 136 974 136 c 0
 1160 136 1265 312 1265 496 c 2
 1265 507 l 1
 1075 507 886 506 696 505 c 2
 689 505 l 1
 689 495 l 2
711 645 m 1
 1221 647 l 1
 1241 647 l 1
 1203 762 1116 869 976 869 c 0
 835 869 748 761 711 645 c 1
EndSplineSet
LCarets2: 1 0
EndChar

StartChar: k1th1u2
Encoding: 1114136 -1 141
Width: 3449
GlyphClass: 3
LigCaretCntFixed: 1
Flags: MW
LayerCount: 2
Fore
SplineSet
406 122 m 0
 494 122 575 192 575 291 c 0
 575 295 574 300 574 304 c 2
 574 305 l 1
 557 360 549 419 549 481 c 0
 549 483 549 486 549 488 c 1
 395 476 241 420 241 274 c 0
 241 184 317 122 406 122 c 0
974 124 m 0
 1163 124 1269 305 1265 495 c 1
 689 493 l 1
 685 299 799 124 974 124 c 0
2495 128 m 0
 2633 128 2718 260 2718 397 c 0
 2718 564 2599 701 2500 769 c 1
 2373 698 2262 575 2262 404 c 0
 2262 260 2358 128 2495 128 c 0
1241 636 m 1
 1202 752 1103 883 977 883 c 0
 849 883 749 750 711 633 c 1
 1241 636 l 1
2507 950 m 1
 2611 994 2734 1022 2876 1022 c 0
 3111 1022 3323 901 3323 658 c 0
 3323 566 3291 491 3229 435 c 1
 3296 382 3344 304 3344 202 c 0
 3344 -119 3006 -200 2658 -200 c 2
 1973 -197 l 2
 1853 -197 1732 -198 1732 -279 c 0
 1732 -353 1862 -357 1984 -357 c 0
 2419 -357 2857 -354 3294 -353 c 0
 3321 -353 3350 -393 3350 -423 c 0
 3350 -462 3318 -493 3279 -493 c 0
 2825 -495 2368 -494 1915 -497 c 1
 1739 -494 1592 -434 1592 -279 c 0
 1592 -121 1747 -56 1925 -56 c 2
 2704 -61 l 1
 2970 -59 3203 0 3203 196 c 0
 3203 284 3134 360 3049 360 c 0
 3013 360 2972 382 2972 420 c 0
 2972 468 2998 498 3035 500 c 0
 3115 502 3184 566 3184 645 c 0
 3184 786 3029 882 2873 882 c 0
 2787 882 2705 868 2649 852 c 1
 2786 728 2858 560 2858 382 c 0
 2858 182 2709 -13 2494 -13 c 0
 2267 -13 2121 191 2121 402 c 0
 2121 602 2234 772 2354 862 c 1
 2299 879 2244 888 2191 888 c 0
 1946 888 1747 717 1747 473 c 0
 1747 295 1865 141 2030 117 c 0
 2086 109 2114 85 2114 45 c 0
 2114 14 2084 -25 2056 -25 c 0
 1824 -25 1650 183 1614 377 c 1
 1564 449 1492 464 1405 483 c 1
 1404 222 1239 -17 974 -17 c 0
 856 -17 746 40 669 131 c 1
 616 43 527 -19 398 -19 c 0
 236 -19 102 114 102 275 c 0
 102 513 329 617 565 630 c 1
 616 847 756 1023 979 1023 c 0
 1197 1023 1339 842 1389 627 c 1
 1472 616 1546 590 1612 549 c 1
 1658 827 1883 1026 2192 1026 c 0
 2301 1026 2410 1000 2507 950 c 1
EndSplineSet
LCarets2: 1 0
EndChar

StartChar: k1th1r1
Encoding: 1114137 -1 142
Width: 3174
GlyphClass: 3
LigCaretCntFixed: 1
Flags: MW
LayerCount: 2
Fore
SplineSet
409 -20 m 0
 240 -20 100 118 100 286 c 0
 100 537 341 641 578 646 c 1
 620 833 759 1022 989 1022 c 0
 1219 1022 1357 834 1400 648 c 1
 1443 645 1475 637 1511 618 c 1
 1573 840 1773 1017 2035 1017 c 0
 2113 1017 2192 1000 2263 969 c 1
 2337 1002 2409 1016 2479 1016 c 0
 2845 1016 3075 685 3075 315 c 0
 3075 -166 2723 -575 2225 -575 c 0
 2051 -575 1865 -525 1865 -341 c 0
 1865 -166 2045 -99 2208 -100 c 28
 2370 -101 2545 -169 2545 -344 c 2
 2545 -358 l 1
 2756 -242 2934 19 2934 317 c 0
 2934 603 2768 876 2487 876 c 0
 2464 876 2441 874 2418 870 c 1
 2547 756 2631 598 2631 396 c 0
 2631 178 2496 -26 2271 -26 c 0
 2043 -26 1909 183 1909 402 c 0
 1909 599 1985 753 2111 869 c 1
 2085 874 2059 877 2033 877 c 0
 1810 877 1632 695 1632 473 c 0
 1632 299 1743 161 1874 105 c 0
 1898 95 1918 66 1918 40 c 0
 1918 1 1887 -30 1848 -30 c 0
 1840 -30 1827 -27 1819 -24 c 0
 1653 47 1516 208 1494 417 c 0
 1485 466 1466 493 1417 504 c 1
 1417 499 1417 494 1417 489 c 0
 1417 230 1262 -26 989 -26 c 0
 854 -26 744 49 678 129 c 1
 624 42 520 -20 409 -20 c 0
1254 649 m 1
 1218 763 1135 882 989 882 c 2
 986 882 l 1
 844 880 756 762 723 647 c 1
 1254 649 l 1
2264 811 m 1
 2138 731 2049 583 2049 407 c 0
 2049 262 2123 114 2271 114 c 0
 2415 114 2490 260 2490 401 c 0
 2490 582 2393 733 2264 811 c 1
1277 509 m 1
 701 507 l 1
 701 307 794 114 989 114 c 0
 1179 114 1277 305 1277 490 c 2
 1277 509 l 1
411 121 m 0
 506 121 586 200 586 298 c 2
 586 308 l 1
 567 373 561 435 561 505 c 1
 404 498 241 446 241 285 c 0
 241 193 321 121 411 121 c 0
2244 -434 m 1
 2317 -432 2405 -415 2405 -344 c 0
 2405 -258 2290 -240 2199 -240 c 0
 2114 -240 2005 -260 2005 -341 c 0
 2005 -432 2143 -434 2240 -434 c 2
 2244 -434 l 1
EndSplineSet
LCarets2: 1 0
EndChar

StartChar: k1r3
Encoding: 1114138 -1 143
Width: 2185
GlyphClass: 3
Flags: MW
LayerCount: 2
Fore
SplineSet
736 105 m 0
 831 105 904 184 904 273 c 0
 904 279 904 286 903 292 c 0
 885 354 877 418 877 491 c 1
 722 478 568 417 568 267 c 0
 568 173 645 105 736 105 c 0
1594 499 m 1
 1401 498 1209 496 1017 496 c 1
 1017 297 1106 100 1303 100 c 0
 1501 100 1594 299 1594 499 c 1
1305 883 m 0
 1159 883 1072 762 1038 637 c 1
 1573 639 l 1
 1537 764 1451 883 1305 883 c 0
998 112 m 1
 948 30 842 -36 729 -36 c 0
 557 -36 429 115 429 263 c 0
 429 510 652 619 893 633 c 1
 934 833 1069 1022 1305 1022 c 0
 1537 1022 1678 836 1719 632 c 1
 1933 599 2085 434 2085 178 c 0
 2085 -369 1523 -382 973 -382 c 0
 482 -382 100 -109 100 367 c 0
 100 646 267 875 457 987 c 0
 468 994 482 997 498 997 c 0
 535 997 563 961 563 921 c 0
 563 898 551 879 528 866 c 0
 376 776 241 585 241 373 c 0
 241 -56 585 -242 1014 -242 c 0
 1447 -242 1947 -252 1947 176 c 0
 1947 344 1852 454 1734 486 c 1
 1734 211 1577 -38 1299 -38 c 4
 1166 -38 1059 39 998 112 c 1
EndSplineSet
LCarets2: 1 0
EndChar

StartChar: k1sh
Encoding: 1114144 -1 149
Width: 2913
GlyphClass: 3
LigCaretCntFixed: 1
Flags: MW
LayerCount: 2
Fore
SplineSet
407 120 m 0
 495 120 575 202 575 301 c 0
 575 305 574 310 574 314 c 2
 574 315 l 1
 557 370 549 429 549 491 c 0
 549 493 549 496 549 498 c 1
 395 486 241 429 241 284 c 0
 241 193 319 120 407 120 c 0
689 492 m 0
 689 303 802 122 974 122 c 0
 1160 122 1265 310 1265 494 c 0
 1265 498 1265 501 1265 505 c 1
 1075 504 886 503 696 502 c 1
 689 502 l 1
 689 499 689 495 689 492 c 0
2673 618 m 1
 2590 513 2484 437 2357 392 c 1
 2355 140 l 1
 2673 140 l 1
 2673 618 l 1
1241 645 m 1
 1195 784 1085 870 976 870 c 0
 866 870 756 783 711 642 c 1
 1221 645 l 1
 1241 645 l 1
2064 881 m 0
 1965 881 1886 794 1886 702 c 0
 1886 580 2006 494 2140 494 c 0
 2164 494 2190 497 2218 501 c 1
 2220 686 l 1
 2220 814 2176 881 2064 881 c 0
1537 0 m 2
 1496 0 1467 33 1467 76 c 0
 1467 99 1478 118 1501 131 c 0
 1558 161 1592 221 1592 285 c 0
 1592 397 1502 466 1405 491 c 1
 1404 232 1239 -20 975 -20 c 0
 857 -20 746 38 669 128 c 1
 619 43 532 -21 406 -21 c 0
 242 -21 100 115 100 278 c 0
 100 524 327 627 565 640 c 1
 613 841 773 1022 979 1022 c 0
 1179 1022 1343 838 1389 637 c 1
 1575 608 1733 484 1733 283 c 0
 1733 234 1721 185 1698 140 c 1
 2215 140 l 1
 2217 359 l 1
 2194 356 2171 355 2149 355 c 0
 1934 355 1744 493 1744 700 c 0
 1744 880 1893 1021 2067 1021 c 0
 2263 1021 2360 888 2360 685 c 1
 2358 544 l 1
 2516 616 2640 780 2674 975 c 0
 2679 1006 2711 1032 2746 1032 c 0
 2782 1032 2813 999 2813 962 c 2
 2813 70 l 2
 2813 32 2781 0 2743 0 c 2
 1537 0 l 2
EndSplineSet
LCarets2: 2 0 0
EndChar

StartChar: k3u1
Encoding: 1114150 -1 155
Width: 1804
GlyphClass: 3
Flags: MW
LayerCount: 2
Fore
SplineSet
422 -207 m 4
 320 -207 242 -231 242 -306 c 4
 242 -370 307 -402 436 -402 c 6
 440 -402 l 5
 1633 -403 l 5
 1634 -403 l 6
 1672 -403 1704 -435 1704 -473 c 4
 1704 -503 1674 -543 1648 -543 c 6
 1633 -543 l 5
 440 -542 l 6
 248 -542 102 -478 102 -303 c 4
 102 -134 251 -67 420 -67 c 6
 445 -67 l 5
 897 -74 l 6
 916 -74 934 -75 952 -75 c 4
 1310 -75 1565 81 1565 436 c 4
 1565 661 1444 880 1217 880 c 4
 1037 880 967 745 967 545 c 6
 967 453 l 6
 967 177 849 -20 577 -20 c 4
 301 -20 100 219 100 476 c 4
 100 745 259 937 456 1017 c 4
 465 1021 476 1023 490 1023 c 4
 520 1023 553 989 553 958 c 4
 553 925 532 897 508 888 c 4
 360 828 240 683 240 481 c 4
 240 298 384 118 577 118 c 4
 768 118 825 257 827 453 c 5
 827 545 l 6
 827 825 945 1021 1222 1021 c 4
 1524 1021 1705 730 1705 438 c 4
 1705 -4 1393 -214 940 -214 c 6
 894 -214 l 5
 443 -207 l 6
 436 -207 429 -207 422 -207 c 4
EndSplineSet
LCarets2: 1 0
EndChar

StartChar: k3u2
Encoding: 1114151 -1 156
Width: 1759
GlyphClass: 3
Flags: MW
LayerCount: 2
Fore
SplineSet
1249 1021 m 4
 1448 1021 1622 865 1622 664 c 4
 1622 568 1580 481 1517 421 c 5
 1596 368 1657 282 1657 161 c 4
 1657 -99 1443 -203 1174 -206 c 4
 1137 -206 990 -205 955 -205 c 6
 451 -205 l 6
 334 -205 240 -226 240 -311 c 4
 240 -394 334 -413 442 -413 c 6
 1589 -413 l 6
 1628 -413 1659 -444 1659 -483 c 4
 1659 -521 1627 -553 1589 -553 c 4
 1206 -553 824 -553 441 -553 c 4
 262 -553 100 -489 100 -310 c 4
 100 -126 264 -65 451 -65 c 6
 955 -65 l 6
 1007 -65 1093 -66 1164 -66 c 4
 1336 -66 1529 65 1529 185 c 4
 1529 237 1493 286 1404 322 c 4
 1377 333 1361 335 1344 335 c 4
 1334 335 1323 334 1309 334 c 4
 1276 334 1248 370 1248 396 c 4
 1248 442 1274 470 1317 474 c 4
 1407 483 1483 568 1483 661 c 4
 1483 789 1363 880 1232 880 c 4
 1043 880 970 753 970 549 c 6
 970 457 l 6
 970 194 853 -7 595 -7 c 4
 293 -7 103 218 104 527 c 4
 104 755 272 944 446 1017 c 4
 455 1021 466 1023 481 1023 c 4
 511 1023 544 989 544 958 c 4
 544 925 523 897 500 888 c 4
 362 831 244 690 244 504 c 4
 244 305 391 134 586 134 c 4
 763 134 830 265 830 457 c 6
 830 549 l 6
 830 841 957 1021 1249 1021 c 4
EndSplineSet
LCarets2: 1 0
EndChar

StartChar: k3r1
Encoding: 1114152 -1 157
Width: 1831
GlyphClass: 3
Flags: MW
LayerCount: 2
Fore
SplineSet
628 -324 m 0
 628 -410 734 -418 860 -418 c 0
 946 -418 1026 -396 1026 -327 c 0
 1026 -257 923 -221 822 -221 c 0
 724 -221 628 -255 628 -324 c 0
497 1017 m 0
 526 1017 559 980 559 950 c 0
 559 917 536 889 512 880 c 0
 366 827 242 689 242 500 c 0
 242 298 384 119 593 119 c 0
 770 119 844 245 844 443 c 2
 844 535 l 1
 846 810 957 1018 1230 1018 c 0
 1552 1018 1731 715 1731 400 c 0
 1731 -117 1346 -558 839 -558 c 0
 638 -558 487 -493 487 -322 c 0
 487 -158 641 -84 819 -84 c 0
 1008 -84 1167 -156 1167 -331 c 0
 1167 -333 1167 -334 1167 -336 c 1
 1380 -219 1592 68 1592 391 c 0
 1592 646 1465 878 1229 878 c 0
 1042 878 984 730 984 535 c 2
 984 443 l 2
 984 166 863 -20 589 -20 c 0
 309 -20 100 218 100 485 c 0
 100 716 272 1017 497 1017 c 0
EndSplineSet
LCarets2: 1 0
EndChar

StartChar: k3k3
Encoding: 1114153 -1 158
Width: 1819
GlyphClass: 3
LigCaretCntFixed: 1
Flags: MW
LayerCount: 2
Fore
SplineSet
672 -384 m 4
 672 -508 773 -617 896 -617 c 4
 1009 -617 1052 -535 1052 -402 c 6
 1052 -338 l 6
 1052 -142 1151 -11 1338 -11 c 4
 1532 -11 1677 -181 1677 -359 c 4
 1677 -551 1556 -690 1403 -734 c 4
 1397 -736 1390 -737 1382 -737 c 4
 1352 -737 1326 -708 1326 -685 c 4
 1326 -649 1341 -627 1370 -619 c 4
 1470 -589 1557 -490 1557 -371 c 4
 1557 -236 1466 -132 1333 -132 c 4
 1217 -132 1172 -213 1172 -338 c 6
 1172 -402 l 6
 1172 -600 1079 -737 894 -737 c 4
 705 -737 552 -574 552 -389 c 4
 552 -205 658 -75 791 -18 c 4
 799 -15 809 -13 821 -13 c 4
 846 -13 875 -44 875 -69 c 4
 875 -98 862 -118 837 -129 c 4
 745 -167 672 -259 672 -384 c 4
EndSplineSet
Refer: 59 3351 S 1 0 0 1 0 8 2
LCarets2: 2 0 0
EndChar

StartChar: k3k3u1
Encoding: 1114154 -1 159
Width: 1819
GlyphClass: 3
LigCaretCntFixed: 1
Flags: MW
LayerCount: 2
Fore
SplineSet
593 -936 m 0
 593 -814 705 -764 828 -764 c 2
 1194 -764 l 2
 1324 -764 1399 -755 1478 -693 c 0
 1559 -630 1600 -544 1600 -432 c 0
 1600 -290 1514 -136 1380 -136 c 0
 1249 -136 1212 -218 1212 -355 c 2
 1212 -418 l 2
 1212 -615 1119 -756 936 -756 c 0
 746 -756 592 -591 592 -405 c 0
 592 -210 703 -80 844 -19 c 0
 852 -15 860 -14 868 -14 c 0
 901 -14 927 -43 927 -70 c 0
 927 -100 914 -120 889 -130 c 0
 791 -170 712 -265 712 -399 c 0
 712 -523 809 -635 932 -635 c 0
 1038 -635 1092 -563 1092 -418 c 2
 1092 -355 l 2
 1092 -156 1186 -15 1370 -15 c 0
 1590 -15 1720 -215 1720 -430 c 4
 1720 -740 1493 -889 1182 -889 c 2
 832 -889 l 2
 754 -889 713 -901 713 -941 c 0
 713 -977 755 -995 838 -995 c 2
 1634 -995 l 2
 1691 -995 1719 -1016 1719 -1060 c 0
 1719 -1102 1690 -1124 1632 -1124 c 2
 811 -1124 l 2
 705 -1124 593 -1055 593 -936 c 0
EndSplineSet
Refer: 59 3351 N 1 0 0 1 0 0 2
LCarets2: 1 0
EndChar

StartChar: k3k3u2
Encoding: 1114155 -1 160
Width: 1819
GlyphClass: 3
LigCaretCntFixed: 1
Flags: MW
LayerCount: 2
Fore
SplineSet
1406 -9 m 0
 1565 -9 1695 -138 1695 -275 c 0
 1695 -330 1674 -387 1625 -438 c 1
 1684 -483 1716 -553 1716 -626 c 0
 1716 -802 1557 -888 1369 -888 c 2
 863 -888 l 2
 773 -888 725 -907 725 -952 c 0
 725 -992 769 -1012 856 -1012 c 2
 1659 -1012 l 2
 1682 -1012 1719 -1046 1719 -1072 c 0
 1719 -1098 1695 -1132 1672 -1132 c 2
 856 -1132 l 2
 713 -1132 606 -1065 606 -953 c 0
 606 -825 712 -769 863 -769 c 2
 1396 -769 l 1
 1505 -768 1597 -722 1597 -623 c 0
 1597 -569 1555 -510 1489 -510 c 0
 1481 -510 1473 -511 1462 -511 c 0
 1439 -511 1410 -485 1410 -457 c 0
 1410 -423 1431 -395 1460 -392 c 0
 1532 -385 1573 -329 1573 -270 c 0
 1573 -191 1495 -128 1406 -128 c 0
 1281 -128 1236 -216 1236 -350 c 2
 1236 -414 l 2
 1236 -611 1141 -748 961 -748 c 0
 766 -748 609 -581 609 -391 c 0
 610 -204 719 -69 856 -12 c 0
 864 -9 873 -7 885 -7 c 0
 910 -7 939 -37 939 -63 c 0
 939 -93 926 -112 901 -122 c 0
 805 -162 729 -257 729 -389 c 0
 729 -515 830 -629 956 -629 c 0
 1063 -629 1117 -557 1117 -414 c 2
 1117 -350 l 2
 1117 -147 1216 -9 1406 -9 c 0
EndSplineSet
Refer: 59 3351 N 1 0 0 1 0 0 2
LCarets2: 1 0
EndChar

StartChar: k3k3r1
Encoding: 1114156 -1 161
Width: 1819
GlyphClass: 3
LigCaretCntFixed: 1
Flags: MW
LayerCount: 2
Fore
SplineSet
1277 -850 m 0
 1277 -814 1228 -802 1174 -802 c 0
 1117 -802 1072 -810 1072 -846 c 0
 1072 -874 1127 -883 1154 -883 c 2
 1193 -883 l 2
 1237 -883 1277 -873 1277 -850 c 0
1030 -680 m 0
 859 -680 721 -531 721 -354 c 0
 721 -197 826 -71 950 -26 c 0
 957 -23 965 -22 974 -22 c 0
 999 -22 1031 -45 1031 -73 c 0
 1031 -74 l 0
 1031 -108 1018 -130 991 -139 c 0
 911 -168 839 -256 839 -351 c 0
 839 -467 925 -561 1036 -561 c 0
 1133 -561 1164 -492 1167 -385 c 1
 1167 -329 l 2
 1167 -152 1243 -21 1417 -21 c 0
 1619 -21 1735 -220 1735 -413 c 0
 1735 -734 1488 -1003 1182 -1003 c 0
 1055 -1003 951 -960 951 -840 c 0
 951 -732 1061 -683 1170 -683 c 0
 1288 -683 1375 -727 1394 -822 c 1
 1499 -754 1616 -592 1616 -415 c 0
 1616 -280 1548 -142 1417 -142 c 0
 1330 -142 1287 -206 1287 -325 c 0
 1287 -326 1287 -328 1287 -329 c 2
 1287 -385 l 1
 1285 -562 1201 -680 1030 -680 c 0
EndSplineSet
Refer: 59 3351 N 1 0 0 1 0 0 2
LCarets2: 1 0
EndChar

StartChar: k3th3
Encoding: 1114157 -1 162
Width: 1736
GlyphClass: 3
LigCaretCntFixed: 1
Flags: MW
LayerCount: 2
Fore
SplineSet
1497 279 m 4
 1497 371 1413 400 1303 403 c 5
 1270 403 l 6
 1233 403 1201 436 1201 472 c 4
 1201 508 1228 543 1260 543 c 4
 1286 543 1302 547 1326 547 c 4
 1407 547 1467 616 1467 690 c 4
 1467 821 1324 881 1200 881 c 4
 1001 881 922 767 920 560 c 5
 920 439 l 5
 917 185 803 -30 550 -30 c 4
 288 -30 100 227 100 473 c 4
 100 729 247 931 425 1017 c 4
 435 1022 448 1025 463 1025 c 4
 492 1025 526 991 526 963 c 4
 526 928 513 904 486 891 c 4
 355 828 241 670 241 485 c 4
 241 314 362 111 538 111 c 4
 715 111 775 255 777 442 c 5
 777 562 l 5
 782 842 920 1023 1192 1023 c 4
 1407 1023 1607 908 1607 692 c 4
 1607 616 1576 543 1523 490 c 5
 1598 439 1636 370 1636 280 c 4
 1636 100 1478 -19 1299 -19 c 4
 1228 -19 1096 2 1096 88 c 4
 1096 119 1129 153 1160 153 c 4
 1202 153 1250 120 1297 120 c 4
 1395 120 1497 185 1497 279 c 4
EndSplineSet
LCarets2: 2 0 0
EndChar

StartChar: k3th3r1
Encoding: 1114160 -1 165
Width: 1782
GlyphClass: 3
LigCaretCntFixed: 1
Flags: MW
LayerCount: 2
Fore
SplineSet
240 481 m 4
 240 293 366 116 552 116 c 4
 720 116 773 249 776 421 c 6
 779 541 l 6
 784 823 910 1025 1196 1025 c 4
 1405 1025 1603 895 1603 683 c 4
 1603 584 1553 489 1477 436 c 5
 1591 353 1682 205 1682 23 c 4
 1682 -358 1338 -623 967 -623 c 4
 951 -623 935 -622 919 -621 c 5
 904 -621 889 -622 875 -622 c 4
 686 -622 489 -547 489 -349 c 4
 489 -153 691 -69 873 -69 c 4
 1060 -69 1272 -149 1272 -352 c 4
 1272 -369 1270 -387 1266 -405 c 5
 1411 -325 1542 -186 1542 22 c 4
 1542 215 1412 352 1256 384 c 4
 1225 390 1200 421 1200 452 c 4
 1200 491 1231 522 1270 522 c 4
 1281 522 1291 520 1302 520 c 4
 1389 520 1464 595 1464 682 c 4
 1464 808 1330 886 1199 886 c 4
 993 886 923 745 919 538 c 6
 916 418 l 6
 912 169 802 -24 550 -24 c 4
 285 -24 100 216 100 479 c 4
 100 727 246 921 417 1015 c 4
 426 1020 441 1024 451 1024 c 4
 490 1024 521 993 521 954 c 4
 521 931 505 904 484 893 c 4
 353 821 240 673 240 481 c 4
899 -479 m 4
 906 -479 913 -480 920 -481 c 4
 1016 -478 1131 -450 1131 -356 c 4
 1131 -243 992 -209 875 -209 c 4
 874 -209 l 4
 764 -209 629 -241 629 -350 c 4
 629 -459 771 -480 884 -481 c 4
 888 -480 895 -479 899 -479 c 4
EndSplineSet
LCarets2: 1 0
EndChar

StartChar: k3th3th4
Encoding: 1114161 -1 166
Width: 2954
GlyphClass: 3
LigCaretCntFixed: 1
Flags: MW
LayerCount: 2
Fore
SplineSet
1502 280 m 0
 1502 360 1398 379 1304 382 c 1
 1271 382 l 1
 1235 383 1203 414 1203 450 c 0
 1203 486 1230 517 1261 522 c 1
 1289 522 l 1
 1400 539 1470 581 1470 675 c 0
 1470 787 1349 878 1233 878 c 0
 1003 878 940 697 923 468 c 4
 904 209 797 -21 524 -21 c 4
 257 -21 100 219 100 471 c 4
 100 708 212 889 357 997 c 4
 369 1006 383 1011 401 1011 c 4
 439 1011 469 976 469 937 c 4
 469 916 459 898 440 884 c 4
 333 805 239 652 239 479 c 4
 239 288 356 118 526 118 c 4
 715 118 764 282 778 476 c 4
 799 773 928 1019 1220 1019 c 0
 1424 1019 1610 878 1610 675 c 0
 1610 598 1578 525 1523 475 c 1
 1584 438 1641 373 1641 279 c 0
 1641 225 1622 182 1587 139 c 1
 1732 174 1879 280 1879 437 c 2
 1879 930 l 2
 1879 967 1913 999 1950 999 c 0
 1988 999 2021 967 2021 929 c 2
 2021 432 l 1
 2040 265 2189 128 2362 128 c 0
 2564 128 2713 284 2713 489 c 0
 2713 695 2545 881 2345 881 c 0
 2314 881 2290 875 2256 875 c 0
 2228 875 2198 913 2198 943 c 0
 2198 979 2226 1021 2257 1021 c 0
 2609 1021 2855 835 2855 497 c 0
 2855 193 2620 -12 2358 -12 c 0
 2178 -12 2021 95 1943 228 c 1
 1852 88 1696 -15 1459 -15 c 0
 1352 -15 1244 11 1133 63 c 0
 1132 63 1131 64 1131 64 c 1
 1131 66 1127 66 1121 69 c 0
 1105 76 1090 107 1090 133 c 0
 1090 163 1123 198 1153 198 c 0
 1168 198 1178 196 1184 193 c 0
 1226 174 1273 165 1316 165 c 0
 1394 165 1502 202 1502 280 c 0
EndSplineSet
LCarets2: 4 1 2979 0 0
EndChar

StartChar: k3n1
Encoding: 1114164 -1 169
Width: 2397
GlyphClass: 3
LigCaretCntFixed: 1
Flags: MW
LayerCount: 2
Fore
SplineSet
1802 888 m 4
 1638 888 1526 783 1496 640 c 5
 1496 38 l 6
 1496 2 1465 -30 1431 -30 c 4
 1385 -30 1356 -2 1356 38 c 6
 1356 526 l 5
 1355 678 1320 783 1251 842 c 4
 1216 872 1179 884 1143 884 c 4
 1032 884 957 777 957 663 c 4
 957 609 990 435 990 357 c 4
 990 131 814 -35 585 -35 c 4
 292 -35 100 222 100 497 c 4
 100 731 217 910 358 1016 c 4
 371 1025 385 1030 399 1030 c 4
 442 1030 471 997 471 961 c 4
 471 936 461 916 442 902 c 4
 335 822 241 682 241 509 c 4
 241 301 367 105 585 105 c 4
 735 105 850 207 850 361 c 4
 850 476 816 593 816 665 c 4
 816 846 953 1025 1138 1025 c 4
 1287 1025 1384 927 1435 828 c 5
 1512 950 1629 1029 1803 1029 c 4
 2085 1029 2297 789 2297 512 c 4
 2297 247 2124 60 1915 -5 c 4
 1861 -21 1808 -29 1754 -29 c 4
 1689 -29 1631 -19 1631 45 c 4
 1631 75 1661 114 1689 114 c 6
 1710 114 l 5
 1725 112 1740 112 1755 112 c 4
 1983 112 2157 283 2157 508 c 4
 2157 705 2015 888 1802 888 c 4
EndSplineSet
LCarets2: 2 0 2
EndChar

StartChar: k3n1u1
Encoding: 1114165 -1 170
Width: 2504
GlyphClass: 3
LigCaretCntFixed: 1
Flags: MW
LayerCount: 2
Fore
SplineSet
2048 487 m 4
 1944 487 1852 410 1852 298 c 4
 1852 199 1935 109 2042 109 c 4
 2140 109 2228 192 2228 297 c 4
 2228 384 2161 487 2048 487 c 4
2234 562 m 5
 2174 732 2032 886 1812 886 c 4
 1704 886 1619 847 1556 767 c 4
 1488 679 1477 597 1477 438 c 6
 1477 42 l 5
 1476 -2 1451 -25 1400 -26 c 4
 1368 -26 1337 9 1337 42 c 6
 1337 505 l 5
 1336 666 1302 778 1234 841 c 4
 1199 874 1162 890 1123 890 c 4
 994 890 942 778 942 628 c 4
 942 617 942 606 943 594 c 4
 943 592 944 585 947 572 c 4
 962 482 970 410 970 354 c 4
 970 143 800 -18 602 -25 c 4
 596 -25 590 -25 584 -25 c 4
 309 -25 100 211 100 497 c 4
 100 732 233 922 387 1021 c 4
 399 1029 413 1033 430 1033 c 4
 468 1033 496 998 496 958 c 4
 496 935 485 917 463 904 c 4
 348 830 240 682 240 499 c 4
 240 291 363 115 572 115 c 4
 719 115 832 222 832 364 c 4
 832 418 799 595 799 618 c 4
 799 623 799 629 799 634 c 4
 799 847 922 1028 1120 1028 c 4
 1258 1028 1370 928 1420 817 c 5
 1500 944 1634 1027 1819 1027 c 4
 2113 1027 2319 792 2383 552 c 4
 2397 498 2404 446 2404 397 c 4
 2404 173 2266 -29 2041 -29 c 4
 1853 -29 1712 115 1712 303 c 4
 1712 485 1863 626 2047 626 c 4
 2114 626 2176 604 2234 562 c 5
EndSplineSet
LCarets2: 1 0
EndChar

StartChar: k3n1u2
Encoding: 1114166 -1 171
Width: 2723
GlyphClass: 3
LigCaretCntFixed: 1
Flags: MW
LayerCount: 2
Fore
SplineSet
2032 105 m 4
 2160 105 2236 235 2236 372 c 4
 2236 401 2233 432 2227 465 c 5
 2187 478 2149 485 2113 485 c 4
 1981 485 1868 397 1868 278 c 4
 1868 183 1943 105 2032 105 c 4
1806 884 m 4
 1631 884 1511 774 1479 618 c 5
 1479 40 l 6
 1479 2 1447 -30 1409 -30 c 4
 1371 -30 1339 2 1339 39 c 6
 1339 494 l 6
 1339 659 1305 773 1237 836 c 4
 1201 869 1162 883 1124 883 c 4
 1014 883 940 778 940 664 c 4
 940 609 972 439 972 362 c 4
 972 140 801 -26 581 -26 c 4
 313 -26 100 205 100 487 c 4
 100 733 232 916 389 1017 c 4
 400 1024 414 1028 431 1028 c 4
 469 1028 497 993 497 953 c 4
 497 930 486 912 464 899 c 4
 348 826 242 679 242 503 c 4
 242 292 375 114 580 114 c 4
 725 114 832 221 832 367 c 4
 832 483 799 595 799 668 c 4
 799 848 937 1023 1117 1023 c 4
 1259 1023 1368 925 1421 815 c 5
 1497 937 1625 1024 1800 1024 c 4
 2085 1024 2275 800 2346 566 c 5
 2502 487 2623 336 2623 114 c 4
 2622 -164 2404 -381 2125 -381 c 4
 2027 -381 1930 -352 1849 -298 c 4
 1828 -284 1817 -266 1817 -244 c 4
 1817 -204 1845 -169 1883 -169 c 4
 1900 -169 1915 -173 1927 -181 c 4
 1989 -223 2056 -241 2121 -241 c 4
 2309 -241 2482 -87 2482 97 c 4
 2482 99 2482 100 2482 102 c 4
 2482 213 2446 303 2376 373 c 5
 2376 372 2376 370 2376 369 c 4
 2376 173 2252 -33 2042 -33 c 4
 1872 -33 1727 98 1727 272 c 4
 1727 479 1897 623 2113 623 c 4
 2133 623 2154 622 2175 619 c 5
 2115 742 1981 884 1806 884 c 4
EndSplineSet
LCarets2: 1 0
EndChar

StartChar: k3m1
Encoding: 1114167 -1 172
Width: 2009
GlyphClass: 3
LigCaretCntFixed: 1
Flags: MW
LayerCount: 2
Fore
SplineSet
1558 665 m 0
 1558 443 1403 246 1268 135 c 1
 1768 135 l 1
 1768 506 l 2
 1768 668 1646 791 1512 846 c 1
 1542 790 1558 729 1558 665 c 0
1305 1026 m 0
 1608 1026 1909 838 1909 569 c 2
 1909 65 l 2
 1909 27 1876 -5 1838 -5 c 2
 1019 -5 l 2
 978 -5 949 30 949 66 c 0
 949 95 973 126 1000 136 c 0
 1154 199 1292 326 1363 470 c 0
 1398 542 1416 600 1416 643 c 0
 1416 644 1416 646 1416 647 c 0
 1416 776 1358 872 1235 872 c 0
 1054 872 999 698 989 512 c 1
 989 460 l 1
 982 308 961 221 889 127 c 0
 825 44 715 -22 577 -22 c 0
 299 -22 100 221 100 498 c 0
 100 741 243 927 412 1016 c 0
 423 1022 435 1025 446 1025 c 0
 483 1025 516 996 516 957 c 0
 516 925 499 903 477 892 c 0
 349 824 240 683 240 498 c 0
 240 297 380 118 578 118 c 0
 769 118 837 268 847 466 c 1
 847 518 l 1
 856 698 887 803 985 901 c 0
 1069 985 1175 1026 1305 1026 c 0
EndSplineSet
LCarets2: 2 0 0
EndChar

StartChar: k3r3
Encoding: 1114170 -1 175
Width: 2273
GlyphClass: 3
Flags: MW
LayerCount: 2
Fore
SplineSet
1284 557 m 2
 1284 833 1406 1023 1681 1023 c 0
 1993 1023 2171 717 2173 419 c 0
 2173 -104 1804 -422 1267 -422 c 6
 1095 -422 l 5
 534 -420 100 -96 100 454 c 0
 100 690 201 876 328 1003 c 0
 342 1017 359 1024 378 1024 c 0
 417 1024 448 993 448 954 c 0
 448 934 441 917 427 904 c 0
 326 805 240 641 240 453 c 0
 240 -24 612 -277 1096 -281 c 5
 1261 -281 l 6
 1698 -281 2033 -32 2033 391 c 0
 2033 645 1921 881 1673 881 c 0
 1496 881 1424 752 1424 557 c 2
 1424 465 l 2
 1424 190 1302 -4 1031 -4 c 0
 746 -4 540 233 540 500 c 0
 540 760 705 952 905 1021 c 0
 913 1024 924 1025 938 1025 c 0
 965 1025 999 989 999 962 c 0
 999 923 978 897 935 882 c 0
 793 837 680 680 680 503 c 0
 680 304 835 137 1034 137 c 0
 1222 137 1284 268 1284 465 c 2
 1284 557 l 2
EndSplineSet
LCarets2: 1 0
EndChar

StartChar: k4r3
Encoding: 1114179 -1 184
Width: 2858
GlyphClass: 3
Flags: MW
LayerCount: 2
Fore
SplineSet
2163 393 m 1
 2163 520 l 2
 2163 746 2085 875 1859 875 c 0
 1695 875 1586 779 1566 639 c 0
 1557 576 1556 453 1556 393 c 1
 2163 393 l 1
1806 -310 m 0
 2163 -310 2262 -312 2330 -312 c 0
 2583 -312 2617 -223 2617 3 c 5
 1484 3 l 2
 1447 3 1414 34 1414 71 c 2
 1414 252 l 1
 948 252 l 2
 912 252 878 280 878 315 c 0
 878 356 904 379 939 390 c 0
 1011 413 1074 510 1074 606 c 0
 1074 729 975 818 848 818 c 0
 720 818 631 720 631 601 c 0
 631 519 682 424 744 399 c 0
 784 384 804 360 804 327 c 0
 804 293 773 257 741 257 c 0
 727 257 716 259 708 262 c 0
 580 313 487 441 487 608 c 0
 487 799 651 960 844 960 c 0
 1052 960 1216 805 1216 596 c 0
 1216 523 1194 452 1152 390 c 1
 1415 390 l 1
 1414 442 1413 490 1413 539 c 0
 1413 828 1581 1015 1868 1015 c 0
 2163 1015 2309 820 2309 517 c 0
 2309 476 2303 377 2303 346 c 2
 2303 319 l 2
 2303 284 2265 258 2234 258 c 2
 1555 258 l 1
 1555 143 l 1
 2618 143 l 1
 2618 938 l 2
 2618 976 2651 1008 2689 1008 c 0
 2719 1008 2759 979 2759 952 c 2
 2759 -37 l 2
 2759 -336 2627 -452 2328 -452 c 0
 2216 -452 2065 -450 1699 -450 c 0
 770 -450 100 -354 100 515 c 0
 100 687 146 845 220 974 c 0
 233 998 251 1010 275 1010 c 0
 316 1010 352 983 352 945 c 0
 352 929 349 916 342 905 c 0
 275 788 241 659 241 520 c 0
 241 -296 938 -310 1806 -310 c 0
EndSplineSet
EndChar

StartChar: ngk1
Encoding: 1114184 -1 189
Width: 1896
GlyphClass: 3
LigCaretCntFixed: 1
Flags: MW
LayerCount: 2
Fore
SplineSet
413 116 m 4
 520 116 607 199 607 302 c 4
 607 365 588 421 588 490 c 5
 493 490 l 5
 362 474 239 414 239 282 c 4
 239 189 321 116 413 116 c 4
1276 511 m 5
 729 511 l 5
 729 318 806 113 999 113 c 4
 1194 113 1276 312 1276 511 c 5
382 882 m 4
 318 882 243 837 243 757 c 4
 243 659 337 640 462 640 c 6
 599 640 l 5
 591 803 519 882 382 882 c 4
1255 644 m 5
 1221 765 1124 884 1001 884 c 4
 870 884 779 770 747 644 c 5
 1255 644 l 5
392 1023 m 4
 529 1023 636 945 691 854 c 5
 749 935 856 1024 989 1024 c 4
 1205 1024 1355 852 1399 650 c 5
 1614 646 1796 528 1796 307 c 4
 1796 129 1644 -25 1461 -25 c 4
 1410 -25 1370 0 1370 47 c 4
 1370 82 1405 116 1446 116 c 4
 1545 116 1653 200 1653 296 c 4
 1653 429 1558 504 1416 510 c 5
 1416 488 l 6
 1416 222 1267 -24 997 -24 c 4
 863 -24 757 54 698 132 c 5
 639 37 545 -25 410 -25 c 4
 247 -25 100 114 100 278 c 4
 100 379 151 478 234 542 c 5
 160 584 103 668 103 761 c 4
 103 916 243 1023 392 1023 c 4
EndSplineSet
LCarets2: 2 0 0
EndChar

StartChar: ngk1u1
Encoding: 1114185 -1 190
Width: 1948
GlyphClass: 3
LigCaretCntFixed: 1
Flags: MW
LayerCount: 2
Fore
SplineSet
608 305 m 4
 608 369 588 426 588 494 c 5
 490 494 l 5
 359 478 240 421 240 287 c 4
 240 193 323 119 416 119 c 4
 522 119 608 202 608 305 c 4
1277 511 m 5
 730 511 l 5
 730 463 734 403 742 368 c 4
 759 253 865 117 1000 117 c 4
 1189 117 1277 320 1277 511 c 5
599 640 m 5
 582 794 536 885 400 885 c 4
 320 885 246 844 246 766 c 4
 246 668 331 640 444 640 c 6
 599 640 l 5
1256 646 m 5
 1222 767 1128 887 1004 887 c 4
 872 887 780 773 747 646 c 5
 1256 646 l 5
1849 173 m 4
 1849 44 1733 -26 1599 -26 c 4
 1528 -26 1446 -2 1446 66 c 4
 1446 96 1479 132 1508 132 c 4
 1529 132 1566 115 1597 115 c 4
 1645 115 1708 137 1708 167 c 4
 1708 217 1610 216 1560 220 c 4
 1529 222 1499 256 1499 290 c 4
 1499 386 1627 344 1683 382 c 4
 1699 392 1707 405 1707 419 c 4
 1707 504 1584 514 1488 514 c 4
 1465 514 1440 514 1416 513 c 5
 1416 505 1417 497 1417 489 c 4
 1417 274 1324 109 1178 26 c 4
 1124 -5 1061 -21 998 -21 c 4
 864 -21 756 58 698 135 c 5
 639 40 546 -21 411 -21 c 4
 247 -21 100 118 100 282 c 4
 100 383 150 482 233 547 c 5
 160 589 104 673 104 765 c 4
 104 920 244 1027 394 1027 c 4
 531 1027 636 948 691 857 c 5
 749 938 856 1027 989 1027 c 4
 1205 1027 1356 857 1399 653 c 5
 1425 654 1451 654 1475 654 c 4
 1670 654 1847 593 1847 419 c 4
 1847 374 1828 329 1791 291 c 5
 1829 255 1849 215 1849 173 c 4
EndSplineSet
LCarets2: 1 0
EndChar

StartChar: ngk1u2
Encoding: 1114186 -1 191
Width: 1970
GlyphClass: 3
LigCaretCntFixed: 1
Flags: MW
LayerCount: 2
Fore
SplineSet
607 307 m 0
 607 371 588 428 588 496 c 1
 494 496 l 1
 362 480 239 422 239 288 c 0
 239 195 321 122 412 122 c 0
 519 122 607 203 607 307 c 0
1276 516 m 1
 729 516 l 1
 729 317 804 118 998 118 c 0
 1182 118 1276 307 1276 493 c 6
 1276 516 l 1
601 686 m 0
 601 798 501 887 399 887 c 0
 319 887 245 845 245 768 c 0
 245 669 331 645 444 642 c 1
 485 642 l 1
 516 645 554 646 599 647 c 1
 598 650 598 653 598 655 c 0
 598 660 601 672 601 686 c 0
1255 649 m 1
 1220 773 1126 889 1000 889 c 0
 877 889 779 774 747 649 c 1
 1255 649 l 1
1575 170 m 0
 1518 170 1483 196 1483 242 c 0
 1483 286 1517 313 1568 313 c 0
 1620 313 1689 350 1689 397 c 0
 1689 481 1593 518 1423 518 c 1
 1423 510 1416 502 1416 494 c 0
 1416 227 1268 -19 996 -19 c 4
 862 -19 756 60 698 137 c 1
 639 42 545 -19 410 -19 c 0
 247 -19 100 120 100 284 c 0
 100 385 151 484 234 548 c 1
 154 593 105 664 105 768 c 0
 105 924 244 1029 393 1029 c 0
 530 1029 636 950 691 859 c 1
 749 940 855 1029 988 1029 c 0
 1204 1029 1354 859 1399 658 c 1
 1473 658 l 2
 1657 658 1829 574 1829 391 c 0
 1829 339 1807 291 1764 246 c 1
 1823 197 1851 145 1851 80 c 0
 1851 -68 1750 -188 1627 -188 c 2
 367 -188 l 1
 310 -212 282 -266 282 -300 c 0
 282 -336 315 -385 377 -405 c 1
 1797 -405 l 2
 1824 -405 1869 -426 1869 -456 c 0
 1869 -494 1837 -526 1799 -526 c 2
 474 -526 l 2
 303 -526 142 -469 142 -301 c 0
 142 -203 220 -118 288 -90 c 0
 372 -55 425 -49 549 -49 c 2
 1480 -49 l 2
 1607 -49 1713 -23 1713 69 c 0
 1713 126 1653 171 1593 171 c 0
 1587 171 1581 170 1575 170 c 0
EndSplineSet
LCarets2: 1 0
EndChar

StartChar: ngk1r1
Encoding: 1114187 -1 192
Width: 1943
GlyphClass: 3
LigCaretCntFixed: 1
Flags: MW
LayerCount: 2
Fore
SplineSet
691 855 m 5
 753 942 859 1025 1000 1025 c 4
 1237 1025 1371 822 1406 625 c 5
 1657 581 1843 398 1843 103 c 4
 1843 -350 1497 -624 1015 -624 c 4
 816 -624 602 -563 602 -354 c 4
 602 -156 802 -72 985 -72 c 4
 1174 -72 1385 -151 1385 -357 c 4
 1385 -380 1380 -401 1375 -420 c 5
 1382 -418 1390 -415 1397 -413 c 4
 1570 -316 1703 -130 1703 103 c 4
 1703 310 1584 437 1417 479 c 5
 1415 227 1268 -23 1000 -23 c 4
 866 -23 762 51 699 132 c 5
 643 41 534 -24 419 -24 c 4
 245 -24 100 113 100 287 c 4
 100 399 162 492 232 546 c 5
 163 587 106 661 106 762 c 4
 106 921 239 1023 395 1023 c 4
 519 1023 634 951 691 855 c 5
1003 885 m 5
 999 885 l 6
 856 885 777 759 747 642 c 5
 1200 639 l 6
 1220 639 1239 639 1259 638 c 5
 1227 759 1148 881 1003 885 c 5
601 676 m 4
 601 790 507 883 394 883 c 6
 393 883 l 6
 315 883 246 838 246 761 c 4
 246 699 295 662 347 648 c 4
 374 641 407 639 445 638 c 6
 469 637 l 5
 511 642 551 643 592 643 c 6
 600 643 l 5
 600 651 l 6
 600 659 601 668 601 676 c 4
729 502 m 5
 729 491 l 6
 729 301 816 117 1000 117 c 4
 1188 117 1277 308 1277 491 c 4
 1277 493 1277 495 1277 497 c 5
 1251 498 1226 499 1199 499 c 6
 729 502 l 5
417 116 m 4
 522 116 608 201 608 308 c 4
 608 316 608 323 607 331 c 4
 595 383 589 437 589 490 c 6
 589 492 l 5
 479 496 l 5
 361 480 240 417 240 288 c 4
 240 193 321 116 417 116 c 4
988 -212 m 6
 987 -212 l 6
 875 -212 742 -243 742 -355 c 4
 742 -416 800 -452 850 -467 c 5
 904 -475 957 -478 1013 -478 c 4
 1122 -478 1244 -463 1244 -358 c 4
 1244 -243 1103 -212 988 -212 c 6
EndSplineSet
LCarets2: 1 0
EndChar

StartChar: ngng
Encoding: 1114188 -1 193
Width: 2566
GlyphClass: 3
LigCaretCntFixed: 1
Flags: MW
LayerCount: 2
Fore
SplineSet
447 124 m 4
 521 124 582 187 582 261 c 4
 582 340 520 401 444 401 c 4
 367 401 299 342 299 259 c 4
 299 180 375 124 447 124 c 4
1033 778 m 5
 935 684 878 554 878 380 c 4
 878 250 935 119 1060 119 c 4
 1180 119 1245 239 1245 365 c 4
 1245 551 1169 676 1033 778 c 5
2116 -21 m 4
 2052 -21 1871 7 1871 91 c 4
 1871 131 1899 168 1936 168 c 4
 1952 168 1971 161 1994 148 c 4
 2023 131 2071 121 2119 121 c 4
 2217 121 2327 166 2327 258 c 4
 2327 346 2241 391 2070 394 c 5
 2035 394 l 5
 1999 395 1966 426 1966 464 c 4
 1966 501 1996 534 2033 534 c 6
 2063 534 l 5
 2199 540 2290 581 2290 691 c 4
 2290 812 2147 881 2023 881 c 4
 1806 881 1721 749 1721 517 c 6
 1721 48 l 6
 1721 13 1694 -22 1660 -22 c 4
 1620 -22 1585 3 1585 46 c 6
 1585 494 l 5
 1583 726 1504 890 1291 890 c 4
 1246 890 1200 880 1155 860 c 5
 1296 739 1386 582 1386 366 c 4
 1386 165 1269 -21 1063 -21 c 4
 849 -21 738 174 738 377 c 4
 738 577 800 729 907 848 c 5
 841 874 777 885 717 885 c 4
 463 885 260 691 242 458 c 5
 298 514 362 542 435 542 c 4
 593 542 722 420 722 264 c 4
 722 122 601 -18 451 -18 c 4
 224 -18 100 203 100 426 c 4
 100 773 389 1025 721 1025 c 4
 819 1025 922 1002 1024 948 c 5
 1108 1002 1194 1028 1282 1028 c 4
 1452 1028 1576 949 1650 828 c 5
 1730 957 1852 1021 2017 1021 c 4
 2233 1021 2428 893 2428 687 c 4
 2428 610 2397 535 2334 480 c 5
 2404 438 2466 364 2466 255 c 4
 2466 79 2292 -21 2116 -21 c 4
EndSplineSet
LCarets2: 2 0 0
EndChar

StartChar: ch1ch1
Encoding: 1114193 -1 198
Width: 1525
GlyphClass: 3
LigCaretCntFixed: 1
Flags: MW
LayerCount: 2
Fore
SplineSet
1285 2 m 1
 1110 2 l 1
 769 -288 l 1
 1285 -288 l 1
 1285 2 l 1
695 745 m 0
 879 745 1036 576 1036 385 c 0
 1036 297 1007 209 951 140 c 1
 1283 140 l 1
 1283 969 l 6
 1283 995 1323 1026 1353 1026 c 4
 1383 1026 1423 997 1423 970 c 6
 1423 -346 l 2
 1423 -383 1393 -416 1356 -416 c 2
 575 -416 l 2
 548 -416 504 -391 504 -360 c 0
 504 -340 512 -323 528 -309 c 2
 892 0 l 1
 121 0 l 2
 95 0 50 38 50 68 c 0
 50 106 82 138 120 138 c 2
 682 138 l 1
 800 153 897 252 897 387 c 0
 897 504 799 605 689 605 c 0
 584 605 501 524 501 414 c 0
 501 367 523 339 523 302 c 0
 523 272 489 239 458 239 c 0
 377 239 359 351 359 418 c 0
 359 597 510 745 695 745 c 0
EndSplineSet
LCarets2: 2 0 0
EndChar

StartChar: ch1ch2
Encoding: 1114196 -1 201
Width: 1715
GlyphClass: 3
LigCaretCntFixed: 1
Flags: MW
LayerCount: 2
Fore
SplineSet
1363 -609 m 0
 1469 -609 1545 -523 1545 -400 c 0
 1545 -320 1511 -250 1444 -191 c 4
 1441 -192 1439 -192 1437 -192 c 5
 1437 -191 l 5
 1323 -191 1193 -291 1193 -404 c 0
 1193 -516 1258 -609 1363 -609 c 0
1037 386 m 0
 1037 289 1007 212 951 143 c 5
 1401 143 l 5
 1401 942 l 6
 1401 975 1439 1003 1466 1003 c 4
 1500 1003 1541 977 1541 948 c 6
 1541 74 l 6
 1541 35 1509 4 1471 4 c 6
 1275 4 l 5
 1494 -18 1666 -183 1666 -403 c 0
 1666 -585 1544 -728 1361 -728 c 0
 1198 -728 1076 -587 1076 -427 c 0
 1076 -287 1147 -174 1253 -115 c 5
 1243 -114 1233 -114 1223 -114 c 0
 1057 -114 912 -249 912 -405 c 0
 912 -497 962 -580 1018 -623 c 4
 1033 -635 1041 -650 1041 -668 c 4
 1041 -703 1015 -731 981 -731 c 6
 113 -731 l 6
 90 -731 52 -692 52 -666 c 4
 52 -640 77 -606 100 -606 c 6
 438 -606 l 5
 516 -601 588 -533 588 -455 c 0
 588 -368 533 -295 451 -295 c 0
 380 -295 318 -350 318 -422 c 0
 318 -446 335 -477 335 -500 c 0
 335 -528 297 -555 279 -555 c 4
 219 -555 198 -495 198 -428 c 0
 198 -283 309 -175 452 -174 c 4
 589 -174 708 -299 708 -442 c 0
 708 -501 690 -560 655 -609 c 5
 849 -609 l 5
 810 -544 791 -479 791 -411 c 0
 791 -177 974 -19 1182 4 c 5
 121 4 l 6
 95 4 50 40 50 70 c 4
 50 108 82 140 120 140 c 6
 680 140 l 5
 800 153 897 257 897 391 c 0
 897 508 800 608 690 608 c 0
 585 608 501 526 501 417 c 0
 501 370 523 342 523 305 c 4
 523 275 488 242 458 242 c 4
 378 242 360 350 360 420 c 0
 360 603 506 750 685 750 c 0
 895 750 1037 574 1037 386 c 0
EndSplineSet
LCarets2: 2 0 0
EndChar

StartChar: ch2u1
Encoding: 1114197 -1 202
Width: 2696
GlyphClass: 3
LigCaretCntFixed: 1
Flags: MW
LayerCount: 2
Fore
SplineSet
1974 140 m 0
 2130 140 2247 276 2247 423 c 0
 2247 553 2195 650 2122 727 c 1
 2113 728 2104 728 2095 728 c 0
 1902 728 1745 589 1745 402 c 0
 1745 261 1835 140 1974 140 c 0
335 -555 m 0
 179 -555 48 -458 48 -333 c 0
 48 -164 224 -116 417 -116 c 0
 459 -116 506 -117 568 -117 c 0
 755 -117 1034 -116 1302 -116 c 0
 1592 -116 1859 -119 2006 -119 c 0
 2281 -119 2505 33 2505 306 c 0
 2505 453 2434 576 2345 642 c 1
 2372 576 2386 511 2386 445 c 0
 2386 203 2222 -4 1984 -4 c 0
 1765 -4 1602 175 1602 400 c 0
 1602 635 1756 788 1933 846 c 1
 1887 860 1841 868 1795 868 c 0
 1574 868 1357 680 1357 438 c 0
 1357 308 1426 186 1505 121 c 0
 1522 107 1530 90 1530 69 c 0
 1530 29 1499 -3 1460 -3 c 2
 125 -3 l 2
 92 -3 54 40 54 67 c 0
 54 102 80 143 110 143 c 2
 682 143 l 1
 793 153 896 257 901 372 c 1
 901 376 l 1
 902 383 903 391 903 398 c 0
 903 499 802 612 698 612 c 0
 686 612 674 608 662 608 c 0
 573 608 504 499 504 413 c 0
 504 377 528 348 528 315 c 0
 528 279 500 244 463 244 c 0
 385 244 363 349 363 418 c 0
 363 606 513 751 696 751 c 0
 897 751 1044 588 1044 388 c 0
 1044 293 1006 204 951 139 c 1
 1305 139 l 1
 1245 232 1215 330 1215 433 c 0
 1215 688 1365 864 1543 949 c 0
 1626 988 1710 1008 1794 1008 c 0
 1960 1008 2085 953 2187 863 c 1
 2438 820 2649 602 2649 314 c 0
 2649 -66 2364 -258 1963 -258 c 0
 1806 -258 1643 -255 1451 -255 c 0
 1156 -255 832 -257 572 -257 c 0
 517 -257 467 -256 416 -256 c 0
 307 -256 190 -258 190 -336 c 4
 190 -370 220 -401 280 -415 c 1
 2563 -415 l 2
 2601 -415 2633 -432 2633 -470 c 0
 2633 -508 2601 -540 2563 -540 c 0
 2243 -542 675 -555 335 -555 c 0
EndSplineSet
LCarets2: 1 0
EndChar

StartChar: ch2u2
Encoding: 1114198 -1 203
Width: 2894
GlyphClass: 3
LigCaretCntFixed: 1
Flags: MW
LayerCount: 2
Fore
SplineSet
2152 706 m 5
 1934 690 1743 568 1743 381 c 4
 1743 254 1844 145 1968 145 c 4
 2127 145 2244 272 2244 456 c 4
 2244 546 2214 629 2152 706 c 5
379 -243 m 5
 279 -246 191 -275 191 -334 c 4
 191 -373 251 -411 282 -411 c 6
 2564 -411 l 6
 2591 -411 2636 -435 2636 -465 c 4
 2636 -503 2604 -535 2566 -535 c 6
 391 -535 l 6
 231 -535 127 -510 77 -425 c 4
 59 -395 50 -364 50 -333 c 4
 50 -303 59 -274 75 -244 c 4
 128 -147 252 -111 427 -111 c 6
 2316 -111 l 5
 2407 -110 2470 -96 2506 -85 c 4
 2580 -61 2658 2 2658 80 c 4
 2658 154 2586 226 2515 226 c 4
 2495 226 2484 222 2460 222 c 4
 2433 222 2402 259 2402 288 c 4
 2402 325 2425 350 2455 360 c 4
 2508 378 2558 437 2558 508 c 4
 2558 632 2452 687 2320 704 c 5
 2355 638 2385 559 2385 456 c 4
 2385 261 2288 121 2155 50 c 4
 2096 18 2035 4 1977 4 c 4
 1776 4 1603 173 1603 380 c 4
 1603 627 1802 773 2004 824 c 5
 1937 857 1867 871 1801 871 c 4
 1563 871 1357 681 1357 448 c 4
 1357 311 1427 193 1507 126 c 4
 1524 112 1533 95 1533 74 c 4
 1533 34 1502 2 1463 2 c 6
 127 2 l 6
 89 2 57 40 57 78 c 4
 57 108 86 148 112 148 c 6
 684 148 l 5
 802 160 905 269 905 388 c 4
 905 509 816 620 695 620 c 4
 584 620 507 517 507 419 c 4
 507 376 530 347 530 313 c 4
 530 283 495 250 465 250 c 4
 386 250 366 357 366 426 c 4
 366 601 502 756 679 756 c 4
 881 756 1043 601 1043 398 c 4
 1043 307 1012 215 953 145 c 5
 1308 145 l 5
 1249 236 1219 336 1219 448 c 4
 1219 761 1483 1011 1803 1011 c 4
 1961 1011 2097 957 2210 849 c 5
 2310 849 2403 838 2457 816 c 4
 2618 750 2698 648 2698 507 c 4
 2698 443 2679 385 2641 333 c 5
 2722 292 2795 191 2795 78 c 4
 2795 40 2788 1 2769 -38 c 4
 2708 -167 2584 -243 2397 -243 c 6
 379 -243 l 5
EndSplineSet
LCarets2: 1 0
EndChar

StartChar: ch2r1
Encoding: 1114199 -1 204
Width: 2891
GlyphClass: 3
LigCaretCntFixed: 1
Flags: MW
LayerCount: 2
Fore
SplineSet
1213 450 m 0
 1213 767 1470 1028 1788 1028 c 0
 1930 1028 2073 970 2172 884 c 1
 2528 867 2791 581 2791 213 c 0
 2791 -300 2353 -611 1841 -611 c 0
 1629 -611 1427 -550 1427 -340 c 0
 1427 -142 1628 -59 1811 -59 c 0
 1999 -59 2210 -138 2210 -344 c 0
 2210 -366 2207 -386 2202 -404 c 1
 2436 -311 2650 -102 2650 214 c 0
 2650 468 2503 647 2305 716 c 1
 2346 640 2378 545 2378 436 c 0
 2378 199 2218 -12 1975 -12 c 0
 1758 -12 1598 175 1598 389 c 0
 1598 619 1770 793 1956 855 c 1
 1903 877 1845 888 1788 888 c 0
 1549 888 1353 689 1353 450 c 0
 1353 325 1409 199 1502 117 c 0
 1515 105 1526 81 1526 64 c 0
 1526 25 1495 -6 1456 -6 c 2
 121 -2 l 1
 120 -2 l 2
 81 -2 50 29 50 68 c 0
 50 107 81 138 120 138 c 2
 121 138 l 1
 657 136 l 2
 784 136 897 254 897 384 c 0
 897 503 806 607 687 607 c 0
 586 607 501 527 501 418 c 0
 501 391 506 364 517 341 c 0
 521 333 523 320 523 311 c 0
 523 272 492 241 453 241 c 0
 379 241 360 352 360 418 c 0
 360 608 511 748 689 748 c 0
 884 748 1037 577 1037 385 c 0
 1037 287 1003 205 945 136 c 1
 1305 134 l 1
 1245 228 1213 338 1213 450 c 0
2238 438 m 0
 2238 901 1738 725 1738 388 c 0
 1738 251 1838 128 1974 128 c 0
 2139 128 2238 274 2238 438 c 0
1813 -199 m 4
 1702 -199 1567 -231 1567 -341 c 0
 1567 -457 1722 -469 1841 -469 c 0
 1947 -469 2070 -445 2070 -345 c 0
 2070 -231 1928 -199 1813 -199 c 4
EndSplineSet
LCarets2: 1 0
EndChar

StartChar: ch3u1
Encoding: 1114200 -1 205
Width: 1847
GlyphClass: 3
LigCaretCntFixed: 1
Flags: MW
LayerCount: 2
Fore
SplineSet
412 301 m 0
 335 301 252 285 252 222 c 0
 252 174 317 145 379 145 c 0
 507 145 613 177 797 279 c 1
 623 299 447 301 412 301 c 0
1127 213 m 0
 1127 157 1164 119 1218 119 c 0
 1261 119 1293 149 1293 192 c 0
 1293 264 1238 299 1166 301 c 1
 1140 271 1127 242 1127 213 c 0
241 698 m 0
 241 623 298 583 363 583 c 0
 407 583 439 643 439 688 c 0
 439 736 397 781 352 781 c 0
 293 781 241 756 241 698 c 0
1388 531 m 1
 1580 521 1748 376 1748 166 c 0
 1748 -134 1470 -253 1146 -253 c 0
 996 -254 515 -258 358 -261 c 0
 298 -262 242 -288 242 -321 c 0
 242 -365 321 -395 383 -395 c 2
 1688 -395 l 2
 1714 -395 1744 -435 1744 -465 c 0
 1744 -495 1714 -535 1688 -535 c 2
 370 -535 l 1
 229 -531 102 -442 102 -325 c 0
 102 -191 227 -122 352 -120 c 0
 486 -118 1016 -113 1144 -113 c 0
 1387 -113 1604 -48 1604 166 c 0
 1604 297 1496 388 1371 388 c 0
 1360 388 1349 387 1338 386 c 1
 1393 345 1433 273 1433 198 c 0
 1433 76 1321 -21 1218 -21 c 0
 1078 -21 988 85 988 214 c 0
 988 225 989 237 990 248 c 1
 833 172 517 5 375 5 c 0
 232 5 113 85 113 223 c 0
 113 383 269 443 422 443 c 0
 558 443 727 402 861 402 c 0
 1058 402 1278 477 1278 676 c 0
 1278 797 1186 881 1073 881 c 0
 943 881 856 798 856 663 c 0
 856 610 858 556 858 530 c 0
 858 483 831 449 788 449 c 0
 758 449 717 476 717 502 c 2
 717 676 l 1
 715 799 614 890 490 890 c 2
 461 890 l 1
 529 850 581 777 581 675 c 0
 581 552 471 441 352 441 c 0
 199 441 100 575 100 705 c 0
 100 882 278 1031 462 1031 c 0
 608 1031 721 974 787 886 c 1
 844 961 944 1024 1067 1024 c 0
 1269 1024 1421 864 1421 678 c 0
 1421 630 1411 580 1388 531 c 1
EndSplineSet
LCarets2: 1 0
EndChar

StartChar: ch3u2
Encoding: 1114201 -1 206
Width: 1970
GlyphClass: 3
LigCaretCntFixed: 1
Flags: MW
LayerCount: 2
Fore
SplineSet
1214 105 m 0
 1260 105 1296 146 1296 193 c 0
 1296 252 1243 287 1178 292 c 1
 1151 256 1137 226 1137 201 c 0
 1137 142 1165 105 1214 105 c 0
381 296 m 0
 314 296 253 270 253 214 c 0
 253 170 310 140 367 140 c 0
 505 140 571 176 728 263 c 1
 659 269 464 296 381 296 c 0
441 675 m 4
 441 731 396 780 339 780 c 4
 283 780 237 734 237 687 c 4
 237 629 287 570 340 570 c 4
 386 570 441 614 441 675 c 4
238 -326 m 0
 238 -382 336 -399 413 -399 c 2
 1730 -399 l 2
 1768 -399 1801 -433 1801 -471 c 0
 1801 -501 1772 -541 1745 -541 c 2
 441 -541 l 2
 305 -541 214 -514 167 -466 c 0
 124 -421 103 -372 103 -325 c 0
 103 -176 252 -125 436 -125 c 2
 1504 -125 l 2
 1623 -125 1729 -86 1729 14 c 0
 1729 54 1693 104 1642 104 c 0
 1608 104 1577 82 1551 82 c 0
 1510 82 1482 108 1482 155 c 0
 1482 201 1531 220 1564 232 c 1
 1597 255 1612 286 1612 318 c 0
 1612 394 1533 452 1453 452 c 0
 1407 452 1357 435 1302 401 c 1
 1374 364 1436 286 1436 189 c 0
 1436 67 1338 -34 1215 -34 c 0
 1091 -34 997 65 997 191 c 0
 997 210 999 230 1004 250 c 1
 830 169 570 -1 375 -1 c 0
 238 -1 112 78 112 213 c 0
 112 360 249 436 387 436 c 0
 508 436 736 395 881 395 c 0
 1121 395 1281 495 1281 656 c 0
 1281 788 1188 877 1074 877 c 0
 944 877 854 787 854 645 c 2
 854 498 l 2
 854 473 818 443 789 443 c 0
 753 443 718 474 718 509 c 2
 718 677 l 1
 715 808 614 883 475 883 c 1
 532 849 584 768 584 674 c 0
 584 540 475 436 347 436 c 0
 203 436 100 555 100 697 c 0
 100 900 272 1023 478 1023 c 0
 622 1023 719 974 787 879 c 1
 848 958 941 1016 1064 1016 c 0
 1259 1016 1421 872 1421 680 c 0
 1421 650 1417 619 1409 587 c 1
 1423 589 1437 589 1451 589 c 0
 1618 589 1751 480 1751 319 c 0
 1751 285 1745 253 1732 223 c 1
 1802 192 1871 115 1871 14 c 0
 1871 -161 1699 -267 1517 -267 c 2
 438 -267 l 2
 354 -267 238 -284 238 -326 c 0
EndSplineSet
LCarets2: 1 0
EndChar

StartChar: ch3r1
Encoding: 1114202 -1 207
Width: 1807
GlyphClass: 3
LigCaretCntFixed: 1
Flags: HMW
LayerCount: 2
Fore
SplineSet
441 675 m 4
 441 731 396 780 339 780 c 4
 283 780 237 734 237 687 c 4
 237 629 287 570 340 570 c 4
 386 570 441 614 441 675 c 4
1273 -352 m 0
 1273 -273 1176 -248 1068 -248 c 0
 967 -248 874 -272 874 -348 c 0
 874 -429 966 -443 1089 -443 c 0
 1185 -443 1273 -425 1273 -352 c 0
251 196 m 0
 251 150 319 123 377 123 c 0
 462 123 579 164 729 246 c 1
 707 248 479 280 404 280 c 0
 326 280 251 254 251 196 c 0
1205 101 m 0
 1250 101 1288 139 1288 186 c 0
 1288 242 1234 280 1164 280 c 1
 1135 254 1120 226 1120 196 c 0
 1120 141 1162 101 1205 101 c 0
100 686 m 0
 100 883 269 1020 470 1020 c 0
 610 1020 708 968 779 879 c 1
 835 965 925 1020 1039 1020 c 0
 1246 1020 1419 865 1419 657 c 0
 1419 583 1396 514 1352 450 c 1
 1545 407 1707 207 1707 -19 c 0
 1707 -336 1465 -585 1139 -585 c 0
 1126 -585 1113 -585 1100 -584 c 0
 889 -584 733 -522 733 -348 c 0
 733 -186 885 -109 1062 -109 c 0
 1251 -109 1408 -177 1413 -347 c 1
 1513 -265 1565 -171 1565 -35 c 0
 1565 103 1501 217 1407 277 c 1
 1422 245 1428 214 1428 183 c 0
 1428 64 1329 -38 1204 -38 c 0
 1089 -38 981 57 981 182 c 0
 981 195 982 210 984 224 c 1
 817 143 563 -17 376 -17 c 0
 237 -17 111 61 111 198 c 0
 111 346 248 419 388 419 c 0
 508 419 736 379 880 379 c 0
 1076 379 1279 470 1279 656 c 0
 1279 783 1169 879 1042 879 c 0
 934 879 864 798 864 680 c 0
 864 623 867 546 867 482 c 0
 867 456 840 422 810 422 c 0
 761 422 729 448 729 489 c 2
 729 604 l 2
 729 766 643 881 478 881 c 0
 465 881 451 880 437 878 c 1
 512 844 580 764 580 657 c 0
 580 524 476 419 346 419 c 0
 199 419 100 547 100 686 c 0
EndSplineSet
LCarets2: 1 0
EndChar

StartChar: ch3ch3
Encoding: 1114203 -1 208
Width: 3075
GlyphClass: 3
LigCaretCntFixed: 1
Flags: HMW
LayerCount: 2
Fore
SplineSet
2833 186 m 0
 2833 242 2788 291 2731 291 c 0
 2675 291 2629 245 2629 198 c 0
 2629 140 2679 81 2732 81 c 0
 2778 81 2833 125 2833 186 c 0
1925 642 m 0
 1925 698 1880 747 1823 747 c 0
 1767 747 1721 701 1721 654 c 0
 1721 596 1771 537 1824 537 c 0
 1870 537 1925 581 1925 642 c 0
474 628 m 0
 474 684 429 733 372 733 c 0
 316 733 270 687 270 640 c 0
 270 582 320 523 373 523 c 0
 419 523 474 567 474 628 c 0
1991 1026 m 0
 2147 1026 2271 980 2343 887 c 1
 2406 965 2512 1020 2621 1020 c 0
 2816 1020 2971 866 2971 673 c 0
 2971 562 2917 460 2842 389 c 1
 2911 355 2976 281 2976 180 c 0
 2976 48 2870 -53 2740 -53 c 0
 2600.16065191 -53 2498 54.535652811 2498 198 c 1
 2319 88 2135 -109 1858 -109 c 0
 1716 -109 1583 -23 1583 122 c 0
 1583 323 1795 367 1983 367 c 0
 2090 367 2194 360 2293 360 c 0
 2542 360 2832 431 2832 673 c 0
 2832 787 2738 880 2623 880 c 0
 2511 880 2410 801 2408 699 c 2
 2404 498 l 2
 2403 461 2371 431 2334 431 c 0
 2295 431 2264 462 2264 501 c 2
 2267 684 l 1
 2256 819 2139 886 1993 886 c 0
 1957 886 1921 882 1888 873 c 1
 1982 839 2062 749 2062 626 c 0
 2062 473.746918236 1943.57283677 382.121809901 1819.21499155 382.121809901 c 0
 1756.91742533 382.121809901 1693.13152504 405.115585326 1642 455 c 1
 1484 71 1096 -104 580 -104 c 0
 364 -104 100 -86 100 140 c 0
 100 296 251 366 401 366 c 0
 561 366 716 339 860 339 c 0
 1099 339 1349 431 1349 669 c 0
 1349 791 1255 891 1132 891 c 0
 1028.11612712 891 912.967171356 807.690675162 915 703 c 2
 919 511 l 0
 919 472 888 441 849 441 c 0
 812 441 781 471 780 508 c 2
 775 689 l 2
 771 824 703 889 563 889 c 0
 519 889 475 883 435 870 c 1
 532 838 619 747 619 623 c 0
 619 487 516 381 380 381 c 0
 221 381 117 514 117 662 c 0
 117 900 339 1029 561 1029 c 0
 697 1029 799 991 860 907 c 1
 920 977 1021 1031 1130 1031 c 0
 1335 1031 1489 870 1489 668 c 0
 1489 338 1171 198 851 198 c 0
 695 198 553 226 407 226 c 0
 334 226 240 210 240 141 c 0
 240 44 391 36 512 36 c 0
 1061 36 1545 201 1559 683 c 1
 1574 899 1772 1026 1991 1026 c 0
1723 122 m 0
 1723 58 1793 31 1859 31 c 0
 2023 31 2162 138 2277 218 c 1
 2172 219 2069 227 1970 227 c 0
 1866 227 1723 219 1723 122 c 0
EndSplineSet
LCarets2: 2 0 0
EndChar

StartChar: ch3ch3u1
Encoding: 1114204 -1 209
Width: 3261
GlyphClass: 3
LigCaretCntFixed: 1
Flags: HMW
LayerCount: 2
Fore
SplineSet
2267 682 m 2
 2269 521 l 2
 2269 482 2238 451 2199 451 c 0
 2162 451 2131 480 2129 517 c 1
 2126 681 l 2
 2125 816 2040 888 1899 892 c 1
 1956 850 1998 776 1998 692 c 0
 1998 553 1887 443 1757 443 c 0
 1697 443 1633 475 1597 509 c 1
 1478 124 1067 -19 579 -19 c 0
 363 -19 111 -10 111 206 c 0
 111 347 244 417 381 417 c 0
 555 417 722 387 874 387 c 0
 1071 387 1278 469 1278 667 c 0
 1278 786 1178 881 1064 881 c 0
 949 881 859 780 850 671 c 1
 856 509 l 1
 856 470 825 439 786 439 c 0
 749 439 718 468 716 505 c 2
 710 670 l 1
 699 806 618 880 472 880 c 0
 470 880 469 880 467 880 c 1
 525 843 581 766 581 674 c 0
 581 539 470 436 343 436 c 0
 201 436 100 558 100 696 c 0
 100 895 277 1020 472 1020 c 0
 615 1020 722 963 785 875 c 1
 848 957 957 1022 1071 1022 c 0
 1266 1022 1418 859 1418 667 c 0
 1418 380 1141 246 865 246 c 0
 694 246 545 277 386 277 c 0
 327 277 251 262 251 206 c 0
 251 130 388 120 507 120 c 0
 955 120 1355 203 1463 548 c 0
 1481 606 1494 699 1522 765 c 1
 1555 920 1700 1032 1887 1032 c 0
 2031 1032 2139 976 2202 887 c 1
 2265 969 2374 1024 2488 1024 c 0
 2685 1024 2834 863 2834 679 c 0
 2834 631 2824 581 2801 531 c 1
 2999 522 3161 376 3161 171 c 0
 3161 -153 2836 -248 2527 -251 c 1
 1826 -255 l 2
 1759 -255 1656 -261 1656 -322 c 0
 1656 -388 1779 -391 1864 -391 c 2
 3089 -393 l 2
 3128 -393 3159 -424 3159 -463 c 0
 3159 -501 3128 -533 3089 -533 c 0
 2675 -530 2260 -532 1846 -531 c 0
 1691 -531 1517 -485 1517 -322 c 0
 1517 -155 1688 -116 1849 -116 c 1
 2526 -111 l 2
 2760 -109 3022 -65 3022 169 c 0
 3022 298 2913 392 2783 392 c 0
 2772 392 2761 391 2750 390 c 1
 2801 353 2845 282 2845 207 c 0
 2845 87 2749 -17 2625 -17 c 0
 2505 -17 2402 79 2402 207 c 0
 2402 221 2403 236 2406 252 c 1
 2227 166 2042 -5 1788 -5 c 0
 1654 -5 1527 74 1527 211 c 0
 1527 361 1669 430 1813 430 c 0
 1983 430 2143 388 2291 388 c 0
 2487 388 2694 484 2694 681 c 0
 2694 799 2594 884 2481 884 c 0
 2366 884 2267 792 2267 683 c 0
 2267 682 l 2
1758 583 m 0
 1816 583 1858 633 1858 692 c 0
 1858 750 1812 799 1758 799 c 0
 1709 799 1656 757 1656 705 c 0
 1656 642 1695 583 1758 583 c 0
441 673 m 0
 441 729 396 777 338 777 c 0
 293 777 240 741 240 697 c 0
 240 634 280 576 344 576 c 0
 395 576 441 618 441 673 c 0
1668 212 m 0
 1668 158 1732 135 1790 135 c 0
 1923 135 2040 214 2144 271 c 1
 2031 282 1931 290 1822 290 c 0
 1754 290 1668 276 1668 212 c 0
2624 122 m 0
 2670 122 2705 161 2705 206 c 0
 2705 262 2659 297 2616 297 c 0
 2578 297 2543 271 2543 208 c 0
 2543 162 2578 122 2624 122 c 0
EndSplineSet
LCarets2: 1 0
EndChar

StartChar: ch3ch3u2
Encoding: 1114205 -1 210
Width: 3377
GlyphClass: 3
LigCaretCntFixed: 1
Flags: HMW
LayerCount: 2
Fore
SplineSet
3188.70996094 -556.947265625 m 0
 2755.63476562 -556.947265625 2322.23925781 -555 1889.31542969 -555 c 0
 1733.53125 -555 1560.25976562 -507.92578125 1560.25976562 -343.677734375 c 0
 1560.25976562 -178.329101562 1732.65527344 -139.861328125 1892.43847656 -139.861328125 c 0
 2230.87988281 -139.861328125 2582.11816406 -143.75 2910.40429688 -143.75 c 0
 3031.84375 -143.75 3186.89355469 -105.1796875 3186.89355469 13.244140625 c 0
 3186.89355469 65.435546875 3146.87011719 105.774414062 3095.671875 105.774414062 c 0
 3060.81445312 105.774414062 3045.1328125 81.7705078125 3009.69921875 81.7705078125 c 0
 2971.05566406 81.7705078125 2939.69238281 113.133789062 2939.69238281 151.77734375 c 0
 2939.69238281 197.958007812 2984.35839844 221.573242188 3021.35351562 233.883789062 c 1
 3047.99609375 252.088867188 3068.97851562 282.810546875 3068.97851562 324.372070312 c 0
 3068.97851562 402.916015625 2991.91113281 451.682617188 2911.68457031 451.682617188 c 0
 2858.12011719 451.682617188 2799.47949219 428.06640625 2759.49023438 403.309570312 c 1
 2829.58203125 367.83203125 2893.37402344 290.58984375 2893.37402344 192.419921875 c 0
 2893.37402344 70.05078125 2796.43164062 -32.0751953125 2672.06738281 -32.0751953125 c 0
 2549.33691406 -32.0751953125 2455.03808594 65.1240234375 2455.03808594 192.065429688 c 0
 2455.03808594 212.61328125 2457.53710938 232.677734375 2461.97851562 251.989257812 c 1
 2276.57714844 168.5 2091.16601562 -18.2802734375 1831.34960938 -18.2802734375 c 0
 1697.65527344 -18.2802734375 1570.55664062 80.83203125 1570.55664062 218.572265625 c 0
 1570.55664062 367.8828125 1712.63574219 437.153320312 1856.45410156 437.153320312 c 0
 2026.60742188 437.153320312 2187.05664062 397.853515625 2334.59863281 397.853515625 c 0
 2531.77246094 397.853515625 2738.13183594 480.293945312 2738.13183594 675.36328125 c 0
 2738.13183594 788.576171875 2646.07324219 878.430664062 2530.33300781 878.430664062 c 0
 2411.8984375 878.430664062 2310.08007812 790.293945312 2310.08007812 681.5859375 c 0
 2310.08007812 679.573242188 2310.11523438 677.552734375 2310.18554688 675.526367188 c 2
 2310.92773438 516.467773438 l 1
 2310.94433594 514.950195312 l 2
 2310.94433594 476.305664062 2279.58105469 444.943359375 2240.93652344 444.943359375 c 0
 2204.296875 444.943359375 2172.97851562 474.637695312 2171.02929688 511.225585938 c 1
 2169.81445312 675.002929688 l 1
 2165.31542969 792 2102.984375 854.640625 1999.69726562 878.290039062 c 1
 2041.2890625 836.205078125 2071.41015625 773.235351562 2071.41015625 705.978515625 c 0
 2071.41015625 572.345703125 1957.84375 461.723632812 1823.16601562 461.723632812 c 0
 1745.61035156 461.723632812 1679.73242188 494.30859375 1631.88476562 547.532226562 c 1
 1554.37792969 91.7294921875 1142.56933594 -36.359375 624.526367188 -36.359375 c 0
 605.639648438 -36.359375 586.323242188 -36.435546875 566.782226562 -36.435546875 c 0
 352.727539062 -36.435546875 111.590820312 -27.3193359375 111.590820312 190.6171875 c 0
 111.590820312 346.252929688 264.259765625 407.659179688 412.744140625 407.659179688 c 0
 530.06640625 407.659179688 645.185546875 398.779296875 755.560546875 398.779296875 c 0
 991.392578125 398.779296875 1279.05957031 448.3046875 1279.05957031 681.55078125 c 0
 1279.05957031 791.444335938 1186.72167969 876.98046875 1074.04003906 876.98046875 c 0
 951.975585938 876.98046875 847 784 851.45703125 670.721679688 c 2
 856.9140625 515.733398438 l 0
 856.931640625 514.147460938 l 0
 856.931640625 475.50390625 825.568359375 444.140625 786.924804688 444.140625 c 0
 750.25 444.140625 718.9296875 473.864257812 717.013671875 510.489257812 c 0
 711.0703125 670.639648438 l 2
 706 810 621.498046875 885.001953125 474.35546875 885.001953125 c 0
 469.416015625 885.001953125 464.487304688 884.895507812 459.576171875 884.690429688 c 1
 524.9609375 846.400390625 579.430664062 774.514648438 579.430664062 675.622070312 c 0
 579.430664062 540.749023438 478.708984375 436.931640625 345.377929688 436.931640625 c 0
 200.700195312 436.931640625 100 557.489257812 100 697.477539062 c 0
 100 899.256835938 273.448242188 1025.05078125 472.122070312 1025.25 c 0
 616.6875 1025.25 723.928710938 968.295898438 786.986328125 878.708007812 c 1
 848.688476562 958.170898438 958.12109375 1017.38964844 1071.61035156 1017.38964844 c 0
 1265.27050781 1017.38964844 1419.05761719 872.119140625 1419.05761719 681.633789062 c 0
 1419.05761719 353.947265625 1069.10351562 258.29296875 751.545898438 258.29296875 c 0
 637.836914062 258.29296875 528.6640625 267.594726562 420.5 267.594726562 c 0
 348.03125 267.594726562 251.622070312 257.752929688 251.622070312 191.466796875 c 0
 251.622070312 113.42578125 369.869140625 101.426757812 482.413085938 101.426757812 c 0
 532.393554688 101.426757812 581.248046875 103.79296875 618.123046875 103.79296875 c 0
 1126.20214844 103.79296875 1419.05761719 205.94921875 1506.375 640.866210938 c 0
 1520.171875 709.587890625 1542.23828125 786.771484375 1595.4375 850.534179688 c 1
 1649.71972656 955.790039062 1768.99023438 1027.79199219 1917.140625 1027.79199219 c 0
 2066.40722656 1027.79199219 2178.80761719 971.5 2244.44335938 880.241210938 c 1
 2305.671875 959.62890625 2414.66015625 1018.87988281 2527.84277344 1018.87988281 c 0
 2725.01953125 1018.87988281 2878.12890625 869.084960938 2878.12890625 675.415039062 c 0
 2878.12890625 645.907226562 2874.13671875 616.876953125 2866.92382812 588.850585938 c 1
 2881.6875 590.662109375 2896.44042969 591.680664062 2911.74707031 591.680664062 c 0
 3068.96386719 591.680664062 3209.19238281 485.330078125 3209.19238281 323.328125 c 0
 3209.19238281 289.857421875 3202.40722656 256.639648438 3189.17382812 225.686523438 c 1
 3265.45898438 191.700195312 3327.01757812 118.473632812 3327.01757812 13.4755859375 c 0
 3327.01757812 -200.065429688 3112.83691406 -283.775390625 2908.00683594 -283.775390625 c 0
 2574.34960938 -283.775390625 2238.54101562 -280.205078125 1897.30957031 -280.205078125 c 2
 1894.31152344 -280.205078125 l 2
 1824.54882812 -280.205078125 1700.27929688 -280.65234375 1700.27929688 -343.306640625 c 0
 1700.27929688 -411.090820312 1815.60839844 -414.888671875 1901.60351562 -414.888671875 c 0
 1912.45605469 -414.888671875 1922.84082031 -414.828125 1932.46777344 -414.828125 c 0
 1933.6015625 -414.828125 1934.72558594 -414.829101562 1935.83789062 -414.831054688 c 2
 3187.84570312 -416.938476562 l 2
 3188.08398438 -416.935546875 3188.47167969 -416.932617188 3188.70996094 -416.932617188 c 0
 3227.35449219 -416.932617188 3258.71679688 -448.295898438 3258.71679688 -486.940429688 c 0
 3258.71679688 -525.583984375 3227.35449219 -556.947265625 3188.70996094 -556.947265625 c 0
1931.40820312 706.200195312 m 0
 1931.40820312 769.009765625 1878.35253906 815.095703125 1813.51660156 815.095703125 c 0
 1769.41699219 815.095703125 1738.4296875 797.234375 1713.58203125 772.559570312 c 1
 1708.02148438 758.361328125 1704.49121094 744.4609375 1704.49121094 726.1875 c 0
 1704.49121094 657.846679688 1757.43652344 601.745117188 1822.41699219 601.745117188 c 0
 1881.15039062 601.745117188 1931.40820312 648.650390625 1931.40820312 706.200195312 c 0
439.08984375 675.37890625 m 0
 439.08984375 734.19140625 395.75 777.630859375 337.0234375 777.630859375 c 0
 285.189453125 777.630859375 259.67578125 746.633789062 241.083984375 712.147460938 c 0
 240.7109375 707.766601562 240.525390625 703.369140625 240.525390625 698.981445312 c 0
 240.525390625 633.953125 280.717773438 576.9453125 345.78125 576.9453125 c 0
 399.2421875 576.9453125 439.08984375 620.543945312 439.08984375 675.37890625 c 0
2185.30078125 264.922851562 m 1
 2071.69433594 276.208984375 1970.32226562 296.9765625 1861.12207031 296.9765625 c 0
 1794.68164062 296.9765625 1710.58789062 281.451171875 1710.58789062 219.337890625 c 0
 1710.58789062 164.081054688 1775.07714844 122.045898438 1833.29101562 122.045898438 c 0
 1965.43164062 122.045898438 2081.14355469 207.837890625 2185.30078125 264.922851562 c 1
2670.68359375 108.01953125 m 0
 2716.83496094 108.01953125 2753.30078125 145.6953125 2753.30078125 191.291992188 c 0
 2753.30078125 255.473632812 2697.84570312 289.716796875 2635.48242188 294.194335938 c 1
 2614.43652344 266.788085938 2595.04199219 234.286132812 2595.04199219 191.844726562 c 0
 2595.04199219 144.73046875 2625.77636719 108.01953125 2670.68359375 108.01953125 c 0
EndSplineSet
LCarets2: 1 0
EndChar

StartChar: ch3ch3r1
Encoding: 1114206 -1 211
Width: 3239
GlyphClass: 3
LigCaretCntFixed: 1
Flags: HMW
LayerCount: 2
Fore
SplineSet
2515 -251 m 0
 2515 -301 2573 -330 2619 -330 c 0
 2695 -330 2787 -280 2838 -242 c 1
 2748 -204 2676 -184 2622 -184 c 0
 2573 -184 2515 -206 2515 -251 c 0
1861 294 m 0
 1793 294 1732 269 1732 212 c 0
 1732 168 1790 138 1847 138 c 0
 1986 138 2053 185 2211 271 c 1
 2139 278 1948 294 1861 294 c 0
2596 228 m 0
 2596 172 2638 131 2684 131 c 0
 2729 131 2767 170 2767 215 c 0
 2767 270.029437872 2715.50568417 303.958730016 2669.03298257 303.958730016 c 0
 2630.81876594 303.958730016 2596 281.016856479 2596 228 c 0
441 672 m 0
 441 728 396 774 339 774 c 0
 282 774 241 732 241 684 c 0
 241 626 293 573 346 573 c 0
 392 573 441 611 441 672 c 0
1917 675 m 0
 1917 732 1863 776 1809 776 c 0
 1764.92239448 776 1712 737.068359375 1712 682 c 0
 1712 616 1767 585 1827 585 c 0
 1883 585 1917 628 1917 675 c 0
870 388 m 0
 1076 388 1281 477 1281 668 c 0
 1281 787 1182 875 1060 875 c 0
 953 875 854 780 854 658 c 2
 854 500 l 2
 854 467 821 439 795 439 c 0
 753 439 719 467 718 506 c 1
 718 674 l 1
 715 805 614 880 475 880 c 1
 532 846 584 765 584 671 c 0
 584 546 468 446 358 434 c 1
 541 434 689 388 870 388 c 0
1064 1013 m 0
 1257 1013 1420 870 1420 680 c 0
 1420 400 1164 246 874 246 c 0
 722 246 539 294 385 294 c 0
 329 294 252 275 252 221 c 0
 252 139.418151176 446.843070821 128.581892616 597.365658042 128.581892616 c 0
 973.997104276 128.581892616 1257.46726178 184.035603835 1389 413 c 0
 1466.89301811 549.312781697 1498.93959452 737.901004237 1613 839 c 1
 1669 952 1791 1032 1957 1032 c 0
 2102 1032 2199 984 2267 888 c 1
 2338 979 2420 1025 2555 1025 c 0
 2747 1025 2899 872 2899 682 c 0
 2899 613 2878 542 2837 480 c 1
 3011 432 3141 270 3141 60 c 0
 3141 -206.161250752 2897.8251153 -469 2628 -469 c 0
 2504 -469 2377 -387 2377 -255 c 0
 2377 -123 2492 -46 2623 -46 c 0
 2710 -46 2816 -75 2939 -134 c 1
 2972 -84 2999 -12 2999 64 c 0
 2999 167 2948 251 2890 298 c 1
 2902 269 2908 239 2908 211 c 0
 2908 92 2808 -9 2684 -9 c 0
 2545 -9 2456 107 2456 225 c 0
 2456 232 2456 239 2457 246 c 1
 2295.85815027 163.555332697 2040.48242188 -2 1858 -2 c 0
 1719 -2 1592 76 1592 213 c 0
 1592 358 1720 427 1862 427 c 0
 1976 427 2180 390 2334 390 c 0
 2527 390 2673 456 2737 586 c 0
 2752 617 2759 648 2759 678 c 0
 2759 799 2666 886 2542 886 c 0
 2422 886 2334 776 2334 673 c 2
 2334 508 l 2
 2334 482 2297 452 2268 452 c 0
 2231 452 2199 482 2198 518 c 1
 2198 686 l 1
 2195 816 2092 893 1956 893 c 0
 1944 893 1932 892 1919 891 c 1
 2000 851 2058 780 2058 672 c 0
 2058 547 1956 445 1831 445 c 0
 1727 445 1649 506 1610 583 c 1
 1605 571 1594 538 1575 485 c 0
 1438.97608724 102.075539711 1121.00805302 -7.48942257972 610.573510709 -7.48942257972 c 0
 372.894961218 -7.48942257972 113 8.43728813559 113 222 c 0
 113 347 239 423 358 434 c 1
 217 437 100 554 100 694 c 0
 100 898 272 1020 478 1020 c 0
 622 1020 719 971 787 876 c 1
 848 955 942 1013 1064 1013 c 0
EndSplineSet
LCarets2: 1 0
EndChar

StartChar: ch3nj
Encoding: 1114207 -1 212
Width: 3950
GlyphClass: 3
LigCaretCntFixed: 1
Flags: MW
LayerCount: 2
Fore
SplineSet
1603 384 m 4
 1603 251 1678 125 1806 125 c 4
 1893 125 1965 200 1965 289 c 4
 1965 399 1868 472 1764 472 c 4
 1716 472 1663 457 1605 428 c 5
 1603 413 1603 398 1603 384 c 4
441 674 m 4
 441 730 396 776 339 776 c 4
 283 776 241 734 241 687 c 4
 241 629 294 575 347 575 c 4
 393 575 441 614 441 674 c 4
3042 137 m 4
 3196 137 3281 293 3281 435 c 4
 3281 612 3165 750 3047 813 c 5
 2913 744 2803 608 2803 425 c 4
 2803 279 2893 137 3042 137 c 4
870 390 m 4
 1077 390 1281 479 1281 672 c 4
 1281 790 1182 876 1061 876 c 4
 943 876 854 772 854 673 c 6
 854 498 l 6
 854 472 818 442 789 442 c 4
 751 442 718 472 718 508 c 6
 718 676 l 5
 715 805 615 882 479 882 c 5
 536 848 584 767 584 673 c 4
 584 549 485 448 376 436 c 5
 559 436 689 390 870 390 c 4
254 220 m 4
 254 122 543 122 649 122 c 4
 1135 122 1208 334 1479 517 c 5
 1539 763 1731 1016 2014 1016 c 4
 2183 1016 2330 893 2395 771 c 4
 2396 769 2397 768 2397 767 c 5
 2474 904 2620 1008 2824 1008 c 4
 2906 1008 2978 994 3048 967 c 5
 3122 994 3195 1007 3266 1007 c 4
 3580 1007 3851 772 3851 455 c 4
 3851 246 3735 90 3595 6 c 4
 3584 -1 3570 -4 3554 -4 c 4
 3524 -4 3488 28 3488 57 c 4
 3488 95 3501 114 3530 131 c 4
 3621 185 3709 309 3709 457 c 4
 3709 694 3500 866 3273 866 c 4
 3256 866 3238 865 3220 863 c 5
 3221 863 3222 862 3223 861 c 4
 3330 772 3421 618 3421 434 c 4
 3421 202 3277 -1 3038 -1 c 4
 2899 -1 2788 86 2731 177 c 4
 2689 244 2662 330 2662 426 c 4
 2662 624 2761 771 2874 866 c 5
 2857 868 2841 869 2825 869 c 4
 2634 869 2502 749 2468 593 c 5
 2468 67 l 6
 2468 29 2436 -2 2398 -2 c 4
 2360 -2 2328 29 2328 67 c 6
 2328 409 l 6
 2328 609 2297 728 2176 810 c 4
 2127 844 2073 876 2017 876 c 4
 1837 876 1725 746 1655 596 c 5
 1694 606 1731 610 1767 610 c 4
 1946 610 2105 479 2105 291 c 4
 2105 114 1976 -16 1798 -16 c 4
 1607 -16 1483 161 1466 328 c 5
 1258 138 1057 -18 676 -18 c 4
 431 -18 113 -16 113 224 c 4
 113 349 223 424 342 435 c 5
 201 438 101 556 101 696 c 4
 101 900 272 1022 478 1022 c 4
 622 1022 719 973 787 878 c 5
 848 957 942 1015 1064 1015 c 4
 1257 1015 1420 872 1420 682 c 4
 1420 401 1163 248 870 248 c 4
 720 248 535 296 384 296 c 5
 384 296 l 5
 319 296 254 276 254 220 c 4
EndSplineSet
LCarets2: 2 0 0
EndChar

StartChar: ch3r3
Encoding: 1114208 -1 213
Width: 2116
GlyphClass: 3
Flags: MW
LayerCount: 2
Fore
SplineSet
1588 106 m 4
 1635 106 1670 146 1670 192 c 4
 1670 251 1612 286 1559 290 c 5
 1530 263 1508 226 1508 190 c 4
 1508 146 1544 106 1588 106 c 4
1105 258 m 5
 1048 263 840 291 775 291 c 4
 704 291 628 269 628 210 c 4
 628 164 689 127 744 127 c 4
 880 127 954 174 1105 258 c 5
715 771 m 4
 665 771 617 739 617 678 c 4
 617 618 671 571 725 571 c 4
 777 571 818 615 818 669 c 4
 818 732 769 771 715 771 c 4
1376 242 m 5
 1199 166 942 -14 753 -14 c 4
 616 -14 489 74 489 209 c 4
 489 214 490 219 490 224 c 4
 500 366 627 430 784 430 c 4
 949 430 1105 391 1271 391 c 4
 1464 391 1657 490 1657 667 c 6
 1657 672 l 5
 1656 791 1560 876 1441 876 c 4
 1306 876 1231 800 1231 679 c 6
 1231 508 l 6
 1231 469 1206 438 1161 438 c 4
 1127 438 1097 471 1095 504 c 5
 1095 662 l 5
 1089 801 1032 882 893 882 c 4
 876 882 858 880 838 878 c 5
 895 844 961 764 961 670 c 4
 961 523 841 431 722 431 c 4
 583 431 477 551 477 689 c 4
 477 884 643 1021 849 1021 c 4
 990 1021 1126 962 1164 856 c 5
 1206 944 1318 1018 1440 1018 c 4
 1632 1018 1797 870 1797 681 c 4
 1797 598 1775 525 1732 463 c 5
 1885 434 2016 286 2016 108 c 4
 2016 -274 1664 -390 1257 -391 c 5
 974 -391 l 6
 428 -391 100 -80 100 440 c 4
 100 631 162 840 274 997 c 4
 288 1017 306 1027 328 1027 c 4
 368 1027 402 998 402 960 c 4
 402 943 397 928 388 916 c 4
 293 784 240 604 240 442 c 4
 240 -6 526 -252 973 -252 c 6
 1255 -252 l 5
 1575 -251 1875 -182 1875 99 c 4
 1875 185 1812 294 1758 306 c 5
 1802 254 1810 221 1810 189 c 4
 1810 70 1714 -34 1589 -34 c 4
 1467 -34 1368 65 1368 184 c 4
 1368 203 1371 222 1376 242 c 5
EndSplineSet
EndChar

StartChar: njch1
Encoding: 1114215 -1 220
Width: 2734
GlyphClass: 3
LigCaretCntFixed: 1
Flags: HMW
LayerCount: 2
Fore
SplineSet
1653 985 m 1
 1714.12028276 1019.47810822 1776.26464844 1030.72167969 1836.63476562 1030.72167969 c 0
 2081.39550781 1030.72167969 2297 784.155822431 2297 549 c 0
 2297 367 2195 222 2082 140 c 1
 2494 141 l 1
 2494 954 l 2
 2494 992 2525 1024 2564 1024 c 0
 2603 1024 2634 993 2634 954 c 2
 2634 72 l 2
 2634 34 2603 2 2565 2 c 2
 1447 -3 l 1
 1411 -1 1382 31 1382 67 c 0
 1382 105 1413 137 1451 137 c 2
 1604 138 l 2
 1882 140 2156 257 2156 549 c 0
 2156 731 2017 870 1855 895 c 1
 1913 834 1964 742 1964 632 c 0
 1964 461 1839 312 1668 312 c 0
 1495 312 1367 465 1367 639 c 0
 1367 744 1414 836 1467 896 c 1
 1244 875 1167 711 1167 465 c 2
 1167 45 l 2
 1167 7 1135 -24 1097 -24 c 0
 1059 -24 1028 6 1027 44 c 1
 1027 45 l 1
 1025 458 l 2
 1023 713 932 887 680 887 c 0
 436 887 240 686 240 441 c 0
 240 439 240 437 240 435 c 1
 288 542 401 627 539 627 c 0
 722 627 861 474 861 305 c 0
 861 116 702 -24 512 -24 c 0
 258 -24 100 200 100 438 c 0
 100 763 355 1025 681 1025 c 0
 869 1025 1018 930 1093 803 c 1
 1156.2332744 918.205828705 1316.09995581 1027.44601946 1482.96179697 1027.44601946 c 0
 1540.01787888 1027.44601946 1597.89183679 1014.67362634 1653 985 c 1
1668 452 m 0
 1763 452 1823 538 1823 633 c 0
 1823 752 1741 829 1655 867 c 1
 1580 831 1507 751 1507 644 c 0
 1507 544 1571 452 1668 452 c 0
515 114 m 0
 628 114 721 196 721 306 c 0
 721 401 644 487 539 487 c 0
 430 487 352 394 352 296 c 0
 352 210.261371371 428.895312781 114 515 114 c 0
EndSplineSet
LCarets2: 2 0 0
EndChar

StartChar: njch3
Encoding: 1114219 -1 224
Width: 2807
GlyphClass: 3
LigCaretCntFixed: 1
Flags: MW
LayerCount: 2
Fore
SplineSet
2496 -27 m 0
 2364 -27 2259 60 2259 178 c 0
 2259 187 2260 197 2261 206 c 1
 2099 117 1856 -46 1667 -46 c 0
 1526 -46 1381 34 1381 176 c 0
 1381 359 1557 401 1732 401 c 0
 1854 401 1997 379 2122 379 c 0
 2340 379 2561 454 2561 667 c 0
 2561 793 2468 888 2340 888 c 0
 2194 888 2138 799 2136 641 c 1
 2136 492 l 1
 2135 455 2102 424 2064 424 c 0
 2026 424 1994 456 1994 494 c 2
 1994 639 l 2
 1994 799 1956 889 1795 889 c 1
 1843 829 1869 755 1869 680 c 0
 1869 537 1767 404 1622 404 c 0
 1461 404 1370 546 1370 680 c 0
 1370 752 1393 826 1441 886 c 1
 1237 853 1162 676 1162 426 c 2
 1162 47 l 2
 1162 9 1130 -23 1092 -23 c 0
 1055 -23 1022 9 1022 46 c 2
 1022 422 l 1
 1020 693 920 887 667 887 c 0
 441 887 241 688 241 466 c 0
 241 465 241 464 241 463 c 1
 291 573 397 623 483 623 c 0
 664 623 812 469 812 293 c 0
 812 116 660 -28 492 -28 c 0
 259 -28 100 192 100 438 c 0
 100 757 330 1026 652 1026 c 0
 860 1026 1002 938 1088 784 c 1
 1088 785 l 1
 1149 910 1301 1028 1485 1028 c 0
 1529 1028 1580 1015 1621 992 c 1
 1658 1019 1715 1031 1760 1031 c 0
 1890 1031 2006 973 2068 890 c 1
 2123 969 2217 1030 2336 1030 c 0
 2542 1030 2703 871 2703 667 c 0
 2703 549 2657 463 2569 384 c 1
 2569 383 l 1
 2640 355 2707 275 2707 176 c 0
 2707 51 2619 -27 2496 -27 c 0
1614 543 m 0
 1683 543 1730 605 1730 674 c 0
 1730 757 1691 817 1620 857 c 1
 1569 829 1505 760 1505 685 c 0
 1505 612 1555 543 1614 543 c 0
673 290 m 0
 673 390 589 485 486 485 c 0
 372 485 291 383 291 289 c 0
 291 193 389 108 490 108 c 0
 583 108 673 191 673 290 c 0
2492 92 m 0
 2530 92 2580 122 2580 179 c 0
 2580 224 2537 265 2485 265 c 0
 2438 265 2399 232 2399 178 c 0
 2399 128 2447 92 2492 92 c 0
2062 243 m 1
 2014 246 1824 261 1705 261 c 0
 1613 261 1520 241 1520 174 c 0
 1520 122 1603 94 1670 94 c 0
 1803 94 1893 139 2062 243 c 1
EndSplineSet
LCarets2: 2 0 0
EndChar

StartChar: njch3u1
Encoding: 1114220 -1 225
Width: 3088
GlyphClass: 3
LigCaretCntFixed: 1
Flags: MW
LayerCount: 2
Fore
SplineSet
2427 142 m 4
 2427 96 2455 66 2502 66 c 4
 2549 66 2580 109 2580 154 c 4
 2580 206 2540 239 2497 252 c 5
 2451 220 2427 186 2427 142 c 4
1534 174 m 4
 1534 126 1596 91 1658 91 c 4
 1797 91 1864 132 2038 240 c 5
 1962 244 1767 263 1678 263 c 4
 1603 263 1534 237 1534 174 c 4
495 106 m 4
 606 106 674 210 674 289 c 4
 674 396 589 482 483 482 c 4
 382 482 292 400 292 302 c 4
 292 190 371 106 495 106 c 4
1616 542 m 4
 1675 542 1730 598 1730 669 c 4
 1730 755 1693 815 1620 856 c 5
 1564 825 1504 750 1504 674 c 4
 1504 612 1558 542 1616 542 c 4
483 622 m 4
 665 622 812 468 812 291 c 4
 812 112 665 -33 485 -33 c 4
 251 -33 101 192 101 440 c 4
 101 716 263 909 468 988 c 4
 532 1013 596 1026 659 1026 c 4
 863 1026 1003 933 1088 782 c 5
 1088 784 l 5
 1150 912 1299 1029 1488 1029 c 4
 1532 1029 1577 1023 1621 1008 c 5
 1668 1024 1715 1030 1760 1030 c 4
 1890 1030 2006 971 2068 888 c 5
 2123 967 2217 1029 2336 1029 c 4
 2535 1029 2704 875 2704 681 c 4
 2704 585 2674 508 2624 442 c 5
 2639 444 2653 444 2667 444 c 4
 2870 444 3039 299 3039 99 c 4
 3039 12 3004 -71 2948 -129 c 4
 2818 -265 2668 -294 2406 -294 c 6
 1713 -294 l 5
 1618 -295 1536 -315 1536 -364 c 0
 1536 -431 1653 -434 1728 -434 c 6
 2968 -434 l 6
 2995 -434 3039 -476 3039 -506 c 4
 3039 -536 3010 -576 2983 -576 c 6
 1717 -576 l 6
 1592 -576 1507 -549 1460 -500 c 4
 1418 -456 1396 -407 1396 -360 c 4
 1396 -207 1549 -160 1741 -160 c 6
 2405 -160 l 5
 2668 -158 2898 -104 2898 100 c 4
 2898 217 2792 304 2675 304 c 5
 2675 302 l 5
 2711 260 2721 208 2721 157 c 4
 2721 38 2623 -75 2501 -75 c 4
 2388 -75 2286 19 2286 141 c 4
 2286 168 2291 195 2302 224 c 5
 2242 198 2081 101 2033 72 c 4
 1892 -10 1769 -50 1666 -50 c 4
 1527 -50 1393 33 1393 173 c 4
 1393 323 1529 403 1694 403 c 4
 1788 403 1992 378 2121 378 c 4
 2320 378 2456 428 2531 556 c 4
 2553 593 2564 632 2564 671 c 4
 2564 793 2460 887 2339 887 c 4
 2212 887 2136 789 2136 648 c 6
 2136 490 l 5
 2135 456 2102 422 2068 422 c 4
 2023 422 1994 453 1994 492 c 6
 1994 665 l 6
 1994 788 1918 888 1795 888 c 5
 1843 828 1869 753 1869 678 c 4
 1869 535 1765 402 1621 402 c 4
 1472 402 1367 524 1367 673 c 4
 1367 763 1393 823 1441 884 c 5
 1287 860 1162 736 1162 582 c 6
 1162 46 l 6
 1162 11 1130 -24 1096 -24 c 4
 1052 -24 1022 6 1022 44 c 6
 1022 420 l 5
 1021 568 1011 647 953 736 c 4
 893 828 787 886 666 886 c 4
 440 886 288 727 249 526 c 5
 312 589 397 622 483 622 c 4
EndSplineSet
LCarets2: 1 0
EndChar

StartChar: njch3u2
Encoding: 1114221 -1 226
Width: 3182
GlyphClass: 3
LigCaretCntFixed: 1
Flags: MW
LayerCount: 2
Fore
SplineSet
2511 247 m 0
 2475 247 2431 161 2431 126 c 0
 2431 89 2471 57 2507 57 c 0
 2552 57 2586 102 2586 149 c 0
 2586 186 2547 247 2511 247 c 0
1534 176 m 0
 1534 126 1594 92 1658 92 c 0
 1678 92 1700 94 1726 98 c 0
 1792 107 1895 154 2036 241 c 1
 1961 245 1766 264 1678 264 c 0
 1604 264 1534 238 1534 176 c 0
495 108 m 0
 606 108 674 212 674 290 c 0
 674 397 589 483 483 483 c 0
 382 483 293 402 293 304 c 0
 293 191 369 108 495 108 c 0
1618 544 m 0
 1679 544 1730 606 1730 673 c 0
 1730 758 1692 817 1620 857 c 1
 1564 825 1505 751 1505 675 c 0
 1505 612 1556 544 1618 544 c 0
483 623 m 0
 665 623 812 470 812 293 c 0
 812 114 666 -32 486 -32 c 0
 252 -32 101 194 101 442 c 0
 101 718 263 911 468 990 c 0
 532 1015 596 1027 659 1027 c 0
 863 1027 1003 935 1088 784 c 1
 1157 923 1300 1029 1492 1029 c 0
 1537 1029 1579 1023 1621 1009 c 1
 1668 1025 1715 1032 1760 1032 c 0
 1890 1032 2006 973 2068 890 c 1
 2123 969 2217 1030 2336 1030 c 0
 2540 1030 2703 873 2703 672 c 0
 2703 599 2685 543 2652 485 c 1
 2688 494 2722 499 2754 499 c 0
 2899 499 3027 391 3027 250 c 0
 3027 212 3017 173 2994 135 c 1
 3054 91 3083 42 3083 -44 c 0
 3083 -221 2906 -293 2709 -293 c 2
 1713 -293 l 2
 1619 -294 1537 -313 1537 -361 c 0
 1537 -428 1650 -432 1727 -432 c 2
 2968 -432 l 2
 3006 -432 3039 -466 3039 -504 c 0
 3039 -534 3010 -574 2983 -574 c 2
 1717 -574 l 2
 1533 -574 1397 -508 1397 -358 c 4
 1397 -206 1550 -158 1741 -158 c 2
 2724 -158 l 2
 2832 -158 2944 -121 2944 -43 c 0
 2944 -3 2913 37 2872 37 c 0
 2859 37 2848 34 2833 34 c 0
 2809 34 2775 70 2775 96 c 0
 2775 186 2886 161 2886 253 c 0
 2886 318 2819 359 2753 359 c 0
 2719 359 2680 350 2638 331 c 1
 2697 281 2726 223 2726 155 c 0
 2726 26 2633 -82 2506 -82 c 0
 2384 -82 2294 4 2294 130 c 0
 2294 163 2301 197 2317 232 c 1
 2255 207 2081 104 2032 75 c 0
 1890 -7 1767 -49 1664 -49 c 0
 1526 -49 1393 36 1393 174 c 0
 1393 328 1532 404 1702 404 c 0
 1793 404 2000 381 2145 381 c 0
 2352 381 2492 456 2546 588 c 0
 2558 618 2565 647 2565 675 c 0
 2565 795 2460 888 2340 888 c 0
 2213 888 2136 790 2136 649 c 2
 2136 492 l 1
 2135 455 2102 424 2064 424 c 0
 2026 424 1994 456 1994 494 c 2
 1994 666 l 2
 1994 797 1921 877 1795 889 c 1
 1843 829 1870 754 1870 679 c 0
 1870 536 1766 404 1622 404 c 0
 1469 404 1366 536 1366 679 c 0
 1366 766 1395 827 1441 886 c 1
 1287 862 1162 737 1162 583 c 2
 1162 47 l 2
 1162 9 1130 -23 1092 -23 c 0
 1055 -23 1022 9 1022 46 c 2
 1022 422 l 1
 1021 570 1011 648 953 737 c 0
 893 829 788 887 667 887 c 0
 440 887 288 728 249 527 c 1
 312 590 397 623 483 623 c 0
EndSplineSet
LCarets2: 1 0
EndChar

StartChar: njnj
Encoding: 1114222 -1 227
Width: 3824
GlyphClass: 3
LigCaretCntFixed: 1
Flags: MW
LayerCount: 2
Fore
SplineSet
650 291 m 0
 650 398 555 484 460 484 c 0
 352 484 263 401 263 293 c 0
 263 191 363 107 456 107 c 0
 559 107 650 185 650 291 c 0
2922 820 m 1
 2791 737 2692 589 2692 391 c 0
 2692 253 2774 106 2914 106 c 0
 3059 106 3144 247 3144 395 c 0
 3144 592 3060 732 2922 820 c 1
1668 831 m 1
 1539 754 1436 608 1436 406 c 0
 1436 260 1512 112 1659 112 c 0
 1802 112 1889 259 1889 399 c 0
 1889 601 1808 746 1668 831 c 1
647 1026 m 0
 833 1026 972 927 1044 792 c 1
 1123 932 1277 1027 1454 1027 c 0
 1523 1027 1595 1013 1668 981 c 1
 1742 1013 1816 1029 1887 1029 c 0
 2074 1029 2214 931 2287 804 c 1
 2359 936 2507 1026 2688 1026 c 0
 2765 1026 2843 1008 2922 971 c 1
 3004 1009 3087 1025 3166 1025 c 0
 3477 1025 3724 777 3724 466 c 0
 3724 235 3586 57 3425 -26 c 0
 3415 -31 3403 -34 3388 -34 c 0
 3360 -34 3326 -3 3326 24 c 0
 3326 62 3341 80 3372 96 c 0
 3485 154 3591 299 3591 470 c 0
 3591 706 3407 893 3170 893 c 0
 3135 893 3099 888 3063 879 c 1
 3194 763 3278 608 3278 401 c 0
 3278 180 3143 -27 2918 -27 c 0
 2694 -27 2561 174 2561 394 c 0
 2561 606 2644 761 2780 880 c 1
 2747 888 2715 892 2684 892 c 0
 2454 892 2359 742 2359 503 c 2
 2359 38 l 2
 2359 1 2336 -28 2300 -28 c 0
 2263 -28 2234 2 2233 38 c 1
 2233 464 l 1
 2228 715 2132 894 1894 894 c 0
 1869 894 1842 892 1815 887 c 1
 1934 782 2021 621 2021 415 c 0
 2021 188 1891 -21 1660 -21 c 0
 1433 -21 1302 185 1302 408 c 0
 1302 616 1384 771 1519 887 c 1
 1497 891 1475 893 1454 893 c 0
 1199 893 1110 711 1107 440 c 1
 1107 44 l 1
 1106 9 1071 -21 1035 -21 c 0
 999 -21 969 9 969 46 c 2
 969 475 l 2
 969 608 964 676 908 760 c 0
 859 832 768 893 655 893 c 0
 443 892 306 720 256 549 c 1
 314 594 379 617 452 617 c 0
 628 617 780 476 780 294 c 0
 780 109 643 -26 451 -26 c 0
 237 -26 100 189 100 403 c 0
 100 724 336 1026 647 1026 c 0
EndSplineSet
LCarets2: 2 0 0
EndChar

StartChar: t1r1
Encoding: 1114227 -1 232
Width: 1153
GlyphClass: 3
LigCaretCntFixed: 1
Flags: MW
LayerCount: 2
Fore
SplineSet
576 1025 m 4
 772 1025 914 957 990 824 c 4
 995 815 1000 799 1000 788 c 4
 1000 749 969 718 930 718 c 4
 907 718 880 735 869 755 c 4
 817 846 715 885 577 885 c 4
 443 885 277 851 277 721 c 4
 277 655 341 601 394 579 c 4
 552 512 747 553 895 460 c 4
 975 410 1053 312 1053 186 c 4
 1053 -77 775 -152 529 -152 c 6
 413 -152 l 6
 262 -152 100 -94 100 68 c 4
 100 210 229 280 366 280 c 6
 509 280 l 5
 654 274 784 206 784 55 c 4
 784 44 783 32 781 20 c 5
 844 46 913 103 913 185 c 4
 913 254 868 313 821 342 c 4
 686 427 510 378 340 450 c 4
 242 491 137 584 137 720 c 4
 137 943 367 1025 576 1025 c 4
377 135 m 6
 316 135 240 128 240 70 c 4
 240 -3 337 -14 431 -14 c 6
 529 -14 l 6
 587 -14 644 -6 644 50 c 4
 644 120 573 132 503 135 c 5
 377 135 l 6
EndSplineSet
LCarets2: 1 0
EndChar

StartChar: t1t1
Encoding: 1114228 -1 233
Width: 1161
GlyphClass: 3
LigCaretCntFixed: 1
Flags: MW
LayerCount: 2
Fore
SplineSet
596 -366 m 4
 744 -366 922 -292 922 -156 c 4
 922 -44 801 -9 663 -4 c 5
 242 -4 l 5
 204 -2 174 39 174 84 c 4
 174 110 206 149 230 149 c 6
 694 149 l 2
 820 149 919 173 919 269 c 4
 919 375 809 421 634 425 c 4
 396 431 150 478 150 713 c 4
 150 899 350 1017 557 1017 c 4
 771 1017 918 933 1014 822 c 4
 1026 809 1031 794 1031 775 c 4
 1031 737 999 706 960 706 c 4
 939 706 922 714 908 731 c 4
 825 827 710 877 562 877 c 4
 437 877 291 824 291 716 c 4
 291 715 l 4
 291 575 468 568 635 565 c 4
 872 560 1058 472 1058 269 c 4
 1058 175 1003 101 946 60 c 5
 1004 16 1062 -62 1062 -160 c 4
 1062 -378 821 -506 599 -506 c 4
 373 -506 213 -407 115 -280 c 4
 105 -267 100 -252 100 -234 c 4
 100 -196 133 -167 173 -167 c 4
 194 -167 212 -176 226 -195 c 4
 312 -307 435 -366 596 -366 c 4
EndSplineSet
LCarets2: 2 0 0
EndChar

StartChar: t1r3
Encoding: 1114231 -1 236
Width: 1444
GlyphClass: 3
Flags: MW
LayerCount: 2
Fore
SplineSet
855 885 m 0
 713 885 563 834 563 728 c 0
 563 599 721 580 870 579 c 0
 1144 575 1345 500 1345 278 c 0
 1345 45 1107 -26 863 -26 c 0
 432 -26 100 185 100 600 c 0
 100 766 164 902 246 1000 c 0
 260 1017 277 1025 298 1025 c 0
 337 1025 370 994 370 956 c 0
 370 938 364 922 353 909 c 0
 291 834 240 728 240 600 c 0
 240 276 516 113 848 113 c 0
 1025 113 1205 142 1205 276 c 0
 1205 389 1090 438 884 438 c 0
 639 439 423 498 423 729 c 0
 423 913 621 1025 858 1025 c 0
 1045 1025 1186 965 1285 836 c 0
 1295 823 1300 808 1300 790 c 0
 1300 752 1266 723 1227 723 c 0
 1206 723 1188 732 1174 751 c 0
 1103 843 997 885 855 885 c 0
EndSplineSet
LCarets2: 1 0
EndChar

StartChar: t3r1
Encoding: 1114238 -1 243
Width: 2477
GlyphClass: 3
UnlinkRmOvrlpSave: 1
Flags: MW
LayerCount: 2
Fore
SplineSet
1491 181 m 1
 1439 77 1340 -21 1198 -21 c 0
 962 -21 874 203 874 440 c 2
 874 531 l 2
 874 742 788 893 588 893 c 0
 374 893 242 697 242 513 c 0
 242 287 430 128 622 119 c 0
 659 118 690 86 690 49 c 0
 690 10 659 -21 620 -21 c 1
 355 -9 100 207 100 519 c 0
 100 771 293 1035 592 1035 c 0
 850 1035 1019 815 1019 543 c 0
 1019 489 1015 437 1015 389 c 0
 1015 260 1071 119 1198 119 c 0
 1381 119 1407 349 1407 535 c 2
 1407 971 l 1
 1408 1009 1442 1040 1480 1040 c 0
 1518 1040 1549 1008 1549 970 c 2
 1549 523 l 2
 1549 290 1652 117 1873 117 c 4
 2094 117 2236 316 2236 505 c 0
 2236 737 2036 899 1836 899 c 0
 1814 899 1792 893 1770 893 c 0
 1731 893 1700 924 1700 963 c 0
 1700 1030 1771 1039 1839 1039 c 0
 2113 1039 2377 819 2377 499 c 0
 2377 -123 2372 -583 1748 -583 c 0
 1578 -583 1411 -516 1411 -348 c 0
 1411 -181 1578 -106 1747 -106 c 0
 1919 -106 2082 -176 2092 -338 c 1
 2208 -231 2234 -59 2240 142 c 1
 2151 42 2021 -25 1866 -25 c 0
 1712 -25 1569 52 1491 181 c 1
1951 -343 m 0
 1951 -266 1888 -230 1770 -230 c 0
 1631 -230 1553 -267 1553 -351 c 0
 1553 -415 1621 -444 1757 -444 c 0
 1882 -444 1951 -412 1951 -343 c 0
EndSplineSet
EndChar

StartChar: t3t3
Encoding: 1114239 -1 244
Width: 2442
GlyphClass: 3
LigCaretCntFixed: 1
Flags: MW
LayerCount: 2
Fore
SplineSet
1002 -133 m 4
 870 -133 768 -252 768 -376 c 4
 768 -479 865 -605 959 -607 c 4
 1019 -608 1054 -620 1054 -668 c 4
 1054 -694 1029 -728 1006 -728 c 4
 818 -728 647 -574 647 -393 c 4
 647 -183 797 -12 1006 -12 c 4
 1186 -12 1292 -144 1292 -317 c 4
 1292 -344 1289 -376 1289 -403 c 4
 1289 -536 1333 -616 1467 -616 c 4
 1609 -616 1647 -483 1647 -347 c 6
 1647 -76 l 6
 1647 -45 1672 -17 1702 -17 c 4
 1744 -17 1765 -37 1766 -76 c 5
 1766 -392 l 5
 1776 -510 1869 -611 2004 -611 c 4
 2130 -611 2242 -510 2242 -380 c 4
 2242 -229 2128 -137 1979 -137 c 4
 1956 -137 1930 -103 1930 -78 c 4
 1930 -38 1971 -15 2043 -15 c 4
 2208 -15 2358 -206 2358 -375 c 4
 2358 -580 2195 -732 1981 -732 c 4
 1877 -732 1790 -684 1718 -588 c 5
 1663 -682 1567 -735 1465 -735 c 4
 1301 -735 1167 -616 1167 -441 c 6
 1167 -397 l 6
 1167 -367 1175 -342 1175 -287 c 4
 1175 -199 1090 -133 1002 -133 c 4
EndSplineSet
Refer: 69 3361 S 1 0 0 1 0 -1 2
LCarets2: 2 0 0
EndChar

StartChar: t3t4
Encoding: 1114242 -1 247
Width: 2441
GlyphClass: 3
LigCaretCntFixed: 1
Flags: MW
LayerCount: 2
Fore
SplineSet
1857 -423 m 4
 1926 -423 1986 -361 1986 -295 c 4
 1986 -227 1933 -160 1856 -160 c 4
 1851 -160 1847 -161 1842 -161 c 4
 1783 -161 1723 -226 1723 -291 c 4
 1723 -368 1788 -423 1857 -423 c 4
1071 -479 m 4
 1071 -557 1109 -650 1189 -650 c 4
 1286 -649 1336 -550 1336 -352 c 6
 1336 -97 l 5
 1337 -67 1367 -39 1396 -39 c 4
 1439 -39 1460 -59 1460 -99 c 6
 1460 -402 l 6
 1460 -547 1538 -654 1690 -654 c 4
 1808 -654 1889 -610 1954 -523 c 5
 1920 -537 1886 -544 1853 -544 c 4
 1718 -544 1603 -433 1603 -293 c 4
 1603 -160 1712 -38 1843 -38 c 4
 2012 -38 2135 -164 2135 -350 c 4
 2135 -393 2128 -434 2115 -471 c 4
 2060 -637 1900 -775 1686 -775 c 4
 1564 -775 1470 -727 1403 -633 c 5
 1364 -703 1296 -771 1183 -771 c 4
 1029 -771 952 -615 952 -454 c 4
 952 -414 956 -392 956 -344 c 4
 956 -233 867 -149 753 -149 c 4
 610 -149 497 -256 497 -398 c 4
 497 -559 611 -650 768 -650 c 4
 791 -650 817 -684 817 -710 c 4
 817 -743 790 -770 757 -770 c 4
 553 -770 377 -609 377 -403 c 4
 377 -197 538 -30 749 -30 c 4
 944 -30 1075 -160 1075 -362 c 4
 1075 -400 1071 -449 1071 -479 c 4
EndSplineSet
Refer: 69 3361 S 1 0 0 1 -0 0 2
LCarets2: 2 0 0
EndChar

StartChar: t3r3
Encoding: 1114245 -1 250
Width: 3079
GlyphClass: 3
Flags: MW
LayerCount: 2
Fore
SplineSet
1719 -8 m 4
 1458 -8 1340 213 1340 465 c 4
 1340 491 1341 522 1341 547 c 4
 1341 632 1334 690 1322 720 c 4
 1280 824 1183 898 1047 898 c 4
 845 898 680 727 680 528 c 4
 680 329 842 154 1048 154 c 6
 1082 154 l 6
 1109 154 1138 115 1138 85 c 4
 1138 35 1098 14 1047 14 c 4
 762 14 539 245 539 531 c 4
 539 643 574 745 644 836 c 4
 717 931 863 1038 1029 1038 c 4
 1247 1038 1388 928 1447 784 c 4
 1469 731 1480 662 1480 578 c 4
 1480 542 1478 502 1478 470 c 4
 1478 302 1536 133 1703 133 c 4
 1740 133 1777 145 1812 168 c 4
 1919 240 1944 358 1944 560 c 6
 1944 948 l 5
 1945 987 1979 1018 2016 1018 c 4
 2051 1018 2084 986 2084 950 c 6
 2084 498 l 6
 2084 287 2251 126 2462 126 c 4
 2678 126 2839 289 2839 504 c 4
 2839 726 2653 879 2460 879 c 4
 2452 879 2443 879 2435 878 c 5
 2410 878 2359 915 2359 942 c 4
 2359 1006 2404 1018 2464 1018 c 4
 2696 1018 2851 885 2929 720 c 4
 2961 650 2978 579 2978 505 c 4
 2978 497 2977 488 2977 480 c 4
 2979 458 2979 436 2979 414 c 4
 2979 181 2892 -19 2781 -160 c 4
 2602 -390 2381 -478 2034 -478 c 6
 1373 -478 l 6
 1147 -478 972 -467 847 -436 c 4
 534 -361 295 -179 175 92 c 4
 127 200 100 320 100 444 c 4
 100 658 175 833 273 966 c 4
 286 984 304 992 322 992 c 4
 356 992 391 965 391 929 c 4
 391 912 386 899 377 888 c 4
 295 778 230 623 230 444 c 4
 230 222 324 48 440 -72 c 4
 599 -236 823 -352 1112 -352 c 6
 2033 -352 l 5
 2367 -351 2527 -276 2679 -80 c 4
 2722 -25 2757 34 2784 98 c 5
 2690 23 2583 -14 2463 -14 c 4
 2262 -14 2115 92 2030 220 c 5
 1980 111 1861 -8 1719 -8 c 4
EndSplineSet
LCarets2: 1 0
EndChar

StartChar: t4r1
Encoding: 1114250 -1 255
Width: 2704
GlyphClass: 3
LigCaretCntFixed: 1
Flags: MW
LayerCount: 2
Fore
SplineSet
100 500 m 0
 100 784 330 1024 627 1024 c 0
 909 1024 1102 837 1102 552 c 0
 1102 499 1097 441 1097 391 c 0
 1097 254 1154 116 1284 116 c 2
 1285 116 l 2
 1476 116 1498 365 1501 558 c 2
 1508 956 l 2
 1509 993 1540 1024 1578 1024 c 0
 1617 1024 1648 993 1648 954 c 2
 1648 954 l 1
 1646 814 1641 655 1641 514 c 0
 1641 272 1747 110 1987 110 c 0
 2182 110 2333 223 2408 358 c 1
 2350 318 2280 297 2209 297 c 0
 2016 297 1855 456 1855 651 c 0
 1855 846 2014 1023 2212 1023 c 0
 2449 1023 2605 805 2605 570 c 0
 2605 -108 2373 -615 1685 -615 c 0
 1475 -615 1272 -554 1272 -345 c 0
 1272 -147 1473 -64 1656 -64 c 0
 1844 -64 2055 -142 2055 -348 c 0
 2055 -378 2049 -404 2041 -427 c 1
 2249 -344 2376 -77 2432 158 c 1
 2326 50 2169 -30 1986 -30 c 0
 1795 -30 1658 59 1580 183 c 1
 1531 81 1427 -24 1284 -24 c 0
 1071 -24 957 178 957 392 c 0
 957 447 961 495 961 548 c 0
 961 756 834 884 628 884 c 0
 410 884 240 709 240 501 c 0
 240 290 415 114 628 114 c 0
 641 114 655 116 668 116 c 0
 707 116 738 85 738 46 c 0
 738 10 709 -21 673 -24 c 0
 657 -25 642 -26 626 -26 c 0
 338 -26 100 214 100 500 c 0
2208 880 m 0
 2087 880 1995 770 1995 652 c 0
 1995 534 2092 437 2208 437 c 0
 2350 437 2419 545 2419 655 c 0
 2419 767 2347 880 2208 880 c 0
1915 -349 m 0
 1915 -234 1773 -204 1657 -204 c 0
 1545 -204 1412 -235 1412 -346 c 0
 1412 -472 1593 -472 1719 -474 c 1
 1809 -469 1915 -440 1915 -349 c 0
EndSplineSet
LCarets2: 1 0
EndChar

StartChar: nhu1
Encoding: 1114251 -1 256
Width: 2896
GlyphClass: 3
LigCaretCntFixed: 1
Flags: MW
LayerCount: 2
Fore
SplineSet
2244 1020 m 4
 2556 1018 2796 759 2796 450 c 4
 2796 218 2643 -18 2386 -18 c 4
 2188 -18 2039 134 2039 329 c 4
 2039 526 2195 681 2394 681 c 4
 2496 681 2576 641 2634 589 c 5
 2582 746 2438 880 2246 880 c 4
 1984 880 1851 760 1851 497 c 6
 1850 45 l 6
 1849 7 1818 -24 1780 -24 c 4
 1742 -24 1711 7 1710 45 c 5
 1710 487 l 6
 1710 707 1663 883 1448 883 c 4
 1233 883 1185 705 1185 487 c 6
 1186 49 l 5
 1185 11 1154 -21 1116 -21 c 4
 1078 -21 1046 11 1046 49 c 6
 1045 487 l 6
 1045 740 905 880 650 880 c 4
 459 880 318 749 265 594 c 5
 324 644 398 680 498 680 c 4
 700 680 855 524 855 325 c 4
 855 131 706 -21 510 -21 c 4
 252 -21 100 216 100 448 c 4
 100 758 339 1020 652 1020 c 4
 838 1020 1012 915 1102 775 c 5
 1157 897 1276 1023 1447 1023 c 4
 1617 1023 1738 896 1793 774 c 5
 1823 886 1981 1022 2244 1020 c 4
2394 541 m 4
 2274 541 2179 447 2179 329 c 4
 2179 213 2268 122 2386 122 c 4
 2505 122 2611 201 2611 325 c 4
 2611 449 2518 541 2394 541 c 4
715 326 m 4
 715 446 619 539 498 539 c 4
 371 539 278 445 278 319 c 4
 278 201 396 119 510 119 c 4
 627 119 715 210 715 326 c 4
EndSplineSet
LCarets2: 1 0
EndChar

StartChar: nhu2
Encoding: 1114252 -1 257
Width: 3091
GlyphClass: 3
LigCaretCntFixed: 1
Flags: MW
LayerCount: 2
Fore
SplineSet
2484 717 m 5
 2413 811 2299 880 2167 880 c 4
 1964 880 1788 713 1788 509 c 6
 1789 49 l 5
 1788 11 1757 -20 1719 -20 c 4
 1681 -20 1650 11 1649 49 c 6
 1648 508 l 6
 1648 658 1613 782 1520 846 c 4
 1487 869 1451 879 1416 879 c 4
 1243 879 1185 690 1184 519 c 6
 1182 53 l 6
 1181 15 1150 -16 1112 -16 c 4
 1074 -16 1042 15 1042 53 c 6
 1043 444 l 6
 1043 696 894 882 649 882 c 4
 458 882 315 748 263 592 c 5
 319 642 404 683 502 683 c 4
 702 683 857 528 857 330 c 4
 857 136 707 -17 509 -17 c 4
 255 -17 100 221 100 449 c 4
 100 759 338 1022 651 1022 c 4
 832 1022 1004 921 1094 787 c 5
 1144 903 1254 1020 1416 1020 c 4
 1573 1020 1686 906 1737 793 c 5
 1826 925 1991 1020 2166 1020 c 4
 2398 1020 2577 871 2661 694 c 5
 2874 628 3041 436 3041 166 c 4
 3041 -150 2793 -398 2477 -398 c 4
 2336 -398 2200 -347 2101 -260 c 4
 2087 -248 2077 -224 2077 -206 c 4
 2077 -167 2108 -136 2147 -136 c 4
 2162 -136 2182 -144 2193 -154 c 4
 2268 -219 2370 -259 2476 -259 c 4
 2714 -259 2901 -72 2901 167 c 4
 2901 329 2819 449 2715 516 c 5
 2720 485 2721 454 2721 425 c 4
 2721 284 2672 164 2594 85 c 4
 2534 24 2441 -25 2341 -25 c 4
 2164 -25 2034 119 2034 296 c 4
 2034 545 2252 707 2484 717 c 5
2174 296 m 4
 2174 195 2243 116 2343 116 c 4
 2503 116 2581 274 2581 428 c 4
 2581 476 2573 526 2558 574 c 5
 2540 576 2522 578 2505 578 c 4
 2338 578 2174 467 2174 296 c 4
507 123 m 4
 626 123 719 216 719 330 c 4
 719 443 620 543 502 543 c 4
 379 543 283 447 283 327 c 4
 283 211 391 123 507 123 c 4
EndSplineSet
LCarets2: 1 3
EndChar

StartChar: nht1
Encoding: 1114253 -1 258
Width: 2639
GlyphClass: 3
LigCaretCntFixed: 1
Flags: MW
LayerCount: 2
Fore
SplineSet
472 109 m 4
 577 109 650 182 650 290 c 4
 650 390 565 469 479 469 c 4
 361 469 287 378 287 286 c 4
 287 205 368 109 472 109 c 4
2396 756 m 4
 2396 853 2294 889 2190 889 c 4
 1948 889 1767 735 1767 495 c 6
 1767 41 l 6
 1767 3 1737 -28 1699 -28 c 4
 1662 -28 1629 3 1629 40 c 6
 1629 488 l 5
 1628 689 1549 884 1359 884 c 4
 1171 884 1102 680 1102 478 c 6
 1102 44 l 6
 1102 11 1073 -29 1032 -29 c 4
 997 -29 965 18 965 43 c 6
 965 474 l 5
 963 719 845 887 618 887 c 4
 407 887 272 713 244 518 c 5
 305 577 381 609 476 609 c 4
 644 609 788 455 788 287 c 4
 788 116 652 -30 472 -30 c 4
 238 -30 100 197 100 448 c 4
 100 750 306 1027 618 1027 c 4
 811 1027 948 926 1023 796 c 5
 1079 911 1195 1025 1361 1025 c 4
 1532 1025 1650 905 1707 781 c 5
 1707 780 l 5
 1805 944 1966 1029 2194 1029 c 4
 2390 1029 2535 920 2535 764 c 4
 2535 618 2430 547 2269 541 c 5
 2243 541 l 5
 2176 539 2142 526 2142 479 c 4
 2142 420 2205 404 2268 404 c 6
 2305 404 l 6
 2436 404 2539 339 2539 215 c 4
 2539 46 2387 -36 2216 -36 c 4
 2135 -36 2058 -16 1984 25 c 4
 1959 38 1947 56 1947 80 c 4
 1947 121 1974 157 2012 157 c 4
 2028 157 2041 154 2052 147 c 4
 2105 118 2160 104 2217 104 c 4
 2314 104 2400 138 2400 214 c 4
 2400 256 2355 264 2304 264 c 6
 2267 264 l 6
 2105 264 2000 342 2000 488 c 4
 2000 609 2105 674 2241 680 c 5
 2266 680 l 5
 2353 683 2396 709 2396 756 c 4
EndSplineSet
LCarets2: 2 0 0
EndChar

StartChar: nht2
Encoding: 1114256 -1 261
Width: 2595
GlyphClass: 3
LigCaretCntFixed: 1
Flags: MW
LayerCount: 2
Fore
SplineSet
2122 -620 m 0
 2269 -620 2372 -505 2372 -371 c 0
 2372 -252 2282 -121 2127 -121 c 4
 1987 -121 1872 -225 1872 -369 c 0
 1872 -513 1982 -620 2122 -620 c 0
1753 -381 m 0
 1753 -168 1914 -3 2124 -3 c 0
 2125 -3 2126 -3 2127 -3 c 0
 2326 -3 2492 -172 2492 -371 c 0
 2492 -575 2325 -740 2119 -740 c 0
 1928 -740 1753 -575 1753 -381 c 0
EndSplineSet
Refer: 71 3363 N 0.934814 0 0 0.899963 6 8 2
LCarets2: 2 0 0
EndChar

StartChar: nht3
Encoding: 1114257 -1 262
Width: 3824
GlyphClass: 3
LigCaretCntFixed: 1
Flags: MW
LayerCount: 2
Fore
SplineSet
475 111 m 4
 579 111 651 188 651 292 c 4
 651 397 558 471 471 471 c 4
 363 471 287 388 287 277 c 4
 287 188 385 111 475 111 c 4
2822 165 m 5
 2772 58 2675 -38 2537 -38 c 4
 2302 -38 2223 168 2218 405 c 5
 2218 521 l 5
 2213 722 2160 889 2004 889 c 4
 1806 889 1768 655 1768 432 c 6
 1768 37 l 6
 1768 -1 1738 -32 1700 -32 c 4
 1663 -32 1630 -1 1630 36 c 6
 1630 392 l 5
 1628 666 1565 891 1361 891 c 4
 1180 891 1104 701 1104 502 c 6
 1104 38 l 6
 1104 0 1075 -31 1037 -31 c 4
 1000 -31 966 0 966 37 c 6
 966 506 l 5
 954 720 842 888 624 888 c 4
 409 888 273 718 245 520 c 5
 307 580 388 610 469 610 c 4
 642 610 790 461 790 289 c 4
 790 122 651 -29 478 -29 c 4
 237 -29 101 207 101 451 c 4
 101 770 310 1028 625 1028 c 4
 811 1028 951 924 1024 798 c 5
 1080 913 1196 1031 1362 1031 c 4
 1523 1031 1636 921 1693 813 c 5
 1745 918 1861 1028 1995 1028 c 4
 2268 1028 2347 791 2354 524 c 5
 2354 409 l 5
 2358 254 2390 102 2539 102 c 4
 2715 102 2738 321 2738 528 c 6
 2738 961 l 6
 2738 996 2770 1030 2804 1030 c 4
 2849 1030 2878 999 2878 960 c 6
 2878 518 l 6
 2878 283 2967 101 3199 101 c 4
 3422 101 3586 282 3586 493 c 4
 3586 720 3414 891 3186 891 c 4
 3154 891 3127 884 3092 884 c 4
 3064 884 3033 922 3033 952 c 4
 3033 1019 3094 1031 3183 1031 c 4
 3481 1031 3725 802 3725 494 c 4
 3725 197 3493 -38 3197 -38 c 4
 3025 -38 2895 52 2822 165 c 5
EndSplineSet
LCarets2: 2 0 0
EndChar

StartChar: nhnh
Encoding: 1114260 -1 265
Width: 2764
GlyphClass: 3
LigCaretCntFixed: 1
Flags: MW
LayerCount: 2
Fore
SplineSet
1113 -631 m 0
 1178 -631 1226 -580 1226 -517 c 0
 1226 -453 1168 -403 1106 -403 c 0
 1033 -403 987 -459 987 -523 c 0
 987 -588 1046 -631 1113 -631 c 0
2516 -376 m 0
 2516 -253 2411 -126 2275 -126 c 0
 2114 -126 2061 -239 2061 -411 c 0
 2061 -415 2061 -419 2061 -423 c 2
 2062 -691 l 2
 2062 -724 2036 -751 2003 -751 c 0
 1970 -751 1943 -724 1942 -692 c 2
 1940 -426 l 2
 1938 -254 1892 -127 1761 -127 c 0
 1632 -127 1583 -271 1584 -430 c 2
 1585 -691 l 2
 1585 -730 1556 -751 1521 -751 c 0
 1492 -751 1466 -721 1465 -692 c 2
 1463 -430 l 1
 1461 -248 1409 -124 1231 -124 c 0
 1104 -124 1001 -231 968 -327 c 1
 1013 -295 1061 -281 1106 -281 c 0
 1234 -281 1345 -392 1345 -520 c 0
 1345 -649 1244 -750 1113 -750 c 0
 939 -750 831 -610 831 -423 c 0
 831 -211 1008 -2 1226 -2 c 0
 1353 -2 1462 -69 1518 -153 c 1
 1562 -78 1646 -7 1761 -7 c 0
 1875 -7 1957 -76 2002 -150 c 1
 2061 -59 2145 -7 2275 -7 c 0
 2478 -7 2636 -177 2636 -375 c 0
 2636 -573 2474 -748 2269 -748 c 0
 2218 -748 2190 -728 2190 -682 c 0
 2190 -659 2218 -627 2239 -627 c 0
 2401 -627 2516 -534 2516 -376 c 0
EndSplineSet
Refer: 71 3363 N 1 0 0 0.975449 0 25 2
LCarets2: 2 0 0
EndChar

StartChar: nhnhu1
Encoding: 1114261 -1 266
Width: 2764
GlyphClass: 3
LigCaretCntFixed: 1
Flags: MW
LayerCount: 2
Fore
SplineSet
2486 -487 m 0
 2486 -405 2425 -339 2346 -339 c 0
 2262 -339 2201 -405 2201 -482 c 0
 2201 -558 2268 -614 2336 -614 c 0
 2399 -614 2486 -561 2486 -487 c 0
948 -607 m 0
 1026 -607 1088 -549 1088 -473 c 0
 1088 -396 1026 -331 942 -331 c 0
 872 -331 804 -397 804 -470 c 0
 804 -550 875 -607 948 -607 c 0
949 -209 m 0
 1088 -209 1208 -328 1208 -472 c 0
 1208 -615 1100 -725 956 -725 c 0
 776 -725 658 -582 658 -396 c 0
 658 -190 828 -1 1047 -1 c 0
 1193 -1 1307 -76 1371 -168 c 1
 1421 -77 1520 -3 1645 -3 c 0
 1771 -3 1873 -84 1920 -174 c 1
 1987 -79 2100 -7 2250 -7 c 0
 2466 -7 2631 -205 2631 -399 c 0
 2631 -567 2528 -734 2337 -734 c 0
 2189 -734 2075 -618 2082 -467 c 0
 2088 -331 2204 -218 2341 -218 c 0
 2381 -218 2422 -227 2463 -248 c 1
 2416 -178 2338 -129 2245 -129 c 0
 2082 -129 1959 -253 1968 -414 c 1
 1968 -416 l 1
 1967 -678 l 2
 1967 -710 1939 -738 1907 -738 c 0
 1874 -738 1848 -709 1847 -678 c 1
 1847 -424 l 2
 1847 -261 1803 -122 1644 -122 c 0
 1489 -122 1443 -253 1443 -416 c 2
 1443 -676 l 1
 1442 -715 1413 -734 1378 -734 c 0
 1349 -734 1323 -707 1323 -676 c 0
 1323 -581 1322 -485 1322 -391 c 4
 1322 -237 1197 -121 1053 -121 c 0
 950 -121 878 -165 827 -240 c 1
 868 -219 910 -209 949 -209 c 0
EndSplineSet
Refer: 71 3363 N 1 0 0 0.975449 0 25 2
LCarets2: 1 0
EndChar

StartChar: nhnhu2
Encoding: 1114262 -1 267
Width: 2837
GlyphClass: 3
LigCaretCntFixed: 1
Flags: MW
LayerCount: 2
Fore
SplineSet
917 -607 m 0
 994 -607 1054 -547 1054 -472 c 0
 1054 -395 994 -332 909 -332 c 0
 838 -332 770 -397 770 -471 c 0
 770 -550 842 -607 917 -607 c 0
2330 -610 m 0
 2432 -610 2477 -513 2477 -421 c 0
 2477 -384 2470 -345 2456 -310 c 1
 2332 -310 2226 -393 2226 -496 c 0
 2226 -557 2267 -610 2330 -610 c 0
2105 -497 m 0
 2105 -341 2230 -227 2377 -198 c 1
 2324 -152 2267 -129 2205 -129 c 0
 2032 -129 1933 -248 1933 -417 c 2
 1933 -678 l 2
 1933 -713 1909 -737 1867 -737 c 0
 1840 -737 1813 -706 1813 -678 c 2
 1812 -424 l 2
 1812 -263 1767 -123 1610 -123 c 0
 1456 -123 1409 -254 1409 -416 c 2
 1409 -675 l 2
 1409 -709 1384 -734 1345 -734 c 0
 1316 -734 1289 -705 1289 -675 c 0
 1289 -581 1288 -486 1288 -392 c 0
 1288 -259 1181 -122 1023 -122 c 0
 917 -122 845 -165 794 -241 c 1
 835 -220 876 -211 916 -211 c 0
 1056 -211 1175 -325 1175 -471 c 0
 1175 -616 1061 -727 914 -727 c 0
 736 -727 625 -571 625 -395 c 0
 625 -184 798 -2 1018 -2 c 0
 1151 -2 1258 -57 1338 -168 c 1
 1388 -81 1477 -6 1607 -6 c 0
 1738 -6 1833 -79 1884 -172 c 1
 1948 -82 2052 -9 2192 -9 c 0
 2352 -9 2460 -80 2534 -200 c 1
 2702 -240 2838 -382 2838 -593 c 0
 2838 -815 2654 -995 2431 -995 c 0
 2329 -995 2231 -957 2159 -894 c 0
 2145 -883 2138 -869 2138 -851 c 0
 2138 -817 2164 -788 2197 -788 c 0
 2213 -788 2227 -793 2238 -804 c 0
 2289 -848 2358 -876 2430 -876 c 0
 2585 -876 2717 -749 2717 -594 c 0
 2717 -483 2666 -403 2592 -353 c 1
 2595 -379 2598 -403 2598 -429 c 0
 2598 -589 2493 -730 2330 -730 c 0
 2200 -730 2105 -625 2105 -497 c 0
EndSplineSet
Refer: 71 3363 N 1 0 0 0.975449 0 25 2
LCarets2: 1 0
EndChar

StartChar: nhm1
Encoding: 1114263 -1 268
Width: 2911
GlyphClass: 3
LigCaretCntFixed: 1
Flags: MW
LayerCount: 2
Fore
SplineSet
481 121 m 0
 568 121 651 191 651 287 c 0
 651 377 576 460 476 460 c 0
 379 460 305 375 305 284 c 0
 305 189 392 121 481 121 c 0
2468 825 m 1
 2490 776 2501 724 2501 670 c 0
 2501 437 2340 243 2192 133 c 1
 2665 133 l 1
 2668 205 2670 269 2670 326 c 0
 2670 566 2634 729 2468 825 c 1
2186 873 m 0
 2018 873 1848 682 1848 516 c 2
 1848 133 l 1
 1869 133 l 5
 2101 190 2360 404 2360 675 c 0
 2360 776 2293 873 2186 873 c 0
1806 789 m 1
 1896 916 2061 1025 2254 1025 c 0
 2625 1025 2812 745 2812 362 c 0
 2812 292 2807 116 2806 67 c 0
 2805 26 2776 -7 2735 -7 c 2
 1777 -7 l 2
 1739 -7 1707 25 1707 63 c 2
 1707 533 l 2
 1707 731 1636 884 1457 884 c 0
 1270 884 1176 698 1175 511 c 1
 1175 43 l 2
 1175 5 1140 -26 1102 -26 c 0
 1064 -26 1032 5 1032 43 c 2
 1032 484 l 2
 1032 713 890 886 657 886 c 0
 434 886 276 694 246 498 c 1
 294 550 377 600 477 600 c 0
 656 600 791 462 791 286 c 0
 791 117 654 -20 481 -20 c 0
 245 -20 100 199 100 419 c 0
 100 743 323 1025 656 1025 c 0
 847 1025 992 943 1094 788 c 1
 1157 915 1282 1024 1459 1024 c 0
 1632 1024 1751 916 1806 789 c 1
EndSplineSet
LCarets2: 2 0 0
EndChar

